<svg width="17" height="21" viewBox="0 0 17 21" fill="none" xmlns="http://www.w3.org/2000/svg">
<path d="M16.9898 17.3175L16.0324 5.50032C15.9727 4.73895 15.3153 4.14258 14.5357 4.14258H12.6445V4.05932C12.6445 1.82097 10.7854 0 8.50009 0C6.21483 0 4.35566 1.82097 4.35566 4.05928V4.14254H2.46445C1.68484 4.14254 1.02743 4.7389 0.967963 5.49868L0.0101308 17.3191C-0.0639899 18.2656 0.271228 19.2078 0.929772 19.9042C1.58832 20.6005 2.52186 21 3.491 21H13.5091C14.4782 21 15.4118 20.6006 16.0703 19.9042C16.7288 19.2078 17.0641 18.2656 16.9898 17.3175ZM5.61148 4.05928C5.61148 2.49925 6.90734 1.23006 8.50005 1.23006C10.0928 1.23006 11.3886 2.49929 11.3886 4.05928V4.14254H5.61148V4.05928ZM15.149 19.0684C14.7211 19.5208 14.1388 19.7699 13.5091 19.7699H3.49104C2.86139 19.7699 2.27906 19.5208 1.85117 19.0684C1.42332 18.6159 1.21419 18.0281 1.26227 17.4148L2.21998 5.59433C2.22969 5.46997 2.33706 5.3726 2.46441 5.3726H4.35562V6.88751C4.35562 7.22716 4.63677 7.50254 4.98355 7.50254C5.33032 7.50254 5.61148 7.22716 5.61148 6.88751V5.3726H11.3887V6.88751C11.3887 7.22716 11.6698 7.50254 12.0166 7.50254C12.3634 7.50254 12.6445 7.22716 12.6445 6.88751V5.3726H14.5357C14.6631 5.3726 14.7704 5.46997 14.7803 5.59597L15.7378 17.4132C15.786 18.0281 15.5768 18.6159 15.149 19.0684Z" fill="white"/>
</svg>
