<svg width="181" height="27" viewBox="0 0 181 27" fill="none" xmlns="http://www.w3.org/2000/svg">
<path d="M18.9621 24.0496H0.165039V24.1267H18.9621V24.0496Z" fill="#644E33"/>
<path d="M18.9622 22.3094H0V22.4084H18.9622V22.3094Z" fill="#644E33"/>
<path d="M18.9622 17.6334H0V17.7325H18.9622V17.6334Z" fill="#644E33"/>
<path d="M18.9622 14.7936H0V14.8926H18.9622V14.7936Z" fill="#644E33"/>
<path d="M3.60057 2.61993H3.55652V2.66396V2.74101L3.51248 14.8596H3.52349V17.3912C3.51248 17.4683 3.51248 17.5453 3.51248 17.6334V17.6554V17.6664V17.6774L3.50146 22.3553L7.78503 22.3663L7.77402 26.8902V26.9782H7.78503L10.4939 26.9892L14.8546 27.0002L14.8656 22.3993L14.8876 14.8926L14.9316 2.66396L3.60057 2.61993ZM14.8325 2.74101L14.7995 13.4287C14.2049 7.83721 10.0865 3.3684 4.88894 2.70799L14.8325 2.74101ZM9.89928 23.6101V23.467H10.1746H10.4389C10.4278 23.6211 10.3728 23.7642 10.2737 23.8633C10.1746 23.9733 10.0424 24.0284 9.89928 24.0394V23.8302V23.6101ZM9.66803 23.39H9.50286V22.3883H9.56893C9.78916 22.4104 9.99838 22.5204 10.1636 22.6855C10.3397 22.8726 10.4389 23.1258 10.4499 23.39H9.66803ZM9.41476 23.6541V24.0504L7.8511 24.0394C7.87312 23.1588 8.52281 22.4434 9.33768 22.3773H9.42577V23.379V23.5991L9.41476 23.6541ZM6.24339 16.7308V16.6537H6.32047C6.28743 16.6758 6.26541 16.6978 6.24339 16.7308ZM6.49666 16.6537V16.9289H6.24339C6.26541 16.7858 6.36451 16.6758 6.49666 16.6537ZM6.41957 17.4462C6.30946 17.3252 6.2544 17.1711 6.24339 17.006H6.27642H6.816V17.6334C6.67284 17.6334 6.52969 17.5673 6.41957 17.4462ZM6.5407 17.6444H6.23237V17.3252C6.26541 17.3912 6.30946 17.4572 6.3535 17.5123C6.41957 17.5673 6.47463 17.6113 6.5407 17.6444ZM6.58475 16.9289V16.6427H6.82701V16.9289H6.58475ZM6.5407 16.5657H6.24339L6.2544 14.8706C6.67284 14.8816 7.05825 15.0577 7.35557 15.3769C7.59783 15.6411 7.75199 15.9603 7.80705 16.3125V16.5657H7.6639H6.5407ZM7.79604 15.9933C7.70795 15.7512 7.58682 15.52 7.41063 15.3329C7.21242 15.1128 6.97016 14.9587 6.69487 14.8706H7.79604V15.9933ZM6.89308 17.5563V16.9399V16.6537H7.78503V16.8519C7.74098 17.039 7.65289 17.2041 7.53176 17.3472C7.35557 17.5343 7.13534 17.6334 6.89308 17.6444V17.5563ZM7.59783 17.4022C7.68592 17.3142 7.75199 17.2151 7.79604 17.105V17.6554H7.24545C7.37759 17.5893 7.48771 17.5123 7.59783 17.4022ZM7.8511 22.3773H8.94126C8.42371 22.5534 8.00526 22.9937 7.8511 23.5551V22.3773ZM10.1305 22.2893H8.90822C11.0225 21.9481 12.8284 20.5942 13.8855 18.701C14.4471 19.7687 14.7665 21.0015 14.7775 22.3113L12.487 22.3003L10.538 22.2893H10.1305ZM13.9186 18.613C14.348 17.8205 14.6453 16.9399 14.7775 16.0043L14.7555 21.2326C14.6343 20.286 14.348 19.4055 13.9186 18.613ZM14.7885 14.9477C14.7665 16.2465 14.4361 17.4683 13.8745 18.5249C12.8174 16.6097 11.0005 15.2338 8.86418 14.8926L14.7885 14.9146V14.9477ZM13.8305 18.613C12.6632 20.7373 10.56 22.1902 8.1374 22.2893H7.88413L7.89514 17.6554L7.90616 15.6741V14.9036C10.4389 14.9257 12.6412 16.4226 13.8305 18.613ZM9.49185 23.9293C9.50286 23.9513 9.52488 23.9733 9.5469 23.9953C9.56893 24.0174 9.59095 24.0394 9.61297 24.0614H9.49185V23.9293ZM9.60196 23.9403C9.53589 23.8743 9.50286 23.7862 9.50286 23.6982H9.51387H9.83321V24.0504C9.7341 24.0394 9.65702 23.9953 9.60196 23.9403ZM9.50286 23.6101C9.51387 23.5441 9.56893 23.489 9.635 23.467V23.6101H9.50286ZM9.70107 23.6101V23.467H9.8222V23.6101H9.70107ZM3.63361 2.69698C9.80017 2.74101 14.7885 8.16741 14.7885 14.8046L7.86211 14.7826H7.82907H6.1663L3.60057 14.7716L3.63361 2.69698ZM3.60057 14.8596L5.58268 14.8706C4.61365 15.1128 3.85384 15.9053 3.58956 16.9399L3.60057 14.8596ZM3.60057 17.4022C3.73271 15.9933 4.83388 14.8816 6.1663 14.8706V16.5657V17.006V17.6334L3.60057 17.6223V17.4022ZM3.60057 17.7104L6.1663 17.7214H6.89308H7.80705L7.79604 22.2893C5.58268 22.2452 3.77676 20.3741 3.62259 18.0186L3.60057 17.7104ZM3.56754 22.2783L3.57855 18.7561H3.58956V18.635C3.94193 20.4841 5.3184 21.9371 7.04724 22.2893L3.56754 22.2783ZM7.84009 26.9012L7.8511 24.7768C8.09336 25.8225 8.86418 26.648 9.84422 26.9012H7.84009ZM10.4278 26.9122C9.00733 26.8792 7.86211 25.6464 7.84009 24.1274L9.40375 24.1384H9.74512H9.81119H9.85523H10.4278V26.9122ZM10.4389 24.0504H10.1636C10.2186 24.0174 10.2737 23.9733 10.3177 23.9293C10.3618 23.8853 10.4058 23.8302 10.4278 23.7642L10.4389 24.0504ZM10.2076 22.6305C10.1085 22.5204 9.98737 22.4434 9.86624 22.3883H10.4499V23.0047C10.3948 22.8616 10.3177 22.7406 10.2076 22.6305ZM10.5159 24.0504L10.5269 22.3773L14.7665 22.3883C14.7334 24.8759 12.8394 26.8792 10.5159 26.9012V24.0504ZM14.7444 26.9232L11.2647 26.9122C13.0266 26.571 14.4141 25.096 14.7555 23.2249L14.7444 26.9232Z" fill="#644E33"/>
<path d="M15.5597 25.4039H1.9602C0.91409 25.4039 0.0551758 24.5454 0.0551758 23.4998V1.9042C0.0551758 0.858539 0.903079 0 1.9602 0H15.5597C16.6058 0 17.4647 0.858539 17.4647 1.9042V23.4998C17.4647 24.5454 16.6058 25.4039 15.5597 25.4039ZM1.9602 0.440276C1.14534 0.440276 0.495645 1.10069 0.495645 1.9042V23.4998C0.495645 24.3033 1.15635 24.9637 1.9602 24.9637H15.5597C16.3635 24.9637 17.0242 24.3033 17.0242 23.4998V1.9042C17.0242 1.10069 16.3635 0.440276 15.5597 0.440276H1.9602Z" fill="url(#paint0_linear)"/>
<path d="M12.091 21.8595C11.2982 22.1237 10.6595 22.2998 10.175 22.3878C9.31607 22.5419 8.52323 22.63 7.78544 22.63C6.67326 22.63 5.73726 22.4099 4.97745 21.9806C4.21764 21.5513 3.68908 20.9349 3.40278 20.1534C3.11647 19.372 3.09445 18.4474 3.34772 17.3797C3.56795 16.4441 3.92033 15.6516 4.41586 14.9912C4.91138 14.3418 5.45096 13.8025 6.0566 13.3732C6.66225 12.9549 7.23486 12.6357 7.79646 12.4376C8.64436 12.1294 9.63541 11.9753 10.7696 11.9753C11.2982 11.9753 11.8488 12.0414 12.4104 12.1624C12.972 12.2835 13.5996 12.4376 14.2824 12.6467C14.1502 12.8889 14.0401 13.131 13.952 13.3622C13.8529 13.5933 13.6987 14.0776 13.4565 14.8041H13.016L13.1702 13.9786C13.1922 13.8575 13.2142 13.7584 13.2252 13.6814C13.2362 13.6043 13.2252 13.5053 13.2032 13.3842C13.1151 13.2081 12.9499 13.054 12.6967 12.9219C12.2562 12.7348 11.8818 12.6137 11.5735 12.5477C11.2651 12.4816 10.8907 12.4596 10.4503 12.4596C9.53631 12.4596 8.69942 12.6577 7.93961 13.043C7.1798 13.4282 6.54112 13.9896 6.03458 14.716C5.51703 15.4425 5.16465 16.235 4.95543 17.0935C4.7352 18.0401 4.7352 18.8876 4.95543 19.6471C5.17566 20.4066 5.5831 20.979 6.15571 21.3862C6.73933 21.7825 7.47711 21.9916 8.36906 21.9916C8.78751 21.9916 9.20596 21.9476 9.6244 21.8705C10.0428 21.7935 10.4062 21.6724 10.7146 21.5293C10.8027 21.3422 10.9018 21.034 11.0009 20.6047L11.1881 19.8012C11.2872 19.383 11.3202 19.1298 11.2982 19.0638C11.2762 18.9867 11.166 18.9427 10.9899 18.8987C10.8137 18.8656 10.3842 18.8326 9.70148 18.8106L9.80059 18.3703L12.036 18.4254C12.4764 18.4254 12.9279 18.4033 13.3904 18.3703L13.3574 18.7115L12.7407 19.0307C12.5645 19.5481 12.4214 20.0214 12.3223 20.4506C12.2342 20.8799 12.1461 21.3532 12.091 21.8595Z" fill="url(#paint1_linear)"/>
<path d="M4.17315 14.8488C4.39339 14.5517 4.63565 14.2765 4.8779 14.0343C4.86689 13.583 4.86689 13.1208 4.86689 12.6475V8.4098C4.86689 7.144 4.88892 6.21942 4.94398 5.62505C5.54962 5.43793 6.12223 5.33887 6.6618 5.33887C7.25644 5.33887 7.76298 5.43793 8.18142 5.63606C8.59987 5.83418 8.9082 6.13137 9.11742 6.51661C9.32664 6.90185 9.42575 7.34213 9.42575 7.81542C9.42575 8.31074 9.31563 8.76202 9.10641 9.18028C8.89718 9.58754 8.59987 9.89573 8.22547 10.1049C7.85107 10.314 7.44364 10.4131 7.02519 10.4131C6.73889 10.4131 6.34246 10.358 5.84694 10.248L6.02312 10.8753C6.44157 10.9524 6.82698 10.9964 7.17936 10.9964C7.60881 10.9964 7.98321 10.9414 8.32458 10.8423C8.80909 10.6992 9.2826 10.4571 9.73408 10.1269C10.1856 9.78566 10.5379 9.37841 10.7692 8.8941C11.0114 8.4098 11.1216 7.91449 11.1216 7.43018C11.1216 6.87984 10.9784 6.39553 10.6921 5.96626C10.4058 5.53699 10.0094 5.2288 9.50283 5.03068C8.99629 4.83255 8.29154 4.73349 7.39959 4.73349C7.27846 4.73349 7.14632 4.73349 6.99216 4.7445L5.67075 4.78852C5.17522 4.79953 4.71273 4.81054 4.27226 4.81054C3.62257 4.81054 2.73062 4.78852 1.60742 4.7555V5.29484C2.26813 5.30585 2.67556 5.33887 2.81871 5.3829C2.96186 5.42693 3.06097 5.50397 3.12704 5.60304C3.19311 5.7021 3.23716 6.01029 3.24817 6.54963C3.27019 7.27609 3.27019 8.02456 3.27019 8.78403V12.6695C3.24817 14.1444 3.23716 14.9369 3.23716 15.058C3.21513 15.4872 3.1821 15.7624 3.11603 15.8725C3.06097 15.9605 2.96186 16.0266 2.81871 16.0706C2.67556 16.1146 2.26813 16.1477 1.60742 16.1587V16.698C2.27914 16.676 2.81871 16.665 3.23716 16.654C3.49043 15.9495 3.78774 15.3552 4.17315 14.8488Z" fill="url(#paint2_linear)"/>
<path d="M6.54093 16.1254C6.06743 16.1144 5.72606 16.1034 5.51684 16.0704C5.43976 16.2465 5.37369 16.4336 5.30762 16.6097C5.65999 16.6207 6.06743 16.6317 6.52992 16.6537V16.1254H6.54093Z" fill="url(#paint3_linear)"/>
<path d="M25.8532 7.85469V7.28762C27.0148 7.31462 27.9333 7.34163 28.6087 7.34163C29.068 7.34163 29.5272 7.34163 30.0405 7.31463L31.3913 7.26062C31.5534 7.26062 31.6884 7.26062 31.7965 7.26062C32.715 7.26062 33.4444 7.36863 33.9577 7.55765C34.471 7.77368 34.9032 8.07071 35.2004 8.52977C35.4975 8.96182 35.6326 9.47488 35.6326 10.0419C35.6326 10.555 35.4975 11.0681 35.2544 11.5541C35.0113 12.0672 34.6601 12.4722 34.1738 12.8233C33.7146 13.1743 33.2283 13.4173 32.715 13.5794C32.3638 13.6874 31.9856 13.7414 31.5263 13.7414C31.1481 13.7414 30.7699 13.6874 30.3377 13.6334L30.1486 12.9853C30.6619 13.0933 31.0671 13.1473 31.3642 13.1473C31.7965 13.1473 32.2017 13.0393 32.6069 12.8233C32.9851 12.6072 33.3093 12.2832 33.5254 11.8782C33.7416 11.4461 33.8496 10.9871 33.8496 10.474C33.8496 9.98794 33.7416 9.52889 33.5254 9.12384C33.3093 8.71879 32.9851 8.42176 32.5529 8.20573C32.1207 7.98971 31.6074 7.88169 30.986 7.88169C30.4457 7.88169 29.8514 7.9897 29.2301 8.17873C29.176 8.7998 29.149 9.74491 29.149 11.0681V15.4426C29.149 16.2257 29.149 16.9818 29.176 17.7379C29.203 18.2779 29.2301 18.602 29.3111 18.71C29.3651 18.818 29.4732 18.899 29.6353 18.926C29.7704 18.98 30.2026 19.007 30.878 19.007V19.5741C29.7974 19.5201 29.0139 19.4931 28.5277 19.4931C28.3386 19.4931 27.4201 19.5201 25.8262 19.5741V19.007C26.5015 19.007 26.9338 18.953 27.0689 18.926C27.231 18.872 27.312 18.818 27.393 18.71C27.4741 18.602 27.5011 18.3049 27.5281 17.8729C27.5281 17.7649 27.5551 16.9278 27.5551 15.4156V11.3921C27.5551 10.609 27.5551 9.82592 27.5281 9.09684C27.5011 8.55677 27.4741 8.23273 27.393 8.12472C27.339 8.01671 27.231 7.9357 27.0689 7.90869C26.9608 7.88169 26.5556 7.85469 25.8532 7.85469Z" fill="url(#paint4_linear)"/>
<path d="M37.3887 7.85518V7.28812C37.6048 7.28812 37.956 7.31512 38.4152 7.31512L40.0902 7.36913C40.4143 7.36913 40.9276 7.36913 41.63 7.34213C42.5215 7.31512 43.0618 7.28812 43.1969 7.28812C44.3045 7.28812 45.115 7.39613 45.6012 7.58515C46.1145 7.77418 46.4927 8.09821 46.7629 8.53026C47.033 8.96232 47.1681 9.44837 47.1681 9.96143C47.1681 10.4475 47.033 10.9335 46.7899 11.4196C46.5197 11.9057 46.1415 12.2837 45.6552 12.6077C45.169 12.9318 44.5206 13.1748 43.7372 13.3368C43.8723 13.5529 44.2235 13.9849 44.7638 14.687L46.952 17.5763C47.5733 18.3864 47.9515 18.8185 48.0326 18.9265C48.0866 18.9535 48.1406 19.0075 48.1947 19.0075C48.2757 19.0345 48.4648 19.0615 48.762 19.0615V19.6286C48.3297 19.6016 47.9515 19.5746 47.6003 19.5746C47.2491 19.5746 46.8439 19.6016 46.3306 19.6286C45.9524 19.1965 45.3311 18.3594 44.4396 17.0903C43.9533 16.3882 43.5211 15.8211 43.1429 15.3351C42.5485 14.552 41.9542 13.8499 41.4139 13.2288L41.4949 12.9588C41.7921 12.9858 42.0352 12.9858 42.1703 12.9858C43.2239 12.9858 44.0073 12.7428 44.5746 12.2297C45.1149 11.7436 45.3851 11.0686 45.3851 10.2585C45.3851 9.55638 45.142 8.98932 44.6827 8.55727C44.2235 8.12522 43.4941 7.9362 42.5485 7.9362C41.9542 7.9362 41.3599 8.0172 40.7926 8.20623C40.7655 8.53027 40.7385 8.8003 40.7385 9.07033C40.7385 9.15134 40.7115 9.98844 40.6845 11.5816V15.4161C40.6845 16.1992 40.6845 16.9553 40.7115 17.7113C40.7115 18.2514 40.7655 18.5754 40.8196 18.6835C40.8736 18.7915 40.9817 18.8725 41.1437 18.8995C41.3058 18.9535 41.7111 18.9805 42.3864 18.9805V19.5476C41.576 19.4936 40.8196 19.4666 40.1172 19.4666C39.5499 19.4666 38.6314 19.4936 37.3076 19.5476V18.9805C37.983 18.9805 38.4152 18.9265 38.5503 18.8995C38.7124 18.8455 38.7934 18.7915 38.8745 18.6835C38.9555 18.5754 38.9825 18.2784 39.0096 17.8464C39.0096 17.7383 39.0366 16.9012 39.0366 15.3891V11.3656C39.0366 10.5825 39.0366 9.79941 39.0096 9.07033C38.9825 8.53026 38.9555 8.20622 38.8745 8.09821C38.8205 7.9902 38.7124 7.90919 38.5503 7.88219C38.4963 7.88219 38.064 7.85518 37.3887 7.85518Z" fill="url(#paint5_linear)"/>
<path d="M50.1665 13.5247C50.1665 12.6066 50.3016 11.7695 50.5717 10.9864C50.8419 10.2033 51.3011 9.52824 51.9495 8.90716C52.5979 8.28609 53.3002 7.82704 54.1107 7.503C54.9211 7.17896 55.8397 7.04395 56.8662 7.04395C57.8117 7.04395 58.6762 7.17896 59.4597 7.44899C60.2431 7.71903 60.8915 8.07006 61.3777 8.50212C61.864 8.93417 62.2692 9.42023 62.5664 9.96029C62.7825 10.3653 62.9716 10.8244 63.0797 11.3375C63.2147 11.8775 63.2688 12.4446 63.2688 13.0387C63.2688 14.9829 62.6204 16.6031 61.2967 17.8992C60 19.1954 58.325 19.8435 56.3529 19.8435C55.4344 19.8435 54.597 19.7084 53.8135 19.4114C53.0301 19.1144 52.3547 18.6823 51.8144 18.0882C51.2741 17.4942 50.8689 16.7921 50.5717 15.982C50.3016 15.1449 50.1665 14.3348 50.1665 13.5247ZM51.9765 12.8226C51.9765 13.3627 52.0305 13.9298 52.1386 14.4968C52.2467 15.0639 52.3817 15.5499 52.5438 15.955C52.814 16.6571 53.1922 17.2241 53.6244 17.7102C54.0837 18.1693 54.5699 18.5203 55.1102 18.7363C55.6505 18.9524 56.2719 19.0604 56.9473 19.0604C57.8658 19.0604 58.6762 18.8443 59.3786 18.3853C60.054 17.9262 60.5673 17.3052 60.9185 16.4681C61.2697 15.658 61.4318 14.6858 61.4318 13.6327C61.4318 12.7146 61.3237 11.8775 61.0806 11.0944C60.9185 10.6084 60.7294 10.2033 60.4862 9.79827C60.2431 9.42022 59.9459 9.06918 59.5947 8.79915C59.2435 8.50212 58.8113 8.25909 58.244 8.07007C57.7037 7.88104 57.1094 7.77303 56.461 7.77303C55.5425 7.77303 54.732 7.98906 54.0296 8.3941C53.3273 8.79915 52.814 9.39322 52.4628 10.1763C52.1386 10.9594 51.9765 11.8235 51.9765 12.8226Z" fill="url(#paint6_linear)"/>
<path d="M64.998 13.5247C64.998 12.6066 65.1331 11.7695 65.4033 10.9864C65.6734 10.2033 66.1327 9.52824 66.781 8.90716C67.4294 8.28609 68.1318 7.82704 68.9422 7.503C69.7527 7.17896 70.6712 7.04395 71.6978 7.04395C72.6433 7.04395 73.5078 7.17896 74.2912 7.44899C75.0747 7.71903 75.723 8.07006 76.2093 8.50212C76.6956 8.93417 77.1008 9.42023 77.3979 9.96029C77.6141 10.3653 77.8032 10.8244 77.9112 11.3375C78.0463 11.8775 78.1003 12.4446 78.1003 13.0387C78.1003 14.9829 77.452 16.6031 76.1282 17.8992C74.8315 19.1954 73.1566 19.8435 71.1845 19.8435C70.266 19.8435 69.4285 19.7084 68.6451 19.4114C67.8616 19.1144 67.1863 18.6823 66.646 18.0882C66.1057 17.4942 65.7004 16.7921 65.4033 15.982C65.1601 15.1449 64.998 14.3348 64.998 13.5247ZM66.8081 12.8226C66.8081 13.3627 66.8621 13.9298 66.9701 14.4968C67.0782 15.0639 67.2133 15.5499 67.3754 15.955C67.6455 16.6571 68.0237 17.2241 68.456 17.7102C68.9152 18.1693 69.4015 18.5203 69.9688 18.7363C70.5091 18.9524 71.1305 19.0604 71.8058 19.0604C72.7244 19.0604 73.5348 18.8443 74.2372 18.3853C74.9126 17.9262 75.4258 17.3052 75.777 16.4681C76.1282 15.658 76.2903 14.6858 76.2903 13.6327C76.2903 12.7146 76.1823 11.8775 75.9391 11.0944C75.777 10.6084 75.5879 10.2033 75.3448 9.79827C75.1017 9.42022 74.8045 9.06918 74.4533 8.79915C74.1021 8.50212 73.6699 8.25909 73.1026 8.07007C72.5623 7.88104 71.9679 7.77303 71.3196 7.77303C70.4011 7.77303 69.5906 7.98906 68.8882 8.3941C68.1858 8.79915 67.6725 9.39322 67.3213 10.1763C66.9972 10.9594 66.8081 11.8235 66.8081 12.8226Z" fill="url(#paint7_linear)"/>
<path d="M79.8022 7.85518V7.28812C80.6937 7.31512 81.4231 7.34213 82.0445 7.34213C82.4767 7.34213 83.2602 7.34212 84.3678 7.31512C85.4754 7.28812 86.2588 7.28812 86.637 7.28812C87.0693 7.28812 87.4475 7.28812 87.7987 7.28812C88.1499 7.28812 88.4741 7.31512 88.7442 7.34213C88.6091 7.82818 88.5011 8.71929 88.4741 9.96143H87.9338C87.8797 9.25935 87.7987 8.71929 87.7177 8.34124C87.4205 8.23323 87.0423 8.15222 86.61 8.09821C86.1778 8.04421 85.6645 8.01721 85.0702 8.01721C84.4758 8.01721 83.8815 8.04421 83.2602 8.12522C83.2332 8.44925 83.2061 8.71929 83.1791 8.98932C83.1791 9.15134 83.1521 9.79941 83.1251 10.9606V12.8778C83.7735 12.9048 84.3408 12.9048 84.8541 12.9048C85.5835 12.9048 86.1778 12.8778 86.61 12.7968C86.7721 12.7698 86.8802 12.7158 86.9342 12.6618C86.9882 12.6077 87.0423 12.3647 87.0963 11.9327L87.1774 11.3926H87.7177L87.6636 13.3638L87.7177 15.4971H87.1774L87.1233 14.93C87.0693 14.3089 87.0153 13.9579 86.9882 13.9039C86.9342 13.8229 86.8262 13.7689 86.6641 13.7149C86.3399 13.6339 85.5835 13.6069 84.4218 13.6069C84.0166 13.6069 83.5844 13.6069 83.1521 13.6339V15.3891C83.1521 16.1722 83.1521 16.9283 83.1791 17.6843C83.1791 18.2244 83.2332 18.5484 83.2872 18.6565C83.3412 18.7645 83.4493 18.8455 83.6114 18.8725C83.7735 18.9265 84.1787 18.9535 84.8541 18.9535V19.5206C84.1246 19.4666 83.3952 19.4395 82.6658 19.4395C82.0175 19.4395 81.072 19.4666 79.8022 19.5206V18.9535C80.4776 18.9535 80.9099 18.8995 81.0449 18.8725C81.207 18.8185 81.2881 18.7645 81.3691 18.6565C81.4502 18.5484 81.4772 18.2514 81.5042 17.8194C81.5042 17.7113 81.5312 16.8742 81.5312 15.3621V11.3386C81.5312 10.5555 81.5312 9.77241 81.5042 9.04332C81.4772 8.50326 81.4502 8.17922 81.3691 8.07121C81.3151 7.9632 81.207 7.88219 81.0449 7.85518C80.9099 7.88219 80.5046 7.85518 79.8022 7.85518Z" fill="url(#paint8_linear)"/>
<path d="M95.9297 13.5247C95.9297 12.6066 96.0648 11.7695 96.3349 10.9864C96.6051 10.2033 97.0643 9.52824 97.7127 8.90716C98.361 8.28609 99.0634 7.82704 99.8739 7.503C100.684 7.17896 101.603 7.04395 102.629 7.04395C103.575 7.04395 104.439 7.17896 105.223 7.44899C106.006 7.71903 106.655 8.07006 107.141 8.50212C107.627 8.93417 108.032 9.42023 108.33 9.96029C108.546 10.3653 108.735 10.8244 108.843 11.3375C108.978 11.8775 109.032 12.4446 109.032 13.0387C109.032 14.9829 108.384 16.6031 107.06 17.8992C105.763 19.1954 104.088 19.8435 102.116 19.8435C101.198 19.8435 100.36 19.7084 99.5767 19.4114C98.7933 19.1144 98.1179 18.6823 97.5776 18.0882C97.0373 17.4942 96.6321 16.7921 96.3349 15.982C96.0648 15.1449 95.9297 14.3348 95.9297 13.5247ZM97.7397 12.8226C97.7397 13.3627 97.7937 13.9298 97.9018 14.4968C98.0098 15.0639 98.1449 15.5499 98.307 15.955C98.5772 16.6571 98.9554 17.2241 99.3876 17.7102C99.8469 18.1693 100.333 18.5203 100.9 18.7363C101.441 18.9524 102.062 19.0604 102.737 19.0604C103.656 19.0604 104.466 18.8443 105.169 18.3853C105.844 17.9262 106.357 17.3052 106.709 16.4681C107.06 15.658 107.222 14.6858 107.222 13.6327C107.222 12.7146 107.114 11.8775 106.871 11.0944C106.709 10.6084 106.52 10.2033 106.276 9.79827C106.033 9.42022 105.736 9.06918 105.385 8.79915C105.034 8.50212 104.602 8.25909 104.034 8.07007C103.494 7.88104 102.9 7.77303 102.251 7.77303C101.333 7.77303 100.522 7.98906 99.8198 8.3941C99.1175 8.79915 98.6042 9.39322 98.253 10.1763C97.9018 10.9594 97.7397 11.8235 97.7397 12.8226Z" fill="url(#paint9_linear)"/>
<path d="M110.734 7.85518V7.28812C111.599 7.31512 112.355 7.34213 112.977 7.34213C113.409 7.34213 114.192 7.34212 115.3 7.31512C116.435 7.28812 117.191 7.28812 117.569 7.28812C118.001 7.28812 118.38 7.28812 118.731 7.28812C119.082 7.28812 119.406 7.31512 119.676 7.34213C119.541 7.82818 119.433 8.71929 119.406 9.96143H118.866C118.812 9.25935 118.731 8.71929 118.65 8.34124C118.353 8.23323 117.974 8.15222 117.542 8.09821C117.11 8.04421 116.597 8.01721 116.002 8.01721C115.408 8.01721 114.814 8.04421 114.192 8.12522C114.165 8.44925 114.138 8.71929 114.111 8.98932C114.111 9.15134 114.084 9.79941 114.057 10.9606V12.8778C114.706 12.9048 115.273 12.9048 115.786 12.9048C116.516 12.9048 117.11 12.8778 117.542 12.7968C117.704 12.7698 117.812 12.7158 117.866 12.6618C117.92 12.6077 117.974 12.3647 118.028 11.9327L118.109 11.3926H118.65L118.596 13.3638L118.65 15.4971H118.109L118.055 14.93C118.001 14.3089 117.947 13.9579 117.92 13.9039C117.866 13.8229 117.758 13.7689 117.596 13.7149C117.272 13.6339 116.516 13.6069 115.354 13.6069C114.949 13.6069 114.516 13.6069 114.084 13.6339V15.3891C114.084 16.1722 114.084 16.9283 114.111 17.6843C114.111 18.2244 114.165 18.5484 114.219 18.6565C114.273 18.7645 114.381 18.8455 114.543 18.8725C114.706 18.9265 115.111 18.9535 115.786 18.9535V19.5206C115.057 19.4666 114.327 19.4395 113.598 19.4395C112.95 19.4395 112.004 19.4666 110.734 19.5206V18.9535C111.41 18.9535 111.842 18.8995 111.977 18.8725C112.139 18.8185 112.22 18.7645 112.301 18.6565C112.382 18.5484 112.409 18.2514 112.436 17.8194C112.436 17.7113 112.463 16.8742 112.463 15.3621V11.3386C112.463 10.5555 112.463 9.77241 112.436 9.04332C112.409 8.50326 112.382 8.17922 112.301 8.07121C112.247 7.9632 112.139 7.88219 111.977 7.85518C111.842 7.88219 111.41 7.85518 110.734 7.85518Z" fill="url(#paint10_linear)"/>
<path d="M138.776 18.9253C137.885 19.2494 137.182 19.4654 136.615 19.5734C135.615 19.7624 134.697 19.8705 133.805 19.8705C132.482 19.8705 131.293 19.6004 130.239 19.0874C129.213 18.5743 128.402 17.8452 127.835 16.9001C127.268 15.955 126.998 14.8479 126.998 13.5517C126.998 12.4176 127.214 11.4725 127.619 10.6894C128.024 9.90628 128.537 9.25821 129.132 8.74515C129.753 8.23209 130.347 7.85404 130.942 7.61101C131.86 7.23297 133.022 7.04395 134.4 7.04395C135.048 7.04395 135.723 7.12496 136.426 7.25997C137.128 7.39499 137.939 7.58401 138.83 7.85404C138.749 8.15108 138.668 8.44811 138.641 8.71814C138.587 8.98817 138.533 9.58225 138.452 10.4463H137.912L137.858 9.44723C137.858 9.28521 137.858 9.1772 137.831 9.09619C137.831 9.01518 137.777 8.88016 137.722 8.74515C137.56 8.52912 137.317 8.3401 136.966 8.17808C136.372 7.96205 135.885 7.80003 135.507 7.71902C135.129 7.63802 134.67 7.61101 134.129 7.61101C133.022 7.61101 132.076 7.85404 131.266 8.31309C130.455 8.77215 129.861 9.44723 129.429 10.3113C129.024 11.1754 128.808 12.1475 128.808 13.1737C128.808 14.3078 129.051 15.3339 129.537 16.252C130.023 17.1701 130.672 17.8452 131.482 18.3313C132.292 18.8173 133.238 19.0604 134.319 19.0604C134.832 19.0604 135.318 19.0064 135.804 18.9253C136.291 18.8173 136.696 18.6823 137.02 18.5203C137.074 18.2773 137.101 17.9262 137.101 17.4132V16.441C137.101 15.928 137.074 15.631 137.02 15.5499C136.966 15.4689 136.831 15.3879 136.588 15.3609C136.372 15.3069 135.831 15.2799 135.021 15.2529V14.7128L137.722 14.7669C138.236 14.7669 138.776 14.7398 139.343 14.7128L139.397 15.1179L138.749 15.4959C138.668 16.117 138.641 16.6841 138.641 17.1971C138.641 17.7102 138.695 18.3313 138.776 18.9253Z" fill="url(#paint11_linear)"/>
<path d="M141.289 13.5247C141.289 12.6066 141.424 11.7695 141.694 10.9864C141.964 10.2033 142.423 9.52824 143.072 8.90716C143.72 8.28609 144.422 7.82704 145.233 7.503C146.043 7.17896 146.962 7.04395 147.988 7.04395C148.934 7.04395 149.798 7.17896 150.582 7.44899C151.365 7.71903 152.014 8.07006 152.5 8.50212C152.986 8.93417 153.391 9.42023 153.688 9.96029C153.905 10.3653 154.094 10.8244 154.202 11.3375C154.337 11.8775 154.391 12.4446 154.391 13.0387C154.391 14.9829 153.742 16.6031 152.419 17.8992C151.122 19.1954 149.447 19.8435 147.475 19.8435C146.556 19.8435 145.719 19.7084 144.936 19.4114C144.152 19.1144 143.477 18.6823 142.936 18.0882C142.396 17.4942 141.991 16.7921 141.694 15.982C141.424 15.1449 141.289 14.3348 141.289 13.5247ZM143.099 12.8226C143.099 13.3627 143.153 13.9298 143.261 14.4968C143.369 15.0639 143.504 15.5499 143.666 15.955C143.936 16.6571 144.314 17.2241 144.746 17.7102C145.206 18.1693 145.692 18.5203 146.259 18.7363C146.8 18.9524 147.421 19.0604 148.096 19.0604C149.015 19.0604 149.825 18.8443 150.528 18.3853C151.203 17.9262 151.716 17.3052 152.068 16.4681C152.419 15.658 152.581 14.6858 152.581 13.6327C152.581 12.7146 152.473 11.8775 152.23 11.0944C152.068 10.6084 151.878 10.2033 151.635 9.79827C151.392 9.42022 151.095 9.06918 150.744 8.79915C150.393 8.50212 149.96 8.25909 149.393 8.07007C148.853 7.88104 148.258 7.77303 147.61 7.77303C146.692 7.77303 145.881 7.98906 145.206 8.3941C144.503 8.79915 143.99 9.39322 143.639 10.1763C143.261 10.9594 143.099 11.8235 143.099 12.8226Z" fill="url(#paint12_linear)"/>
<path d="M156.795 19.5998V19.1407C157.146 18.9787 157.389 18.8437 157.47 18.7357C157.524 18.6817 157.578 18.6277 157.578 18.5467C157.632 18.3847 157.659 18.0336 157.686 17.5206C157.713 16.7375 157.713 16.2514 157.713 16.1164V11.4448C157.713 10.6617 157.713 9.87866 157.686 9.14957C157.659 8.60951 157.632 8.28547 157.551 8.17746C157.497 8.06944 157.389 7.98843 157.227 7.96143C157.092 7.90742 156.66 7.88042 155.984 7.88042V7.31335C157.389 7.36736 158.254 7.39436 158.605 7.39436C158.983 7.39436 159.793 7.36736 161.09 7.31335V7.88042C160.415 7.88042 159.983 7.93443 159.848 7.96143C159.712 8.01544 159.604 8.06944 159.55 8.17746C159.469 8.28547 159.442 8.5825 159.415 9.01456C159.415 9.12257 159.388 9.95966 159.388 11.4718V17.3045C159.388 17.8986 159.388 18.4117 159.415 18.7897C160.064 18.8167 160.739 18.8437 161.387 18.8437C163.008 18.8437 164.17 18.7357 164.818 18.5197C164.899 18.3577 164.953 18.1416 165.007 17.9256L165.359 16.4944H165.926C165.791 17.3585 165.683 18.3577 165.548 19.5188C165.305 19.5728 165.115 19.5998 164.98 19.5998C164.683 19.6268 164.224 19.6268 163.603 19.6268L158.47 19.5458C157.929 19.5458 157.389 19.5458 156.795 19.5998Z" fill="url(#paint13_linear)"/>
<path d="M168.223 19.6016V19.1965C168.547 19.0075 168.844 18.8455 169.06 18.6835C169.087 18.2784 169.114 17.7383 169.141 17.0363C169.168 15.8481 169.195 15.011 169.195 14.552V11.0146C169.195 10.4475 169.168 9.77241 169.141 9.01632C169.114 8.53026 169.087 8.23323 169.033 8.12522C169.006 8.04421 168.925 7.9902 168.844 7.9632C168.655 7.88219 168.25 7.82818 167.655 7.82818V7.28812C168.493 7.31512 169.249 7.34213 169.898 7.34213C170.384 7.34213 171.059 7.34212 171.924 7.31512C172.788 7.28812 173.436 7.28812 173.923 7.28812C175.328 7.28812 176.489 7.47714 177.327 7.82818C178.191 8.17922 178.92 8.8003 179.515 9.6374C180.109 10.4745 180.406 11.5276 180.406 12.7428C180.406 13.6339 180.271 14.444 179.974 15.2C179.704 15.9561 179.299 16.6312 178.812 17.2253C178.326 17.7924 177.813 18.2514 177.246 18.6024C176.678 18.9265 176.111 19.1965 175.49 19.3585C174.868 19.5206 174.031 19.6016 172.977 19.6016C172.626 19.6016 172.14 19.6016 171.545 19.5746C170.762 19.5476 170.249 19.5476 170.006 19.5476C169.708 19.5476 169.087 19.5476 168.223 19.6016ZM170.897 18.6565C171.545 18.7645 172.194 18.8185 172.896 18.8185C173.626 18.8185 174.274 18.7645 174.814 18.6294C175.382 18.4944 175.841 18.3324 176.246 18.0894C176.651 17.8464 177.029 17.5223 177.408 17.0633C177.786 16.6042 178.056 16.0371 178.272 15.3351C178.461 14.633 178.569 13.9039 178.569 13.1478C178.569 12.0677 178.38 11.1496 178.002 10.3665C177.624 9.58339 177.029 9.01632 176.273 8.58427C175.49 8.17922 174.436 7.9632 173.085 7.9632C172.383 7.9632 171.653 8.0172 170.924 8.12522C170.897 8.39525 170.897 8.90831 170.87 9.6374L170.843 10.9065V14.363L170.87 17.0363C170.843 17.4953 170.87 18.0084 170.897 18.6565Z" fill="url(#paint14_linear)"/>
<defs>
<linearGradient id="paint0_linear" x1="-1.39012" y1="22.8429" x2="18.8961" y2="2.54776" gradientUnits="userSpaceOnUse">
<stop stop-color="#FAC929"/>
<stop offset="0.1484" stop-color="#FDE79A"/>
<stop offset="0.3297" stop-color="#FAC929"/>
<stop offset="0.7894" stop-color="#FEF8C2"/>
<stop offset="1" stop-color="#FAC929"/>
</linearGradient>
<linearGradient id="paint1_linear" x1="4.7142" y1="21.9049" x2="14.1248" y2="12.4902" gradientUnits="userSpaceOnUse">
<stop stop-color="#FAC929"/>
<stop offset="0.5158" stop-color="#FEF8C2"/>
<stop offset="1" stop-color="#FAC929"/>
</linearGradient>
<linearGradient id="paint2_linear" x1="-0.948697" y1="14.0872" x2="8.97718" y2="4.15701" gradientUnits="userSpaceOnUse">
<stop offset="0.1312" stop-color="#8A8A8A"/>
<stop offset="0.1898" stop-color="#8F8F8F"/>
<stop offset="0.2584" stop-color="#9D9D9D"/>
<stop offset="0.3318" stop-color="#B4B4B4"/>
<stop offset="0.4004" stop-color="#D1D1D1"/>
<stop offset="0.6063" stop-color="#D5D5D5"/>
<stop offset="0.8192" stop-color="#E2E2E2"/>
<stop offset="1" stop-color="#F2F2F2"/>
</linearGradient>
<linearGradient id="paint3_linear" x1="5.5475" y1="16.8509" x2="6.40624" y2="15.9918" gradientUnits="userSpaceOnUse">
<stop offset="0.1312" stop-color="#8A8A8A"/>
<stop offset="0.1898" stop-color="#8F8F8F"/>
<stop offset="0.2584" stop-color="#9D9D9D"/>
<stop offset="0.3318" stop-color="#B4B4B4"/>
<stop offset="0.4004" stop-color="#D1D1D1"/>
<stop offset="0.6063" stop-color="#D5D5D5"/>
<stop offset="0.8192" stop-color="#E2E2E2"/>
<stop offset="1" stop-color="#F2F2F2"/>
</linearGradient>
<linearGradient id="paint4_linear" x1="24.0488" y1="17.7933" x2="34.2945" y2="7.54312" gradientUnits="userSpaceOnUse">
<stop stop-color="#8A8A8A"/>
<stop offset="0.5829" stop-color="#D1D1D1"/>
<stop offset="1" stop-color="#F2F2F2"/>
</linearGradient>
<linearGradient id="paint5_linear" x1="37.156" y1="19.3704" x2="47.4274" y2="9.09449" gradientUnits="userSpaceOnUse">
<stop stop-color="#8A8A8A"/>
<stop offset="0.5829" stop-color="#D1D1D1"/>
<stop offset="1" stop-color="#F2F2F2"/>
</linearGradient>
<linearGradient id="paint6_linear" x1="51.8846" y1="18.1573" x2="61.4611" y2="8.57669" gradientUnits="userSpaceOnUse">
<stop stop-color="#8A8A8A"/>
<stop offset="0.5829" stop-color="#D1D1D1"/>
<stop offset="1" stop-color="#F2F2F2"/>
</linearGradient>
<linearGradient id="paint7_linear" x1="66.7254" y1="18.1573" x2="76.3019" y2="8.57668" gradientUnits="userSpaceOnUse">
<stop stop-color="#8A8A8A"/>
<stop offset="0.5829" stop-color="#D1D1D1"/>
<stop offset="1" stop-color="#F2F2F2"/>
</linearGradient>
<linearGradient id="paint8_linear" x1="77.9902" y1="17.7895" x2="88.5934" y2="7.18161" gradientUnits="userSpaceOnUse">
<stop stop-color="#8A8A8A"/>
<stop offset="0.5829" stop-color="#D1D1D1"/>
<stop offset="1" stop-color="#F2F2F2"/>
</linearGradient>
<linearGradient id="paint9_linear" x1="97.6488" y1="18.1572" x2="107.225" y2="8.57664" gradientUnits="userSpaceOnUse">
<stop stop-color="#8A8A8A"/>
<stop offset="0.5829" stop-color="#D1D1D1"/>
<stop offset="1" stop-color="#F2F2F2"/>
</linearGradient>
<linearGradient id="paint10_linear" x1="108.914" y1="17.7894" x2="119.517" y2="7.18153" gradientUnits="userSpaceOnUse">
<stop stop-color="#8A8A8A"/>
<stop offset="0.5829" stop-color="#D1D1D1"/>
<stop offset="1" stop-color="#F2F2F2"/>
</linearGradient>
<linearGradient id="paint11_linear" x1="129.238" y1="18.5132" x2="139.354" y2="8.3937" gradientUnits="userSpaceOnUse">
<stop stop-color="#8A8A8A"/>
<stop offset="0.5829" stop-color="#D1D1D1"/>
<stop offset="1" stop-color="#F2F2F2"/>
</linearGradient>
<linearGradient id="paint12_linear" x1="143.007" y1="18.1574" x2="152.583" y2="8.57663" gradientUnits="userSpaceOnUse">
<stop stop-color="#8A8A8A"/>
<stop offset="0.5829" stop-color="#D1D1D1"/>
<stop offset="1" stop-color="#F2F2F2"/>
</linearGradient>
<linearGradient id="paint13_linear" x1="155.697" y1="18.4938" x2="164.013" y2="10.1743" gradientUnits="userSpaceOnUse">
<stop stop-color="#8A8A8A"/>
<stop offset="0.5829" stop-color="#D1D1D1"/>
<stop offset="1" stop-color="#F2F2F2"/>
</linearGradient>
<linearGradient id="paint14_linear" x1="167.073" y1="18.4629" x2="177.777" y2="7.7544" gradientUnits="userSpaceOnUse">
<stop stop-color="#8A8A8A"/>
<stop offset="0.5829" stop-color="#D1D1D1"/>
<stop offset="1" stop-color="#F2F2F2"/>
</linearGradient>
</defs>
</svg>
