<svg width="253" height="81" viewBox="0 0 253 81" fill="none" xmlns="http://www.w3.org/2000/svg">
<path d="M57.0543 72.1504H0.49707V72.3815H57.0543V72.1504Z" fill="#644E33"/>
<path d="M57.0542 66.9331H0V67.2303H57.0542V66.9331Z" fill="#644E33"/>
<path d="M57.0542 52.8992H0V53.1964H57.0542V52.8992Z" fill="#644E33"/>
<path d="M57.0542 44.3799H0V44.6771H57.0542V44.3799Z" fill="#644E33"/>
<path d="M10.8343 7.85895H10.7018V7.99103V8.22218L10.5693 44.5781H10.6024V52.1729C10.5693 52.404 10.5693 52.6351 10.5693 52.8993V52.9654V52.9984V53.0314L10.5361 67.0652L23.4247 67.0983L23.3916 80.6698V80.934H23.4247L31.5753 80.967L44.6958 81L44.7289 67.1973L44.7952 44.6771L44.9277 7.99103L10.8343 7.85895ZM44.6295 8.22218L44.5301 40.2854C42.741 23.5108 30.3494 10.1044 14.7108 8.12311L44.6295 8.22218ZM29.7861 70.8296V70.4003H30.6145H31.4096C31.3765 70.8626 31.2108 71.2919 30.9126 71.5891C30.6145 71.9193 30.2169 72.0844 29.7861 72.1174V71.49V70.8296ZM29.0904 70.1692H28.5934V67.1643H28.7922C29.4548 67.2303 30.0843 67.5605 30.5813 68.0559C31.1114 68.6172 31.4096 69.3767 31.4428 70.1692H29.0904ZM28.3283 70.9617V72.1504L23.6235 72.1174C23.6898 69.4757 25.6446 67.3294 28.0964 67.1313H28.3614V70.1362V70.7966L28.3283 70.9617ZM18.7861 50.1916V49.9605H19.0181C18.9187 50.0265 18.8524 50.0925 18.7861 50.1916ZM19.5482 49.9605V50.786H18.7861C18.8524 50.3567 19.1506 50.0265 19.5482 49.9605ZM19.3163 52.338C18.9849 51.9747 18.8193 51.5124 18.7861 51.0171H18.8855H20.509V52.8993C20.0783 52.8993 19.6476 52.7012 19.3163 52.338ZM19.6807 52.9323H18.753V51.9747C18.8524 52.1729 18.9849 52.371 19.1175 52.5361C19.3163 52.7012 19.4819 52.8333 19.6807 52.9323ZM19.8132 50.786V49.9274H20.5422V50.786H19.8132ZM19.6807 49.6963H18.7861L18.8193 44.6111C20.0783 44.6441 21.2379 45.1724 22.1325 46.13C22.8614 46.9225 23.3253 47.8801 23.491 48.9368V49.6963H23.0602H19.6807ZM23.4578 47.9792C23.1928 47.2528 22.8283 46.5593 22.2982 45.998C21.7018 45.3376 20.9729 44.8753 20.1446 44.6111H23.4578V47.9792ZM20.741 52.6682V50.819V49.9605H23.4247V50.5548C23.2922 51.1162 23.0271 51.6115 22.6626 52.0408C22.1325 52.6021 21.4699 52.8993 20.741 52.9323V52.6682ZM22.8614 52.2059C23.1265 51.9417 23.3253 51.6445 23.4578 51.3143V52.9654H21.8012C22.1988 52.7672 22.5301 52.5361 22.8614 52.2059ZM23.6235 67.1313H26.9036C25.3464 67.6596 24.0873 68.9804 23.6235 70.6645V67.1313ZM30.4819 66.8671H26.8042C33.1657 65.8435 38.5994 61.7819 41.7801 56.1023C43.4699 59.3053 44.4307 63.0037 44.4638 66.9331L37.5723 66.9001L31.7078 66.8671H30.4819ZM41.8795 55.8382C43.1717 53.4607 44.0663 50.819 44.4638 48.0122L44.3976 63.6971C44.0331 60.8573 43.1717 58.2157 41.8795 55.8382ZM44.497 44.8422C44.4307 48.7387 43.4367 52.404 41.747 55.574C38.5663 49.8284 33.0994 45.7008 26.6717 44.6771L44.497 44.7432V44.8422ZM41.6145 55.8382C38.1024 62.2112 31.7741 66.5699 24.4849 66.8671H23.7229L23.756 52.9654L23.7891 47.0216V44.7102C31.4096 44.7762 38.0361 49.267 41.6145 55.8382ZM28.5602 71.7872C28.5934 71.8532 28.6596 71.9193 28.7259 71.9853C28.7922 72.0514 28.8584 72.1174 28.9247 72.1835H28.5602V71.7872ZM28.8916 71.8202C28.6928 71.6221 28.5934 71.3579 28.5934 71.0938H28.6265H29.5873V72.1504C29.2892 72.1174 29.0572 71.9853 28.8916 71.8202ZM28.5934 70.8296C28.6265 70.6315 28.7922 70.4664 28.991 70.4003V70.8296H28.5934ZM29.1898 70.8296V70.4003H29.5542V70.8296H29.1898ZM10.9337 8.09009C29.4879 8.22218 44.497 24.5014 44.497 44.413L23.6566 44.3469H23.5572H18.5542L10.8343 44.3139L10.9337 8.09009ZM10.8343 44.5781L16.7982 44.6111C13.8825 45.3376 11.5964 47.715 10.8012 50.819L10.8343 44.5781ZM10.8343 52.2059C11.2319 47.9792 14.5452 44.6441 18.5542 44.6111V49.6963V51.0171V52.8993L10.8343 52.8663V52.2059ZM10.8343 53.1305L18.5542 53.1635H20.741H23.491L23.4578 66.8671C16.7982 66.735 11.3644 61.1215 10.9006 54.055L10.8343 53.1305ZM10.7349 66.8341L10.7681 56.2674H10.8012V55.9042C11.8614 61.4517 16.003 65.8104 21.2048 66.8671L10.7349 66.8341ZM23.5904 80.7028L23.6235 74.3298C24.3524 77.4668 26.6717 79.9433 29.6205 80.7028H23.5904ZM31.3765 80.7358C27.1024 80.6368 23.6566 76.9384 23.5904 72.3816L28.2952 72.4146H29.3223H29.5211H29.6536H31.3765V80.7358ZM31.4096 72.1504H30.5813C30.747 72.0514 30.9126 71.9193 31.0452 71.7872C31.1777 71.6551 31.3102 71.49 31.3765 71.2919L31.4096 72.1504ZM30.7138 67.8908C30.4157 67.5605 30.0512 67.3294 29.6867 67.1643H31.4428V69.0135C31.2771 68.5842 31.0452 68.221 30.7138 67.8908ZM31.6416 72.1504L31.6747 67.1313L44.4307 67.1643C44.3313 74.627 38.6325 80.6368 31.6416 80.7028V72.1504ZM44.3645 80.7689L33.8946 80.7358C39.1958 79.7122 43.3705 75.2874 44.3976 69.6739L44.3645 80.7689Z" fill="#644E33"/>
<path d="M46.8166 76.212H5.89794C2.75035 76.212 0.166016 73.6364 0.166016 70.4994V5.7126C0.166016 2.57562 2.71722 0 5.89794 0H46.8166C49.9642 0 52.5485 2.57562 52.5485 5.7126V70.4994C52.5485 73.6364 49.9642 76.212 46.8166 76.212ZM5.89794 1.32083C3.44614 1.32083 1.49132 3.30208 1.49132 5.7126V70.4994C1.49132 72.9099 3.47927 74.8912 5.89794 74.8912H46.8166C49.2353 74.8912 51.2233 72.9099 51.2233 70.4994V5.7126C51.2233 3.30208 49.2353 1.32083 46.8166 1.32083H5.89794Z" fill="url(#paint0_linear)"/>
<path d="M36.3793 65.5793C33.9937 66.3718 32.0721 66.9001 30.6142 67.1643C28.0299 67.6266 25.6443 67.8908 23.4245 67.8908C20.0781 67.8908 17.2618 67.2303 14.9757 65.9425C12.6895 64.6547 11.0992 62.8056 10.2377 60.4611C9.37627 58.1166 9.31 55.3429 10.0721 52.1398C10.7347 49.3331 11.7949 46.9556 13.2859 44.9743C14.7769 43.0261 16.4004 41.4081 18.2227 40.1203C20.0449 38.8655 21.7678 37.9079 23.4576 37.3135C26.0088 36.3889 28.9907 35.9266 32.4034 35.9266C33.9937 35.9266 35.6504 36.1248 37.3401 36.488C39.0299 36.8512 40.9184 37.3135 42.9727 37.9409C42.5751 38.6674 42.2437 39.3938 41.9787 40.0873C41.6805 40.7807 41.2166 42.2336 40.4877 44.413H39.1624L39.6263 41.9364C39.6925 41.5732 39.7588 41.276 39.7919 41.0449C39.8251 40.8137 39.7919 40.5165 39.7257 40.1533C39.4606 39.625 38.9636 39.1627 38.2016 38.7664C36.8763 38.2051 35.7498 37.8418 34.8221 37.6437C33.8943 37.4456 32.7678 37.3795 31.4425 37.3795C28.6925 37.3795 26.1745 37.9739 23.8883 39.1297C21.6022 40.2854 19.6805 41.9694 18.1564 44.1488C16.5992 46.3282 15.5389 48.7057 14.9094 51.2813C14.2468 54.1211 14.2468 56.6637 14.9094 58.9421C15.5721 61.2206 16.798 62.9376 18.5208 64.1594C20.2769 65.3482 22.4967 65.9756 25.1805 65.9756C26.4395 65.9756 27.6986 65.8435 28.9576 65.6123C30.2166 65.3812 31.31 65.018 32.2377 64.5887C32.5028 64.0273 32.801 63.1027 33.0992 61.8149L33.6624 59.4044C33.9606 58.1496 34.06 57.3901 33.9937 57.192C33.9275 56.9609 33.5961 56.8288 33.066 56.6967C32.5359 56.5976 31.2437 56.4986 29.1895 56.4325L29.4877 55.1117L36.2136 55.2768C37.5389 55.2768 38.8974 55.2108 40.2889 55.1117L40.1895 56.1354L38.3341 57.093C37.804 58.6449 37.3733 60.0648 37.0751 61.3526C36.81 62.6405 36.5449 64.0603 36.3793 65.5793Z" fill="url(#paint1_linear)"/>
<path d="M12.5568 44.545C13.2194 43.6535 13.9484 42.828 14.6773 42.1015C14.6441 40.7477 14.6441 39.3608 14.6441 37.9409V25.2279C14.6441 21.4305 14.7104 18.6568 14.8761 16.8736C16.6984 16.3123 18.4213 16.0151 20.0447 16.0151C21.8339 16.0151 23.358 16.3123 24.617 16.9066C25.8761 17.501 26.8038 18.3926 27.4333 19.5483C28.0628 20.704 28.361 22.0249 28.361 23.4448C28.361 24.9307 28.0297 26.2846 27.4002 27.5393C26.7706 28.7611 25.8761 29.6857 24.7496 30.3131C23.6231 30.9405 22.3972 31.2377 21.1381 31.2377C20.2767 31.2377 19.0839 31.0726 17.5929 30.7424L18.1231 32.6245C19.3821 32.8557 20.5417 32.9878 21.602 32.9878C22.8941 32.9878 24.0206 32.8227 25.0478 32.5255C26.5056 32.0962 27.9303 31.3698 29.2887 30.3791C30.6472 29.3555 31.7074 28.1337 32.4032 26.6808C33.1321 25.2279 33.4634 23.742 33.4634 22.289C33.4634 20.638 33.0327 19.1851 32.1713 17.8973C31.3098 16.6095 30.117 15.6849 28.5929 15.0905C27.0688 14.4961 24.9484 14.1989 22.2646 14.1989C21.9002 14.1989 21.5026 14.1989 21.0387 14.232L17.0628 14.364C15.5719 14.3971 14.1803 14.4301 12.855 14.4301C10.9002 14.4301 8.21643 14.364 4.83691 14.265V15.883C6.82487 15.916 8.05077 16.0151 8.48149 16.1472C8.91222 16.2793 9.21041 16.5104 9.4092 16.8076C9.608 17.1048 9.74053 18.0294 9.77366 19.6474C9.83993 21.8267 9.83993 24.0722 9.83993 26.3506V38.0069C9.77366 42.4317 9.74053 44.8092 9.74053 45.1724C9.67426 46.4603 9.57487 47.2858 9.37607 47.616C9.21041 47.8801 8.91222 48.0783 8.48149 48.2104C8.05077 48.3424 6.82487 48.4415 4.83691 48.4745V50.0925C6.858 50.0265 8.48149 49.9935 9.74053 49.9605C10.5026 47.8471 11.3972 46.064 12.5568 44.545Z" fill="url(#paint2_linear)"/>
<path d="M19.6806 48.3754C18.2559 48.3424 17.2288 48.3094 16.5992 48.2103C16.3673 48.7387 16.1685 49.3 15.9697 49.8283C17.03 49.8614 18.2559 49.8944 19.6474 49.9604V48.3754H19.6806Z" fill="url(#paint3_linear)"/>
<path d="M63.4492 58.1166V57.4232C64.8738 57.4562 66.0004 57.4892 66.8287 57.4892C67.3919 57.4892 67.9552 57.4892 68.5847 57.4562L70.2413 57.3901C70.4401 57.3901 70.6058 57.3901 70.7383 57.3901C71.8648 57.3901 72.7594 57.5222 73.3889 57.7534C74.0184 58.0175 74.5485 58.3808 74.913 58.9421C75.2775 59.4704 75.4431 60.0978 75.4431 60.7913C75.4431 61.4187 75.2775 62.0461 74.9793 62.6404C74.6811 63.2678 74.2504 63.7631 73.654 64.1924C73.0907 64.6217 72.4943 64.9189 71.8648 65.117C71.4341 65.2491 70.9702 65.3151 70.407 65.3151C69.9431 65.3151 69.4793 65.2491 68.9492 65.183L68.7172 64.3905C69.3467 64.5226 69.8437 64.5887 70.2082 64.5887C70.7383 64.5887 71.2353 64.4566 71.7323 64.1924C72.1961 63.9283 72.5937 63.532 72.8588 63.0367C73.1238 62.5084 73.2564 61.947 73.2564 61.3196C73.2564 60.7252 73.1238 60.1639 72.8588 59.6686C72.5937 59.1733 72.1961 58.81 71.666 58.5459C71.1359 58.2817 70.5064 58.1496 69.7443 58.1496C69.0817 58.1496 68.3528 58.2817 67.5907 58.5128C67.5245 59.2723 67.4913 60.428 67.4913 62.0461V67.3954C67.4913 68.353 67.4913 69.2776 67.5245 70.2022C67.5576 70.8626 67.5907 71.2589 67.6901 71.391C67.7564 71.523 67.8889 71.6221 68.0877 71.6551C68.2534 71.7212 68.7835 71.7542 69.6118 71.7542V72.4476C68.2865 72.3816 67.3257 72.3486 66.7293 72.3486C66.4973 72.3486 65.3708 72.3816 63.416 72.4476V71.7542C64.2443 71.7542 64.7745 71.6881 64.9401 71.6551C65.1389 71.5891 65.2383 71.523 65.3377 71.391C65.4371 71.2589 65.4702 70.8956 65.5034 70.3673C65.5034 70.2352 65.5365 69.2116 65.5365 67.3624V62.4423C65.5365 61.4847 65.5365 60.5271 65.5034 59.6356C65.4702 58.9751 65.4371 58.5789 65.3377 58.4468C65.2714 58.3147 65.1389 58.2157 64.9401 58.1826C64.8076 58.1496 64.3106 58.1166 63.4492 58.1166Z" fill="url(#paint4_linear)"/>
<path d="M77.5965 58.1166V57.4232C77.8615 57.4232 78.2923 57.4562 78.8555 57.4562L80.9097 57.5222C81.3073 57.5222 81.9368 57.5222 82.7983 57.4892C83.8916 57.4562 84.5543 57.4232 84.72 57.4232C86.0784 57.4232 87.0724 57.5552 87.6688 57.7864C88.2983 58.0175 88.7621 58.4138 89.0935 58.9421C89.4248 59.4704 89.5904 60.0648 89.5904 60.6922C89.5904 61.2866 89.4248 61.881 89.1266 62.4753C88.7953 63.0697 88.3314 63.532 87.735 63.9283C87.1386 64.3245 86.3435 64.6217 85.3826 64.8198C85.5483 65.084 85.979 65.6123 86.6416 66.4709L89.3254 70.0041C90.0874 70.9947 90.5513 71.523 90.6507 71.6551C90.717 71.6881 90.7832 71.7542 90.8495 71.7542C90.9489 71.7872 91.1808 71.8202 91.5453 71.8202V72.5137C91.0151 72.4806 90.5513 72.4476 90.1206 72.4476C89.6898 72.4476 89.1928 72.4806 88.5633 72.5137C88.0995 71.9853 87.3374 70.9617 86.2441 69.4097C85.6477 68.5512 85.1176 67.8577 84.6537 67.2634C83.9248 66.3058 83.1959 65.4472 82.5332 64.6877L82.6326 64.3575C82.9971 64.3905 83.2953 64.3905 83.4609 64.3905C84.7531 64.3905 85.7139 64.0934 86.4097 63.466C87.0724 62.8716 87.4037 62.0461 87.4037 61.0554C87.4037 60.1969 87.1055 59.5035 86.5423 58.9751C85.979 58.4468 85.0844 58.2157 83.9248 58.2157C83.1959 58.2157 82.467 58.3147 81.7712 58.5459C81.738 58.9421 81.7049 59.2723 81.7049 59.6025C81.7049 59.7016 81.6718 60.7252 81.6386 62.6735V67.3624C81.6386 68.32 81.6386 69.2446 81.6718 70.1692C81.6718 70.8296 81.738 71.2259 81.8043 71.3579C81.8706 71.49 82.0031 71.5891 82.2019 71.6221C82.4007 71.6881 82.8977 71.7212 83.726 71.7212V72.4146C82.732 72.3486 81.8043 72.3155 80.9429 72.3155C80.2471 72.3155 79.1206 72.3486 77.4971 72.4146V71.7212C78.3254 71.7212 78.8555 71.6551 79.0212 71.6221C79.22 71.5561 79.3194 71.49 79.4188 71.3579C79.5182 71.2259 79.5513 70.8626 79.5844 70.3343C79.5844 70.2022 79.6176 69.1786 79.6176 67.3294V62.4093C79.6176 61.4517 79.6176 60.4941 79.5844 59.6025C79.5513 58.9421 79.5182 58.5459 79.4188 58.4138C79.3525 58.2817 79.22 58.1826 79.0212 58.1496C78.9549 58.1496 78.4248 58.1166 77.5965 58.1166Z" fill="url(#paint5_linear)"/>
<path d="M93.2686 65.0509C93.2686 63.9282 93.4342 62.9046 93.7655 61.947C94.0969 60.9894 94.6601 60.1639 95.4553 59.4044C96.2505 58.6449 97.1119 58.0835 98.1059 57.6873C99.0999 57.291 100.226 57.1259 101.485 57.1259C102.645 57.1259 103.705 57.2911 104.666 57.6213C105.627 57.9515 106.422 58.3807 107.019 58.9091C107.615 59.4374 108.112 60.0318 108.476 60.6922C108.741 61.1875 108.973 61.7489 109.106 62.3763C109.272 63.0367 109.338 63.7301 109.338 64.4566C109.338 66.8341 108.543 68.8153 106.919 70.4003C105.329 71.9853 103.275 72.7778 100.856 72.7778C99.7294 72.7778 98.7023 72.6127 97.7414 72.2495C96.7806 71.8862 95.9523 71.3579 95.2896 70.6314C94.627 69.905 94.13 69.0465 93.7655 68.0558C93.4342 67.0322 93.2686 66.0416 93.2686 65.0509ZM95.4884 64.1924C95.4884 64.8528 95.5547 65.5463 95.6872 66.2397C95.8198 66.9331 95.9854 67.5275 96.1842 68.0228C96.5155 68.8813 96.9794 69.5748 97.5095 70.1692C98.0728 70.7305 98.6691 71.1598 99.3318 71.424C99.9944 71.6881 100.757 71.8202 101.585 71.8202C102.711 71.8202 103.705 71.556 104.567 70.9947C105.395 70.4333 106.025 69.6738 106.455 68.6502C106.886 67.6596 107.085 66.4708 107.085 65.183C107.085 64.0603 106.952 63.0367 106.654 62.0791C106.455 61.4847 106.223 60.9894 105.925 60.4941C105.627 60.0318 105.263 59.6025 104.832 59.2723C104.401 58.9091 103.871 58.6119 103.175 58.3807C102.513 58.1496 101.784 58.0175 100.988 58.0175C99.8619 58.0175 98.8679 58.2817 98.0065 58.777C97.1451 59.2723 96.5155 59.9988 96.0848 60.9564C95.6872 61.914 95.4884 62.9706 95.4884 64.1924Z" fill="url(#paint6_linear)"/>
<path d="M111.458 65.0509C111.458 63.9282 111.624 62.9046 111.955 61.947C112.286 60.9894 112.85 60.1639 113.645 59.4044C114.44 58.6449 115.301 58.0835 116.295 57.6873C117.289 57.291 118.416 57.1259 119.675 57.1259C120.835 57.1259 121.895 57.2911 122.856 57.6213C123.816 57.9515 124.612 58.3807 125.208 58.9091C125.804 59.4374 126.301 60.0318 126.666 60.6922C126.931 61.1875 127.163 61.7489 127.295 62.3763C127.461 63.0367 127.527 63.7301 127.527 64.4566C127.527 66.8341 126.732 68.8153 125.109 70.4003C123.518 71.9853 121.464 72.7778 119.045 72.7778C117.919 72.7778 116.892 72.6127 115.931 72.2495C114.97 71.8862 114.142 71.3579 113.479 70.6314C112.816 69.905 112.319 69.0465 111.955 68.0558C111.657 67.0322 111.458 66.0416 111.458 65.0509ZM113.678 64.1924C113.678 64.8528 113.744 65.5463 113.877 66.2397C114.009 66.9331 114.175 67.5275 114.374 68.0228C114.705 68.8813 115.169 69.5748 115.699 70.1692C116.262 70.7305 116.859 71.1598 117.554 71.424C118.217 71.6881 118.979 71.8202 119.807 71.8202C120.934 71.8202 121.928 71.556 122.789 70.9947C123.618 70.4333 124.247 69.6738 124.678 68.6502C125.109 67.6596 125.307 66.4708 125.307 65.183C125.307 64.0603 125.175 63.0367 124.877 62.0791C124.678 61.4847 124.446 60.9894 124.148 60.4941C123.85 60.0318 123.485 59.6025 123.054 59.2723C122.624 58.9091 122.094 58.6119 121.398 58.3807C120.735 58.1496 120.006 58.0175 119.211 58.0175C118.085 58.0175 117.091 58.2817 116.229 58.777C115.368 59.2723 114.738 59.9988 114.307 60.9564C113.91 61.914 113.678 62.9706 113.678 64.1924Z" fill="url(#paint7_linear)"/>
<path d="M129.615 58.1166V57.4232C130.709 57.4562 131.603 57.4892 132.365 57.4892C132.895 57.4892 133.856 57.4892 135.215 57.4562C136.573 57.4232 137.534 57.4232 137.998 57.4232C138.528 57.4232 138.992 57.4232 139.422 57.4232C139.853 57.4232 140.251 57.4562 140.582 57.4892C140.416 58.0836 140.284 59.1733 140.251 60.6922H139.588C139.522 59.8337 139.422 59.1733 139.323 58.711C138.959 58.5789 138.495 58.4798 137.965 58.4138C137.435 58.3477 136.805 58.3147 136.076 58.3147C135.347 58.3147 134.618 58.3477 133.856 58.4468C133.823 58.8431 133.79 59.1733 133.757 59.5035C133.757 59.7016 133.724 60.4941 133.691 61.914V64.2585C134.486 64.2915 135.182 64.2915 135.811 64.2915C136.706 64.2915 137.435 64.2585 137.965 64.1594C138.163 64.1264 138.296 64.0603 138.362 63.9943C138.428 63.9283 138.495 63.6311 138.561 63.1027L138.66 62.4423H139.323L139.257 64.8528L139.323 67.4615H138.66L138.594 66.768C138.528 66.0086 138.462 65.5793 138.428 65.5133C138.362 65.4142 138.23 65.3481 138.031 65.2821C137.633 65.183 136.706 65.15 135.281 65.15C134.784 65.15 134.254 65.15 133.724 65.183V67.3294C133.724 68.287 133.724 69.2116 133.757 70.1362C133.757 70.7966 133.823 71.1928 133.889 71.3249C133.956 71.457 134.088 71.5561 134.287 71.5891C134.486 71.6551 134.983 71.6881 135.811 71.6881V72.3816C134.916 72.3155 134.022 72.2825 133.127 72.2825C132.332 72.2825 131.172 72.3155 129.615 72.3816V71.6881C130.444 71.6881 130.974 71.6221 131.139 71.5891C131.338 71.523 131.438 71.457 131.537 71.3249C131.636 71.1928 131.669 70.8296 131.703 70.3013C131.703 70.1692 131.736 69.1455 131.736 67.2964V62.3763C131.736 61.4187 131.736 60.4611 131.703 59.5695C131.669 58.9091 131.636 58.5128 131.537 58.3808C131.471 58.2487 131.338 58.1496 131.139 58.1166C130.974 58.1496 130.477 58.1166 129.615 58.1166Z" fill="url(#paint8_linear)"/>
<path d="M149.395 65.0509C149.395 63.9282 149.56 62.9046 149.892 61.947C150.223 60.9894 150.786 60.1639 151.581 59.4044C152.376 58.6449 153.238 58.0835 154.232 57.6873C155.226 57.291 156.352 57.1259 157.611 57.1259C158.771 57.1259 159.831 57.2911 160.792 57.6213C161.753 57.9515 162.548 58.3807 163.145 58.9091C163.741 59.4374 164.238 60.0318 164.602 60.6922C164.867 61.1875 165.099 61.7489 165.232 62.3763C165.398 63.0367 165.464 63.7301 165.464 64.4566C165.464 66.8341 164.669 68.8153 163.045 70.4003C161.455 71.9853 159.401 72.7778 156.982 72.7778C155.855 72.7778 154.828 72.6127 153.867 72.2495C152.907 71.8862 152.078 71.3579 151.416 70.6314C150.753 69.905 150.256 69.0465 149.892 68.0558C149.56 67.0322 149.395 66.0416 149.395 65.0509ZM151.614 64.1924C151.614 64.8528 151.681 65.5463 151.813 66.2397C151.946 66.9331 152.111 67.5275 152.31 68.0228C152.642 68.8813 153.105 69.5748 153.636 70.1692C154.199 70.7305 154.795 71.1598 155.491 71.424C156.154 71.6881 156.916 71.8202 157.744 71.8202C158.87 71.8202 159.864 71.556 160.726 70.9947C161.554 70.4333 162.184 69.6738 162.614 68.6502C163.045 67.6596 163.244 66.4708 163.244 65.183C163.244 64.0603 163.111 63.0367 162.813 62.0791C162.614 61.4847 162.382 60.9894 162.084 60.4941C161.786 60.0318 161.422 59.6025 160.991 59.2723C160.56 58.9091 160.03 58.6119 159.334 58.3807C158.672 58.1496 157.943 58.0175 157.148 58.0175C156.021 58.0175 155.027 58.2817 154.166 58.777C153.304 59.2723 152.675 59.9988 152.244 60.9564C151.813 61.914 151.614 62.9706 151.614 64.1924Z" fill="url(#paint9_linear)"/>
<path d="M167.552 58.1166V57.4232C168.612 57.4562 169.54 57.4892 170.302 57.4892C170.832 57.4892 171.793 57.4892 173.151 57.4562C174.543 57.4232 175.47 57.4232 175.934 57.4232C176.464 57.4232 176.928 57.4232 177.359 57.4232C177.79 57.4232 178.187 57.4562 178.519 57.4892C178.353 58.0836 178.22 59.1733 178.187 60.6922H177.525C177.458 59.8337 177.359 59.1733 177.26 58.711C176.895 58.5789 176.431 58.4798 175.901 58.4138C175.371 58.3477 174.742 58.3147 174.013 58.3147C173.284 58.3147 172.555 58.3477 171.793 58.4468C171.76 58.8431 171.726 59.1733 171.693 59.5035C171.693 59.7016 171.66 60.4941 171.627 61.914V64.2585C172.422 64.2915 173.118 64.2915 173.748 64.2915C174.642 64.2915 175.371 64.2585 175.901 64.1594C176.1 64.1264 176.232 64.0603 176.299 63.9943C176.365 63.9283 176.431 63.6311 176.498 63.1027L176.597 62.4423H177.26L177.193 64.8528L177.26 67.4615H176.597L176.531 66.768C176.464 66.0086 176.398 65.5793 176.365 65.5133C176.299 65.4142 176.166 65.3481 175.967 65.2821C175.57 65.183 174.642 65.15 173.217 65.15C172.72 65.15 172.19 65.15 171.66 65.183V67.3294C171.66 68.287 171.66 69.2116 171.693 70.1362C171.693 70.7966 171.76 71.1928 171.826 71.3249C171.892 71.457 172.025 71.5561 172.223 71.5891C172.422 71.6551 172.919 71.6881 173.748 71.6881V72.3816C172.853 72.3155 171.958 72.2825 171.064 72.2825C170.269 72.2825 169.109 72.3155 167.552 72.3816V71.6881C168.38 71.6881 168.91 71.6221 169.076 71.5891C169.275 71.523 169.374 71.457 169.473 71.3249C169.573 71.1928 169.606 70.8296 169.639 70.3013C169.639 70.1692 169.672 69.1455 169.672 67.2964V62.3763C169.672 61.4187 169.672 60.4611 169.639 59.5695C169.606 58.9091 169.573 58.5128 169.473 58.3808C169.407 58.2487 169.275 58.1496 169.076 58.1166C168.91 58.1496 168.38 58.1166 167.552 58.1166Z" fill="url(#paint10_linear)"/>
<path d="M201.943 71.6551C200.849 72.0513 199.988 72.3155 199.292 72.4476C198.066 72.6787 196.94 72.8108 195.846 72.8108C194.223 72.8108 192.765 72.4806 191.473 71.8532C190.214 71.2258 189.22 70.3343 188.524 69.1785C187.828 68.0228 187.497 66.669 187.497 65.084C187.497 63.6971 187.762 62.5414 188.259 61.5838C188.756 60.6261 189.386 59.8337 190.115 59.2063C190.877 58.5789 191.605 58.1166 192.334 57.8194C193.461 57.3571 194.886 57.1259 196.575 57.1259C197.371 57.1259 198.199 57.225 199.06 57.3901C199.922 57.5552 200.916 57.7864 202.009 58.1166C201.91 58.4798 201.81 58.843 201.777 59.1732C201.711 59.5034 201.645 60.2299 201.545 61.2866H200.883L200.816 60.0648C200.816 59.8667 200.816 59.7346 200.783 59.6355C200.783 59.5365 200.717 59.3714 200.651 59.2063C200.452 58.9421 200.154 58.7109 199.723 58.5128C198.994 58.2487 198.398 58.0505 197.934 57.9515C197.47 57.8524 196.907 57.8194 196.244 57.8194C194.886 57.8194 193.726 58.1166 192.732 58.6779C191.738 59.2393 191.009 60.0648 190.479 61.1215C189.982 62.1781 189.717 63.3669 189.717 64.6217C189.717 66.0085 190.015 67.2633 190.612 68.386C191.208 69.5087 192.003 70.3343 192.997 70.9286C193.991 71.523 195.151 71.8202 196.476 71.8202C197.105 71.8202 197.702 71.7542 198.298 71.6551C198.895 71.523 199.392 71.3579 199.789 71.1598C199.856 70.8626 199.889 70.4333 199.889 69.8059V68.6172C199.889 67.9898 199.856 67.6266 199.789 67.5275C199.723 67.4284 199.557 67.3294 199.259 67.2964C198.994 67.2303 198.331 67.1973 197.337 67.1643V66.5038L200.651 66.5699C201.28 66.5699 201.943 66.5369 202.639 66.5038L202.705 66.9992L201.91 67.4615C201.81 68.2209 201.777 68.9144 201.777 69.5418C201.777 70.1692 201.843 70.9286 201.943 71.6551Z" fill="url(#paint11_linear)"/>
<path d="M205.024 65.0509C205.024 63.9282 205.19 62.9046 205.521 61.947C205.853 60.9894 206.416 60.1639 207.211 59.4044C208.006 58.6449 208.868 58.0835 209.862 57.6873C210.856 57.291 211.982 57.1259 213.241 57.1259C214.401 57.1259 215.461 57.2911 216.422 57.6213C217.383 57.9515 218.178 58.3807 218.774 58.9091C219.371 59.4374 219.868 60.0318 220.232 60.6922C220.497 61.1875 220.729 61.7489 220.862 62.3763C221.027 63.0367 221.094 63.7301 221.094 64.4566C221.094 66.8341 220.299 68.8153 218.675 70.4003C217.085 71.9853 215.03 72.7778 212.612 72.7778C211.485 72.7778 210.458 72.6127 209.497 72.2495C208.536 71.8862 207.708 71.3579 207.046 70.6314C206.383 69.905 205.886 69.0465 205.521 68.0558C205.19 67.0322 205.024 66.0416 205.024 65.0509ZM207.244 64.1924C207.244 64.8528 207.311 65.5463 207.443 66.2397C207.576 66.9331 207.741 67.5275 207.94 68.0228C208.271 68.8813 208.735 69.5748 209.265 70.1692C209.829 70.7305 210.425 71.1598 211.121 71.424C211.783 71.6881 212.546 71.8202 213.374 71.8202C214.5 71.8202 215.494 71.556 216.356 70.9947C217.184 70.4333 217.814 69.6738 218.244 68.6502C218.675 67.6596 218.874 66.4708 218.874 65.183C218.874 64.0603 218.741 63.0367 218.443 62.0791C218.244 61.4847 218.012 60.9894 217.714 60.4941C217.416 60.0318 217.052 59.6025 216.621 59.2723C216.19 58.9091 215.66 58.6119 214.964 58.3807C214.302 58.1496 213.573 58.0175 212.777 58.0175C211.651 58.0175 210.657 58.2817 209.829 58.777C208.967 59.2723 208.338 59.9988 207.907 60.9564C207.443 61.914 207.244 62.9706 207.244 64.1924Z" fill="url(#paint12_linear)"/>
<path d="M224.043 72.4806V71.9193C224.474 71.7211 224.772 71.556 224.871 71.4239C224.937 71.3579 225.004 71.2919 225.004 71.1928C225.07 70.9947 225.103 70.5654 225.136 69.938C225.169 68.9804 225.169 68.386 225.169 68.2209V62.5083C225.169 61.5507 225.169 60.5931 225.136 59.7016C225.103 59.0411 225.07 58.6449 224.971 58.5128C224.904 58.3807 224.772 58.2817 224.573 58.2486C224.407 58.1826 223.877 58.1496 223.049 58.1496V57.4561C224.772 57.5222 225.832 57.5552 226.263 57.5552C226.727 57.5552 227.72 57.5222 229.311 57.4561V58.1496C228.483 58.1496 227.952 58.2156 227.787 58.2486C227.621 58.3147 227.489 58.3807 227.422 58.5128C227.323 58.6449 227.29 59.0081 227.257 59.5365C227.257 59.6685 227.224 60.6922 227.224 62.5413V69.6738C227.224 70.4003 227.224 71.0277 227.257 71.49C228.052 71.523 228.88 71.556 229.675 71.556C231.663 71.556 233.088 71.4239 233.883 71.1598C233.983 70.9617 234.049 70.6975 234.115 70.4333L234.546 68.6832H235.242C235.076 69.7399 234.943 70.9617 234.778 72.3815C234.48 72.4476 234.248 72.4806 234.082 72.4806C233.717 72.5136 233.154 72.5136 232.392 72.5136L226.097 72.4146C225.434 72.4146 224.772 72.4146 224.043 72.4806Z" fill="url(#paint13_linear)"/>
<path d="M238.057 72.4806V71.9853C238.455 71.7542 238.819 71.5561 239.084 71.3579C239.117 70.8626 239.15 70.2022 239.184 69.3437C239.217 67.8907 239.25 66.8671 239.25 66.3058V61.98C239.25 61.2866 239.217 60.4611 239.184 59.5365C239.15 58.9421 239.117 58.5789 239.051 58.4468C239.018 58.3477 238.919 58.2817 238.819 58.2487C238.587 58.1496 238.09 58.0836 237.361 58.0836V57.4232C238.388 57.4562 239.316 57.4892 240.111 57.4892C240.708 57.4892 241.536 57.4892 242.596 57.4562C243.657 57.4232 244.452 57.4232 245.048 57.4232C246.771 57.4232 248.196 57.6543 249.223 58.0836C250.283 58.5128 251.178 59.2723 251.906 60.296C252.635 61.3196 253 62.6074 253 64.0934C253 65.183 252.834 66.1737 252.47 67.0982C252.138 68.0228 251.641 68.8483 251.045 69.5748C250.449 70.2682 249.819 70.8296 249.123 71.2589C248.428 71.6551 247.732 71.9853 246.97 72.1835C246.208 72.3816 245.181 72.4806 243.888 72.4806C243.458 72.4806 242.861 72.4806 242.132 72.4476C241.172 72.4146 240.542 72.4146 240.244 72.4146C239.879 72.4146 239.117 72.4146 238.057 72.4806ZM241.337 71.3249C242.132 71.457 242.928 71.523 243.789 71.523C244.684 71.523 245.479 71.457 246.141 71.2919C246.837 71.1268 247.4 70.9287 247.897 70.6315C248.394 70.3343 248.858 69.938 249.322 69.3767C249.786 68.8153 250.117 68.1219 250.382 67.2634C250.614 66.4048 250.747 65.5133 250.747 64.5887C250.747 63.2678 250.515 62.1451 250.051 61.1875C249.587 60.2299 248.858 59.5365 247.931 59.0082C246.97 58.5128 245.678 58.2487 244.021 58.2487C243.16 58.2487 242.265 58.3147 241.37 58.4468C241.337 58.777 241.337 59.4044 241.304 60.296L241.271 61.8479V66.0746L241.304 69.3437C241.271 69.905 241.304 70.5324 241.337 71.3249Z" fill="url(#paint14_linear)"/>
<defs>
<linearGradient id="paint0_linear" x1="-4.18266" y1="68.5287" x2="56.6758" y2="7.46435" gradientUnits="userSpaceOnUse">
<stop stop-color="#FAC929"/>
<stop offset="0.1484" stop-color="#FDE79A"/>
<stop offset="0.3297" stop-color="#FAC929"/>
<stop offset="0.7894" stop-color="#FEF8C2"/>
<stop offset="1" stop-color="#FAC929"/>
</linearGradient>
<linearGradient id="paint1_linear" x1="14.1836" y1="65.7155" x2="42.4153" y2="37.3884" gradientUnits="userSpaceOnUse">
<stop stop-color="#FAC929"/>
<stop offset="0.5158" stop-color="#FEF8C2"/>
<stop offset="1" stop-color="#FAC929"/>
</linearGradient>
<linearGradient id="paint2_linear" x1="-2.85404" y1="42.2602" x2="26.9235" y2="12.3819" gradientUnits="userSpaceOnUse">
<stop offset="0.1312" stop-color="#8A8A8A"/>
<stop offset="0.1898" stop-color="#8F8F8F"/>
<stop offset="0.2584" stop-color="#9D9D9D"/>
<stop offset="0.3318" stop-color="#B4B4B4"/>
<stop offset="0.4004" stop-color="#D1D1D1"/>
<stop offset="0.6063" stop-color="#D5D5D5"/>
<stop offset="0.8192" stop-color="#E2E2E2"/>
<stop offset="1" stop-color="#F2F2F2"/>
</linearGradient>
<linearGradient id="paint3_linear" x1="16.6915" y1="50.5519" x2="19.2677" y2="47.967" gradientUnits="userSpaceOnUse">
<stop offset="0.1312" stop-color="#8A8A8A"/>
<stop offset="0.1898" stop-color="#8F8F8F"/>
<stop offset="0.2584" stop-color="#9D9D9D"/>
<stop offset="0.3318" stop-color="#B4B4B4"/>
<stop offset="0.4004" stop-color="#D1D1D1"/>
<stop offset="0.6063" stop-color="#D5D5D5"/>
<stop offset="0.8192" stop-color="#E2E2E2"/>
<stop offset="1" stop-color="#F2F2F2"/>
</linearGradient>
<linearGradient id="paint4_linear" x1="61.2361" y1="70.27" x2="73.765" y2="57.6988" gradientUnits="userSpaceOnUse">
<stop stop-color="#8A8A8A"/>
<stop offset="0.5829" stop-color="#D1D1D1"/>
<stop offset="1" stop-color="#F2F2F2"/>
</linearGradient>
<linearGradient id="paint5_linear" x1="77.3111" y1="72.198" x2="89.8714" y2="59.5951" gradientUnits="userSpaceOnUse">
<stop stop-color="#8A8A8A"/>
<stop offset="0.5829" stop-color="#D1D1D1"/>
<stop offset="1" stop-color="#F2F2F2"/>
</linearGradient>
<linearGradient id="paint6_linear" x1="95.3757" y1="70.7159" x2="107.086" y2="58.9658" gradientUnits="userSpaceOnUse">
<stop stop-color="#8A8A8A"/>
<stop offset="0.5829" stop-color="#D1D1D1"/>
<stop offset="1" stop-color="#F2F2F2"/>
</linearGradient>
<linearGradient id="paint7_linear" x1="113.577" y1="70.7159" x2="125.287" y2="58.9658" gradientUnits="userSpaceOnUse">
<stop stop-color="#8A8A8A"/>
<stop offset="0.5829" stop-color="#D1D1D1"/>
<stop offset="1" stop-color="#F2F2F2"/>
</linearGradient>
<linearGradient id="paint8_linear" x1="127.393" y1="70.2647" x2="140.359" y2="57.2548" gradientUnits="userSpaceOnUse">
<stop stop-color="#8A8A8A"/>
<stop offset="0.5829" stop-color="#D1D1D1"/>
<stop offset="1" stop-color="#F2F2F2"/>
</linearGradient>
<linearGradient id="paint9_linear" x1="151.503" y1="70.7158" x2="163.213" y2="58.9658" gradientUnits="userSpaceOnUse">
<stop stop-color="#8A8A8A"/>
<stop offset="0.5829" stop-color="#D1D1D1"/>
<stop offset="1" stop-color="#F2F2F2"/>
</linearGradient>
<linearGradient id="paint10_linear" x1="165.319" y1="70.2646" x2="178.285" y2="57.2547" gradientUnits="userSpaceOnUse">
<stop stop-color="#8A8A8A"/>
<stop offset="0.5829" stop-color="#D1D1D1"/>
<stop offset="1" stop-color="#F2F2F2"/>
</linearGradient>
<linearGradient id="paint11_linear" x1="190.245" y1="71.1512" x2="202.615" y2="58.7401" gradientUnits="userSpaceOnUse">
<stop stop-color="#8A8A8A"/>
<stop offset="0.5829" stop-color="#D1D1D1"/>
<stop offset="1" stop-color="#F2F2F2"/>
</linearGradient>
<linearGradient id="paint12_linear" x1="207.132" y1="70.716" x2="218.842" y2="58.9657" gradientUnits="userSpaceOnUse">
<stop stop-color="#8A8A8A"/>
<stop offset="0.5829" stop-color="#D1D1D1"/>
<stop offset="1" stop-color="#F2F2F2"/>
</linearGradient>
<linearGradient id="paint13_linear" x1="222.696" y1="71.1281" x2="232.865" y2="60.9248" gradientUnits="userSpaceOnUse">
<stop stop-color="#8A8A8A"/>
<stop offset="0.5829" stop-color="#D1D1D1"/>
<stop offset="1" stop-color="#F2F2F2"/>
</linearGradient>
<linearGradient id="paint14_linear" x1="236.647" y1="71.0883" x2="249.736" y2="57.9548" gradientUnits="userSpaceOnUse">
<stop stop-color="#8A8A8A"/>
<stop offset="0.5829" stop-color="#D1D1D1"/>
<stop offset="1" stop-color="#F2F2F2"/>
</linearGradient>
</defs>
</svg>
