<svg width="102" height="102" viewBox="0 0 102 102" fill="none" xmlns="http://www.w3.org/2000/svg">
<circle cx="51" cy="51" r="51" fill="#C4C4C4"/>
<circle cx="51" cy="51" r="51" fill="url(#paint0_linear)"/>
<path d="M60.4599 49.7113C59.8242 50.5117 59.1101 51.2507 58.2899 51.9176C62.9716 54.6031 66.1323 59.652 66.1323 65.4252C66.1323 68.5447 59.2973 70.9884 50.572 70.9884C41.8466 70.9884 35.0117 68.5447 35.0117 65.4252C35.0117 59.652 38.1723 54.6031 42.854 51.9176C42.0339 51.2507 41.3198 50.5119 40.6841 49.7113C35.4705 53.0037 32 58.8164 32 65.4252C32 67.4272 33.0962 70.2172 38.3188 72.1401C41.5765 73.3396 45.9281 74 50.5721 74C55.2161 74 59.5677 73.3396 62.8254 72.1401C68.0478 70.2172 69.1441 67.4272 69.1441 65.4252C69.1439 58.8164 65.6735 53.0037 60.4599 49.7113Z" fill="black"/>
<path d="M50.5711 51.6958C56.4242 51.6958 60.9313 46.0381 60.9313 39.3479C60.9313 32.6547 56.4219 27 50.5711 27C44.7181 27 40.2109 32.6577 40.2109 39.3478C40.2109 46.0411 44.7204 51.6958 50.5711 51.6958ZM50.5711 30.0117C54.6231 30.0117 57.9197 34.1998 57.9197 39.3478C57.9197 44.4959 54.6231 48.684 50.5711 48.684C46.5192 48.684 43.2226 44.4959 43.2226 39.3478C43.2226 34.1998 46.5192 30.0117 50.5711 30.0117Z" fill="black"/>
<defs>
<linearGradient id="paint0_linear" x1="14.1593" y1="95.0587" x2="104.172" y2="8.70107" gradientUnits="userSpaceOnUse">
<stop stop-color="#FAC929"/>
<stop offset="0.5158" stop-color="#FEF8C2"/>
<stop offset="1" stop-color="#FAC929"/>
</linearGradient>
</defs>
</svg>
