<svg width="1440" height="868" viewBox="0 0 1440 868" fill="none" xmlns="http://www.w3.org/2000/svg">
<mask id="mask0" mask-type="alpha" maskUnits="userSpaceOnUse" x="0" y="0" width="1440" height="868">
<rect width="1440" height="868" fill="black"/>
</mask>
<g mask="url(#mask0)">
<g opacity="0.15">
<mask id="path-2-inside-1" fill="white">
<path d="M1741.23 329.597H1097.68H1741.23Z"/>
</mask>
<path d="M1741.23 328.597H1097.68V330.597H1741.23V328.597ZM1097.68 330.597H1741.23V328.597H1097.68V330.597Z" fill="white" mask="url(#path-2-inside-1)"/>
<mask id="path-4-inside-2" fill="white">
<path d="M1097.53 440.091H475H1097.53Z"/>
</mask>
<path d="M1097.53 440.091H475H1097.53Z" fill="white"/>
<path d="M1097.53 439.091H475V441.091H1097.53V439.091ZM475 441.091H1097.53V439.091H475V441.091Z" fill="white" mask="url(#path-4-inside-2)"/>
<path d="M1265.24 640.207C1257.95 640.207 1251.09 637.141 1245.98 631.595C1242.62 628.092 1240.28 623.713 1239.12 619.042H1270.94V639.915C1269.19 640.207 1267.58 640.207 1265.83 640.207C1265.54 640.207 1265.39 640.207 1265.24 640.207ZM1237.95 610.868C1237.95 603.132 1243.93 596.71 1251.23 596.71H1307.87C1307.43 608.241 1303.05 618.896 1295.31 627.07C1288.89 633.784 1281.01 638.163 1272.25 639.623V597.002H1272.1H1271.96V617.728H1239.85C1238.24 615.539 1237.95 613.203 1237.95 610.868ZM1236.78 519.203C1255.76 519.349 1273.56 527.231 1286.99 541.536C1300.28 555.548 1307.57 574.085 1307.87 593.936H1252.55H1249.33C1245.83 593.936 1242.47 595.104 1239.99 597.585C1238.83 598.753 1237.66 600.213 1236.93 602.11V519.203H1236.78ZM1119.28 -12.2484C1119.28 -11.2267 1120.01 -10.4969 1121.03 -10.4969C1395.15 -9.62111 1617.45 227.861 1616.43 518.619C1615.85 697.57 1478.35 842.657 1309.76 842.657C1309.47 842.657 1309.03 842.657 1308.74 842.657C1204.52 842.22 1120.01 752.014 1120.45 641.374C1120.74 574.085 1172.12 519.641 1235.32 519.203V605.321C1234.74 607.073 1234.45 608.825 1234.45 610.868C1234.45 613.203 1235.03 616.852 1235.47 619.188C1236.78 624.734 1239.55 629.843 1243.35 634.076C1249.19 640.353 1256.92 643.71 1265.24 643.71C1277.51 643.71 1289.18 638.747 1297.79 629.551C1306.55 620.356 1311.22 608.241 1311.37 595.25C1311.51 574.085 1303.63 554.234 1289.47 539.2C1275.32 524.166 1256.34 515.846 1236.34 515.7H1235.91C1170.51 515.7 1117.09 572.042 1116.8 641.374C1116.36 753.912 1202.48 845.723 1308.6 846.161H1309.62C1480.1 846.161 1619.2 699.468 1619.79 518.619C1620.96 225.963 1397.2 -12.9783 1121.03 -14C1119.87 -14 1119.28 -13.2702 1119.28 -12.2484Z" fill="white"/>
<mask id="path-7-inside-3" fill="white">
<path d="M1344.65 3.66154V959.72V3.66154Z"/>
</mask>
<path d="M1344.65 3.66154V959.72V3.66154Z" fill="white"/>
<path d="M1343.65 3.66154V959.72H1345.65V3.66154H1343.65ZM1345.65 959.72V3.66154H1343.65V959.72H1345.65Z" fill="white" mask="url(#path-7-inside-3)"/>
<path d="M929.383 291.209C926.026 291.209 922.815 289.749 920.479 287.268C918.874 285.662 917.852 283.619 917.268 281.429H931.864V291.063C931.134 291.209 930.259 291.209 929.529 291.209H929.383ZM916.684 277.488C916.684 273.839 919.457 270.92 922.815 270.92H949.088C948.942 276.321 946.898 281.283 943.249 285.078C940.33 288.144 936.535 290.187 932.594 290.917V271.066H932.448H932.302V280.699H917.414C916.83 279.678 916.684 278.51 916.684 277.488ZM916.1 234.721C924.858 234.867 933.178 238.516 939.454 245.084C945.585 251.653 948.942 260.265 949.088 269.46H923.398C923.252 269.314 923.106 269.168 922.815 269.168C922.231 269.168 921.501 269.314 920.917 269.46H920.333V269.606C918.582 270.19 916.976 271.504 916.1 273.255V234.721V234.721ZM861.51 -13.1242C861.51 -12.6863 861.802 -12.2484 862.386 -12.2484C989.666 -11.9565 1092.86 98.8295 1092.42 234.429C1092.13 317.92 1028.35 385.647 950.11 385.647C949.964 385.647 949.818 385.647 949.672 385.647C901.212 385.501 862.094 343.318 862.24 291.793C862.386 260.411 886.178 235.013 915.662 234.867V275.007C915.37 275.737 915.224 276.613 915.224 277.634C915.224 278.656 915.37 279.824 915.516 280.845V281.575H915.808C916.392 284.203 917.706 286.538 919.457 288.436C922.231 291.355 925.734 292.96 929.675 292.96C935.367 292.96 940.768 290.625 944.855 286.392C948.942 282.159 951.131 276.467 951.131 270.336C951.131 260.411 947.628 251.215 941.06 244.209C934.492 237.202 925.734 233.261 916.392 233.261H916.246C885.886 233.261 861.072 259.535 860.926 291.939C860.78 344.485 900.628 387.253 949.964 387.398H950.402C1029.51 387.398 1094.18 318.942 1094.47 234.575C1094.47 234.429 1094.47 234.137 1094.47 233.991V233.261C1093.74 97.2239 990.104 -13.5621 862.386 -14C861.802 -14 861.51 -13.7081 861.51 -13.1242Z" fill="white"/>
<path d="M1404.64 259.681H1413.98C1414.13 260.557 1414.13 261.286 1414.13 262.162C1414.13 265.373 1412.81 268.439 1410.33 270.774C1408.73 272.234 1406.83 273.255 1404.78 273.839V259.681H1404.64ZM1394.71 268.439V243.187C1399.82 243.333 1404.64 245.376 1408.29 248.734C1411.35 251.507 1413.25 255.156 1413.83 258.951H1394.71V259.097V259.243H1404.06V273.547C1403.03 273.693 1402.01 273.839 1400.99 273.839C1397.49 274.423 1394.71 271.65 1394.71 268.439ZM1369.9 252.529C1376.18 246.69 1384.5 243.333 1393.4 243.187V267.855C1393.25 268.001 1393.11 268.147 1393.11 268.439C1393.11 269.022 1393.25 269.606 1393.4 270.19V270.774H1393.55C1394.13 272.526 1395.44 273.985 1397.05 274.861H1359.97C1359.97 266.395 1363.48 258.513 1369.9 252.529ZM1358.37 104.084C1227.73 104.23 1121.47 205.237 1121.03 328.138C1121.03 328.575 1121.32 328.867 1121.76 328.867C1122.2 328.867 1122.49 328.575 1122.49 328.138C1122.93 205.82 1229.34 105.252 1359.54 105.69C1439.67 105.982 1504.77 167.286 1504.77 242.457C1504.77 242.603 1504.77 242.749 1504.77 242.895C1504.62 289.457 1464.19 327.116 1414.56 326.824C1384.5 326.678 1359.97 303.762 1359.83 275.591H1398.36C1399.09 275.883 1399.97 276.029 1400.84 276.029C1401.87 276.029 1402.89 275.883 1403.91 275.737H1404.49V275.591C1406.97 275.007 1409.31 273.839 1411.21 272.088C1413.98 269.46 1415.59 266.103 1415.59 262.308C1415.59 256.762 1413.4 251.653 1409.31 247.712C1405.22 243.771 1399.82 241.727 1393.98 241.727C1384.5 241.727 1375.59 245.084 1368.88 251.507C1362.16 257.783 1358.37 266.249 1358.37 275.153V275.299C1358.37 304.491 1383.62 328.283 1414.71 328.429C1465.07 328.575 1506.23 290.187 1506.38 242.895V242.457C1506.38 166.41 1440.69 104.376 1359.68 104.084C1359.54 104.084 1359.24 104.084 1359.1 104.084H1358.37V104.084Z" fill="white"/>
</g>
</g>
</svg>
