<svg width="84" height="84" viewBox="0 0 84 84" fill="none" xmlns="http://www.w3.org/2000/svg">
<circle cx="42" cy="42" r="42" fill="black"/>
<path d="M42.1726 68.2549C41.5347 66.4417 41.1094 65.4818 40.5778 63.5619C38.4514 63.5619 37.3882 63.4553 35.2617 63.3486C37.0692 62.3887 37.9198 61.8554 39.6209 60.6821C39.0893 58.7623 38.7703 57.909 38.2387 55.9891C39.7272 57.1624 40.5778 57.8023 42.1726 58.9756C43.7675 57.8023 44.618 57.269 46.1065 55.9891C45.5749 57.909 45.3623 58.7623 44.7243 60.6821C46.4255 61.7487 47.2761 62.282 49.0835 63.3486C46.9571 63.5619 45.8939 63.5619 43.7675 63.5619C43.2358 65.4818 42.9169 66.4417 42.1726 68.2549Z" fill="#B99B55"/>
<path d="M42.1726 68.2549C41.5347 66.4417 41.1094 65.4818 40.5778 63.5619C38.4514 63.5619 37.3882 63.4553 35.2617 63.3486C37.0692 62.3887 37.9198 61.8554 39.6209 60.6821C39.0893 58.7623 38.7703 57.909 38.2387 55.9891C39.7272 57.1624 40.5778 57.8023 42.1726 58.9756C43.7675 57.8023 44.618 57.269 46.1065 55.9891C45.5749 57.909 45.3623 58.7623 44.7243 60.6821C46.4255 61.7487 47.2761 62.282 49.0835 63.3486C46.9571 63.5619 45.8939 63.5619 43.7675 63.5619C43.2358 65.4818 42.9169 66.4417 42.1726 68.2549Z" fill="url(#paint0_linear)"/>
<path d="M58.121 61.7486C57.4831 60.5753 57.1641 60.042 56.5262 58.9755C55.144 59.1888 54.5061 59.2954 53.0176 59.5088C54.0808 58.6555 54.5061 58.2288 55.5693 57.2689C54.9314 56.0956 54.7187 55.5624 54.0808 54.3891C55.2503 55.0291 55.7819 55.2424 57.0578 55.8823C58.0147 54.9224 58.44 54.4958 59.3969 53.5358C59.2905 54.8157 59.1842 55.4557 58.9716 56.7356C60.2474 57.2689 60.779 57.4822 62.0549 58.0155C60.6727 58.3355 60.0348 58.4422 58.6526 58.7621C58.44 59.8287 58.3336 60.4687 58.121 61.7486Z" fill="#B99B55"/>
<path d="M58.121 61.7486C57.4831 60.5753 57.1641 60.042 56.5262 58.9755C55.144 59.1888 54.5061 59.2954 53.0176 59.5088C54.0808 58.6555 54.5061 58.2288 55.5693 57.2689C54.9314 56.0956 54.7187 55.5624 54.0808 54.3891C55.2503 55.0291 55.7819 55.2424 57.0578 55.8823C58.0147 54.9224 58.44 54.4958 59.3969 53.5358C59.2905 54.8157 59.1842 55.4557 58.9716 56.7356C60.2474 57.2689 60.779 57.4822 62.0549 58.0155C60.6727 58.3355 60.0348 58.4422 58.6526 58.7621C58.44 59.8287 58.3336 60.4687 58.121 61.7486Z" fill="url(#paint1_linear)"/>
<path d="M26.3304 61.7486C26.1177 60.4687 26.0114 59.8287 25.7988 58.5488C24.4166 58.3355 23.7787 58.1222 22.3965 57.8022C23.6723 57.2689 24.3103 57.0556 25.4798 56.5223C25.2672 55.2424 25.1608 54.6024 25.0545 53.3225C25.9051 54.2825 26.4367 54.7091 27.3936 55.669C28.5631 55.1357 29.2011 54.8158 30.3706 54.1758C29.839 55.3491 29.52 55.8824 28.8821 57.0556C29.839 58.0155 30.3706 58.4422 31.4338 59.2954C30.0516 59.0821 29.3074 59.0821 28.0315 58.7622C27.2873 60.1487 26.9683 60.682 26.3304 61.7486Z" fill="#B99B55"/>
<path d="M26.3304 61.7486C26.1177 60.4687 26.0114 59.8287 25.7988 58.5488C24.4166 58.3355 23.7787 58.1222 22.3965 57.8022C23.6723 57.2689 24.3103 57.0556 25.4798 56.5223C25.2672 55.2424 25.1608 54.6024 25.0545 53.3225C25.9051 54.2825 26.4367 54.7091 27.3936 55.669C28.5631 55.1357 29.2011 54.8158 30.3706 54.1758C29.839 55.3491 29.52 55.8824 28.8821 57.0556C29.839 58.0155 30.3706 58.4422 31.4338 59.2954C30.0516 59.0821 29.3074 59.0821 28.0315 58.7622C27.2873 60.1487 26.9683 60.682 26.3304 61.7486Z" fill="url(#paint2_linear)"/>
<path d="M51.3819 30.905V15L41.9673 29.0873L32.6181 15V30.905L20 21.4269L33.0758 46.2258H41.9673H50.9242L64 21.4269L51.3819 30.905Z" fill="#B99B55"/>
<path d="M51.3819 30.905V15L41.9673 29.0873L32.6181 15V30.905L20 21.4269L33.0758 46.2258H41.9673H50.9242L64 21.4269L51.3819 30.905Z" fill="url(#paint3_linear)"/>
<defs>
<linearGradient id="paint0_linear" x1="37.1804" y1="67.4202" x2="47.9812" y2="55.7435" gradientUnits="userSpaceOnUse">
<stop stop-color="#FAC929"/>
<stop offset="0.5158" stop-color="#FEF8C2"/>
<stop offset="1" stop-color="#FAC929"/>
</linearGradient>
<linearGradient id="paint1_linear" x1="54.2721" y1="61.1897" x2="61.5153" y2="53.543" gradientUnits="userSpaceOnUse">
<stop stop-color="#FAC929"/>
<stop offset="0.5158" stop-color="#FEF8C2"/>
<stop offset="1" stop-color="#FAC929"/>
</linearGradient>
<linearGradient id="paint2_linear" x1="23.651" y1="61.1752" x2="31.0902" y2="53.5203" gradientUnits="userSpaceOnUse">
<stop stop-color="#FAC929"/>
<stop offset="0.5158" stop-color="#FEF8C2"/>
<stop offset="1" stop-color="#FAC929"/>
</linearGradient>
<linearGradient id="paint3_linear" x1="26.1079" y1="44.1008" x2="52.48" y2="8.44914" gradientUnits="userSpaceOnUse">
<stop stop-color="#FAC929"/>
<stop offset="0.5158" stop-color="#FEF8C2"/>
<stop offset="1" stop-color="#FAC929"/>
</linearGradient>
</defs>
</svg>
