<svg width="84" height="84" viewBox="0 0 84 84" fill="none" xmlns="http://www.w3.org/2000/svg">
<circle cx="42" cy="42" r="42" fill="black"/>
<path d="M42.4719 28.2582C43.2962 28.2582 43.9644 27.59 43.9644 26.7657V21.4924C43.9644 20.6682 43.2962 20 42.4719 20C41.6477 20 40.9795 20.6682 40.9795 21.4924V26.7657C40.9795 27.5901 41.6477 28.2582 42.4719 28.2582Z" fill="#B99B55"/>
<path d="M42.4719 28.2582C43.2962 28.2582 43.9644 27.59 43.9644 26.7657V21.4924C43.9644 20.6682 43.2962 20 42.4719 20C41.6477 20 40.9795 20.6682 40.9795 21.4924V26.7657C40.9795 27.5901 41.6477 28.2582 42.4719 28.2582Z" fill="url(#paint0_linear)"/>
<path d="M34.2402 30.7935C34.8229 31.3764 35.7679 31.3765 36.3508 30.7935C36.9336 30.2107 36.9336 29.2657 36.3508 28.6829L32.622 24.9541C32.0392 24.3712 31.0942 24.3712 30.5114 24.9541C29.9285 25.5369 29.9285 26.4818 30.5114 27.0647L34.2402 30.7935Z" fill="#B99B55"/>
<path d="M34.2402 30.7935C34.8229 31.3764 35.7679 31.3765 36.3508 30.7935C36.9336 30.2107 36.9336 29.2657 36.3508 28.6829L32.622 24.9541C32.0392 24.3712 31.0942 24.3712 30.5114 24.9541C29.9285 25.5369 29.9285 26.4818 30.5114 27.0647L34.2402 30.7935Z" fill="url(#paint1_linear)"/>
<path d="M49.6484 31.2306C50.0304 31.2306 50.4124 31.085 50.7037 30.7934L54.4325 27.0646C55.0154 26.4818 55.0154 25.5369 54.4325 24.954C53.8498 24.3712 52.9048 24.3712 52.3219 24.954L48.5931 28.6828C47.6502 29.6258 48.3308 31.2306 49.6484 31.2306Z" fill="#B99B55"/>
<path d="M49.6484 31.2306C50.0304 31.2306 50.4124 31.085 50.7037 30.7934L54.4325 27.0646C55.0154 26.4818 55.0154 25.5369 54.4325 24.954C53.8498 24.3712 52.9048 24.3712 52.3219 24.954L48.5931 28.6828C47.6502 29.6258 48.3308 31.2306 49.6484 31.2306Z" fill="url(#paint2_linear)"/>
<path d="M67.875 61.6417L63.8951 48.9062C63.7004 48.2832 63.1233 47.8589 62.4706 47.8589H55.5087L51.8561 36.1707C51.6614 35.5476 51.0843 35.1234 50.4316 35.1234H34.5122C33.8594 35.1234 33.2824 35.5476 33.0877 36.1707L29.4351 47.8589H22.4732C21.8204 47.8589 21.2434 48.2832 21.0487 48.9062L17.0688 61.6417C16.7691 62.6006 17.4856 63.5793 18.4933 63.5793H66.4505C67.455 63.5793 68.1754 62.6036 67.875 61.6417ZM35.6094 38.1083H49.3343L52.3814 47.8589C50.0212 47.8589 34.9227 47.8589 32.5624 47.8589L35.6094 38.1083ZM42.4719 57.0833L40.5221 50.8439H44.4217L42.4719 57.0833ZM20.5233 60.5944L23.5704 50.8438H37.3948L40.4419 60.5944H20.5233ZM44.5019 60.5944L47.549 50.8438H61.3733L64.4204 60.5944H44.5019Z" fill="#B99B55"/>
<path d="M67.875 61.6417L63.8951 48.9062C63.7004 48.2832 63.1233 47.8589 62.4706 47.8589H55.5087L51.8561 36.1707C51.6614 35.5476 51.0843 35.1234 50.4316 35.1234H34.5122C33.8594 35.1234 33.2824 35.5476 33.0877 36.1707L29.4351 47.8589H22.4732C21.8204 47.8589 21.2434 48.2832 21.0487 48.9062L17.0688 61.6417C16.7691 62.6006 17.4856 63.5793 18.4933 63.5793H66.4505C67.455 63.5793 68.1754 62.6036 67.875 61.6417ZM35.6094 38.1083H49.3343L52.3814 47.8589C50.0212 47.8589 34.9227 47.8589 32.5624 47.8589L35.6094 38.1083ZM42.4719 57.0833L40.5221 50.8439H44.4217L42.4719 57.0833ZM20.5233 60.5944L23.5704 50.8438H37.3948L40.4419 60.5944H20.5233ZM44.5019 60.5944L47.549 50.8438H61.3733L64.4204 60.5944H44.5019Z" fill="url(#paint3_linear)"/>
<defs>
<linearGradient id="paint0_linear" x1="41.3938" y1="27.6962" x2="45.9095" y2="26.1303" gradientUnits="userSpaceOnUse">
<stop stop-color="#FAC929"/>
<stop offset="0.5158" stop-color="#FEF8C2"/>
<stop offset="1" stop-color="#FAC929"/>
</linearGradient>
<linearGradient id="paint1_linear" x1="31.0062" y1="30.7738" x2="36.9309" y2="25.0897" gradientUnits="userSpaceOnUse">
<stop stop-color="#FAC929"/>
<stop offset="0.5158" stop-color="#FEF8C2"/>
<stop offset="1" stop-color="#FAC929"/>
</linearGradient>
<linearGradient id="paint2_linear" x1="49.0865" y1="30.7738" x2="55.0113" y2="25.0882" gradientUnits="userSpaceOnUse">
<stop stop-color="#FAC929"/>
<stop offset="0.5158" stop-color="#FEF8C2"/>
<stop offset="1" stop-color="#FAC929"/>
</linearGradient>
<linearGradient id="paint3_linear" x1="24.0719" y1="61.6428" x2="45.9289" y2="24.1017" gradientUnits="userSpaceOnUse">
<stop stop-color="#FAC929"/>
<stop offset="0.5158" stop-color="#FEF8C2"/>
<stop offset="1" stop-color="#FAC929"/>
</linearGradient>
</defs>
</svg>
