<svg width="84" height="84" viewBox="0 0 84 84" fill="none" xmlns="http://www.w3.org/2000/svg">
<circle cx="42" cy="42" r="42" fill="black"/>
<path d="M54.5424 66.3805C52.1568 67.173 50.2351 67.7013 48.7773 67.9654C46.193 68.4277 43.8074 68.6919 41.5875 68.6919C38.2412 68.6919 35.4249 68.0315 33.1388 66.7437C30.8526 65.4559 29.2622 63.6067 28.4008 61.2622C27.5394 58.9178 27.4731 56.144 28.2351 52.941C28.8978 50.1342 29.958 47.7567 31.449 45.7755C32.94 43.8273 34.5635 42.2092 36.3857 40.9214C38.208 39.6666 39.9309 38.709 41.6207 38.1147C44.1719 37.1901 47.1538 36.7278 50.5665 36.7278C52.1568 36.7278 53.8134 36.9259 55.5032 37.2891C57.193 37.6524 59.0815 38.1147 61.1357 38.7421C60.7381 39.4685 60.4068 40.195 60.1418 40.8884C59.8436 41.5818 59.3797 43.0348 58.6508 45.2141H57.3255L57.7894 42.7376C57.8556 42.3743 57.9219 42.0772 57.955 41.846C57.9881 41.6149 57.955 41.3177 57.8888 40.9544C57.6237 40.4261 57.1267 39.9638 56.3647 39.5676C55.0394 39.0062 53.9128 38.643 52.9851 38.4449C52.0574 38.2467 50.9309 38.1807 49.6056 38.1807C46.8556 38.1807 44.3375 38.7751 42.0514 39.9308C39.7653 41.0865 37.8436 42.7706 36.3195 44.95C34.7622 47.1293 33.702 49.5068 33.0725 52.0824C32.4098 54.9222 32.4098 57.4648 33.0725 59.7433C33.7351 62.0217 34.961 63.7388 36.6839 64.9606C38.44 66.1493 40.6598 66.7767 43.3436 66.7767C44.6026 66.7767 45.8616 66.6446 47.1207 66.4135C48.3797 66.1823 49.4731 65.8191 50.4008 65.3898C50.6659 64.8285 50.9641 63.9039 51.2622 62.6161L51.8255 60.2056C52.1237 58.9508 52.2231 58.1913 52.1568 57.9932C52.0906 57.762 51.7592 57.6299 51.2291 57.4979C50.699 57.3988 49.4068 57.2997 47.3526 57.2337L47.6508 55.9129L54.3767 56.078C55.702 56.078 57.0604 56.0119 58.452 55.9129L58.3526 56.9365L56.4972 57.8941C55.9671 59.4461 55.5363 60.866 55.2381 62.1538C54.9731 63.4416 54.708 64.8615 54.5424 66.3805Z" fill="url(#paint0_linear)"/>
<path d="M30.7199 45.3461C31.3825 44.4545 32.1114 43.629 32.8404 42.9026C32.8072 41.5487 32.8072 40.1618 32.8072 38.7419V26.0289C32.8072 22.2316 32.8735 19.4578 33.0392 17.6747C34.8614 17.1133 36.5843 16.8161 38.2078 16.8161C39.997 16.8161 41.5211 17.1133 42.7801 17.7077C44.0392 18.3021 44.9669 19.1936 45.5964 20.3494C46.2259 21.5051 46.5241 22.8259 46.5241 24.2458C46.5241 25.7318 46.1928 27.0856 45.5633 28.3404C44.9337 29.5622 44.0392 30.4868 42.9126 31.1141C41.7861 31.7415 40.5602 32.0387 39.3012 32.0387C38.4398 32.0387 37.247 31.8736 35.756 31.5434L36.2861 33.4256C37.5452 33.6567 38.7048 33.7888 39.7651 33.7888C41.0572 33.7888 42.1837 33.6237 43.2108 33.3265C44.6687 32.8973 46.0934 32.1708 47.4518 31.1802C48.8102 30.1565 49.8705 28.9348 50.5663 27.4819C51.2952 26.0289 51.6265 24.543 51.6265 23.0901C51.6265 21.4391 51.1958 19.9861 50.3343 18.6983C49.4729 17.4105 48.2801 16.4859 46.756 15.8916C45.2319 15.2972 43.1114 15 40.4277 15C40.0633 15 39.6657 15 39.2018 15.033L35.2259 15.1651C33.7349 15.1981 32.3434 15.2311 31.0181 15.2311C29.0633 15.2311 26.3795 15.1651 23 15.066V16.6841C24.988 16.7171 26.2139 16.8161 26.6446 16.9482C27.0753 17.0803 27.3735 17.3115 27.5723 17.6086C27.7711 17.9058 27.9036 18.8304 27.9367 20.4484C28.003 22.6278 28.003 24.8732 28.003 27.1517V38.808C27.9367 43.2328 27.9036 45.6103 27.9036 45.9735C27.8373 47.2613 27.738 48.0868 27.5392 48.417C27.3735 48.6812 27.0753 48.8793 26.6446 49.0114C26.2139 49.1435 24.988 49.2426 23 49.2756V50.8936C25.0211 50.8276 26.6446 50.7945 27.9036 50.7615C28.6657 48.6482 29.5602 46.8651 30.7199 45.3461Z" fill="url(#paint1_linear)"/>
<path d="M37.8437 49.1765C36.419 49.1435 35.3918 49.1104 34.7623 49.0114C34.5304 49.5397 34.3316 50.1011 34.1328 50.6294C35.1931 50.6624 36.419 50.6954 37.8105 50.7615V49.1765H37.8437Z" fill="url(#paint2_linear)"/>
<defs>
<linearGradient id="paint0_linear" x1="32.3467" y1="66.5167" x2="60.5783" y2="38.1895" gradientUnits="userSpaceOnUse">
<stop stop-color="#FAC929"/>
<stop offset="0.5158" stop-color="#FEF8C2"/>
<stop offset="1" stop-color="#FAC929"/>
</linearGradient>
<linearGradient id="paint1_linear" x1="15.309" y1="43.0613" x2="45.0866" y2="13.183" gradientUnits="userSpaceOnUse">
<stop offset="0.1312" stop-color="#8A8A8A"/>
<stop offset="0.1898" stop-color="#8F8F8F"/>
<stop offset="0.2584" stop-color="#9D9D9D"/>
<stop offset="0.3318" stop-color="#B4B4B4"/>
<stop offset="0.4004" stop-color="#D1D1D1"/>
<stop offset="0.6063" stop-color="#D5D5D5"/>
<stop offset="0.8192" stop-color="#E2E2E2"/>
<stop offset="1" stop-color="#F2F2F2"/>
</linearGradient>
<linearGradient id="paint2_linear" x1="34.8546" y1="51.353" x2="37.4308" y2="48.7681" gradientUnits="userSpaceOnUse">
<stop offset="0.1312" stop-color="#8A8A8A"/>
<stop offset="0.1898" stop-color="#8F8F8F"/>
<stop offset="0.2584" stop-color="#9D9D9D"/>
<stop offset="0.3318" stop-color="#B4B4B4"/>
<stop offset="0.4004" stop-color="#D1D1D1"/>
<stop offset="0.6063" stop-color="#D5D5D5"/>
<stop offset="0.8192" stop-color="#E2E2E2"/>
<stop offset="1" stop-color="#F2F2F2"/>
</linearGradient>
</defs>
</svg>
