<svg width="84" height="84" viewBox="0 0 84 84" fill="none" xmlns="http://www.w3.org/2000/svg">
<circle cx="42" cy="42" r="42" fill="black"/>
<path d="M58.9406 60.6073C58.7659 60.6072 58.5952 60.5546 58.4507 60.4565C58.3062 60.3583 58.1945 60.2191 58.13 60.0567C58.0655 59.8944 58.0512 59.7164 58.089 59.5458C58.1268 59.3753 58.2148 59.22 58.3418 59.1C58.8995 58.5764 59.4694 57.975 60.0359 57.3214C60.1112 57.2345 60.2029 57.1634 60.3058 57.112C60.4086 57.0607 60.5206 57.0301 60.6353 57.022C60.7499 57.0138 60.8651 57.0284 60.9741 57.0648C61.0832 57.1012 61.184 57.1587 61.2708 57.2341C61.3576 57.3094 61.4288 57.4012 61.4801 57.504C61.5315 57.6068 61.5621 57.7188 61.5702 57.8335C61.5783 57.9482 61.5638 58.0633 61.5274 58.1724C61.491 58.2814 61.4334 58.3822 61.3581 58.469C60.7851 59.1342 60.1789 59.7701 59.5419 60.3743C59.3789 60.5264 59.1635 60.6098 58.9406 60.6073V60.6073Z" fill="#B99B55"/>
<path d="M58.9406 60.6073C58.7659 60.6072 58.5952 60.5546 58.4507 60.4565C58.3062 60.3583 58.1945 60.2191 58.13 60.0567C58.0655 59.8944 58.0512 59.7164 58.089 59.5458C58.1268 59.3753 58.2148 59.22 58.3418 59.1C58.8995 58.5764 59.4694 57.975 60.0359 57.3214C60.1112 57.2345 60.2029 57.1634 60.3058 57.112C60.4086 57.0607 60.5206 57.0301 60.6353 57.022C60.7499 57.0138 60.8651 57.0284 60.9741 57.0648C61.0832 57.1012 61.184 57.1587 61.2708 57.2341C61.3576 57.3094 61.4288 57.4012 61.4801 57.504C61.5315 57.6068 61.5621 57.7188 61.5702 57.8335C61.5783 57.9482 61.5638 58.0633 61.5274 58.1724C61.491 58.2814 61.4334 58.3822 61.3581 58.469C60.7851 59.1342 60.1789 59.7701 59.5419 60.3743C59.3789 60.5264 59.1635 60.6098 58.9406 60.6073V60.6073Z" fill="url(#paint0_linear)"/>
<path d="M46.0146 67.1879C45.7958 67.1888 45.5847 67.1074 45.4231 66.96C45.2614 66.8126 45.1611 66.6099 45.1418 66.392C45.0602 65.4938 44.6457 64.6586 43.9797 64.0504C43.3137 63.4422 42.4445 63.105 41.5426 63.105C40.6407 63.105 39.7714 63.4422 39.1054 64.0504C38.4395 64.6586 38.025 65.4938 37.9433 66.392C37.9331 66.5129 37.8977 66.6304 37.8395 66.7369C37.7813 66.8434 37.7015 66.9365 37.6053 67.0105C37.509 67.0844 37.3984 67.1374 37.2805 67.1662C37.1626 67.1949 37.04 67.1988 36.9205 67.1775C31.6971 66.2306 26.8873 63.7115 23.1342 59.9572C19.3811 56.2029 16.8637 51.3922 15.9185 46.1685C15.8972 46.049 15.9011 45.9264 15.9298 45.8085C15.9586 45.6906 16.0116 45.58 16.0855 45.4837C16.1594 45.3875 16.2526 45.3077 16.3591 45.2495C16.4656 45.1913 16.5831 45.1559 16.704 45.1456C17.6041 45.0694 18.4423 44.6565 19.0513 43.9893C19.6602 43.3221 19.9951 42.4497 19.989 41.5464C19.9851 40.6456 19.6464 39.7783 19.0389 39.1132C18.4313 38.448 17.5982 38.0325 16.7014 37.9472C16.5804 37.9369 16.463 37.9016 16.3565 37.8433C16.25 37.7851 16.1568 37.7054 16.0829 37.6091C16.009 37.5128 15.9559 37.4022 15.9272 37.2843C15.8984 37.1664 15.8946 37.0438 15.9159 36.9243C16.8616 31.7008 19.3797 26.8905 23.1332 23.1368C26.8868 19.383 31.697 16.8648 36.9205 15.9189C37.04 15.8976 37.1626 15.9014 37.2805 15.9302C37.3984 15.9589 37.509 16.0119 37.6053 16.0859C37.7015 16.1598 37.7813 16.253 37.8395 16.3594C37.8977 16.4659 37.9331 16.5834 37.9433 16.7043C38.025 17.6025 38.4395 18.4377 39.1054 19.0459C39.7714 19.6541 40.6407 19.9913 41.5426 19.9913C42.4445 19.9913 43.3137 19.6541 43.9797 19.0459C44.6457 18.4377 45.0602 17.6025 45.1418 16.7043C45.1521 16.5834 45.1874 16.4659 45.2456 16.3594C45.3039 16.253 45.3836 16.1598 45.4799 16.0859C45.5762 16.0119 45.6868 15.9589 45.8047 15.9302C45.9226 15.9014 46.0452 15.8976 46.1647 15.9189C51.389 16.864 56.2001 19.3819 59.9545 23.1357C63.7089 26.8895 66.2276 31.7002 67.1736 36.9243C67.1949 37.0438 67.1911 37.1664 67.1623 37.2843C67.1336 37.4022 67.0805 37.5128 67.0066 37.6091C66.9327 37.7054 66.8395 37.7851 66.733 37.8433C66.6265 37.9016 66.5091 37.9369 66.3881 37.9472C65.4918 38.0331 64.6593 38.4489 64.0523 39.114C63.4453 39.7791 63.107 40.646 63.1031 41.5464C63.0971 42.4501 63.4323 43.3228 64.0418 43.9901C64.6513 44.6574 65.4902 45.07 66.3908 45.1456C66.5116 45.1559 66.629 45.1913 66.7354 45.2494C66.8418 45.3076 66.935 45.3873 67.0089 45.4834C67.0828 45.5796 67.1358 45.6901 67.1646 45.8079C67.1935 45.9257 67.1974 46.0482 67.1762 46.1676C66.747 48.5626 65.9831 50.8854 64.9071 53.0676C64.805 53.276 64.6243 53.4352 64.4049 53.5103C64.1854 53.5855 63.945 53.5703 63.7367 53.4682C63.5284 53.3662 63.3692 53.1855 63.294 52.966C63.2189 52.7465 63.234 52.5062 63.3361 52.2979C64.2105 50.5225 64.8638 48.6466 65.2815 46.7122C64.1515 46.3985 63.1554 45.7232 62.4457 44.7896C61.736 43.8561 61.3517 42.7156 61.3517 41.5429C61.3517 40.3702 61.736 39.2298 62.4457 38.2962C63.1554 37.3626 64.1515 36.6873 65.2815 36.3736C64.287 31.8269 62.0093 27.6608 58.7185 24.3695C55.4277 21.0783 51.262 18.8 46.7154 17.8049C46.4017 18.9349 45.7264 19.9309 44.7928 20.6407C43.8592 21.3504 42.7188 21.7346 41.5461 21.7346C40.3733 21.7346 39.2329 21.3504 38.2993 20.6407C37.3658 19.9309 36.6904 18.9349 36.3767 17.8049C31.8291 18.7996 27.6622 21.0782 24.3707 24.3702C21.0792 27.6621 18.8013 31.8293 17.8072 36.3771C18.9371 36.6908 19.9332 37.3661 20.6429 38.2997C21.3527 39.2333 21.7369 40.3737 21.7369 41.5464C21.7369 42.7191 21.3527 43.8596 20.6429 44.7931C19.9332 45.7267 18.9371 46.402 17.8072 46.7157C18.8014 51.2638 21.0796 55.4311 24.3715 58.7231C27.6633 62.0151 31.8305 64.2935 36.3785 65.2879C36.6919 64.1576 37.3672 63.1611 38.3009 62.4511C39.2346 61.7411 40.3752 61.3566 41.5482 61.3566C42.7213 61.3566 43.8619 61.7411 44.7956 62.4511C45.7293 63.1611 46.4046 64.1576 46.718 65.2879C49.1202 64.7735 51.4284 63.8902 53.5604 62.6697C53.66 62.6096 53.7707 62.57 53.8858 62.5533C54.0009 62.5366 54.1183 62.543 54.2309 62.5723C54.3435 62.6016 54.4491 62.6531 54.5415 62.7238C54.6339 62.7945 54.7113 62.883 54.769 62.984C54.8267 63.085 54.8637 63.1965 54.8776 63.312C54.8916 63.4276 54.8824 63.5447 54.8504 63.6566C54.8185 63.7684 54.7645 63.8728 54.6917 63.9635C54.6188 64.0542 54.5285 64.1295 54.4262 64.1848C51.8668 65.651 49.0728 66.6629 46.1682 67.1757C46.1174 67.1842 46.066 67.1883 46.0146 67.1879Z" fill="#B99B55"/>
<path d="M46.0146 67.1879C45.7958 67.1888 45.5847 67.1074 45.4231 66.96C45.2614 66.8126 45.1611 66.6099 45.1418 66.392C45.0602 65.4938 44.6457 64.6586 43.9797 64.0504C43.3137 63.4422 42.4445 63.105 41.5426 63.105C40.6407 63.105 39.7714 63.4422 39.1054 64.0504C38.4395 64.6586 38.025 65.4938 37.9433 66.392C37.9331 66.5129 37.8977 66.6304 37.8395 66.7369C37.7813 66.8434 37.7015 66.9365 37.6053 67.0105C37.509 67.0844 37.3984 67.1374 37.2805 67.1662C37.1626 67.1949 37.04 67.1988 36.9205 67.1775C31.6971 66.2306 26.8873 63.7115 23.1342 59.9572C19.3811 56.2029 16.8637 51.3922 15.9185 46.1685C15.8972 46.049 15.9011 45.9264 15.9298 45.8085C15.9586 45.6906 16.0116 45.58 16.0855 45.4837C16.1594 45.3875 16.2526 45.3077 16.3591 45.2495C16.4656 45.1913 16.5831 45.1559 16.704 45.1456C17.6041 45.0694 18.4423 44.6565 19.0513 43.9893C19.6602 43.3221 19.9951 42.4497 19.989 41.5464C19.9851 40.6456 19.6464 39.7783 19.0389 39.1132C18.4313 38.448 17.5982 38.0325 16.7014 37.9472C16.5804 37.9369 16.463 37.9016 16.3565 37.8433C16.25 37.7851 16.1568 37.7054 16.0829 37.6091C16.009 37.5128 15.9559 37.4022 15.9272 37.2843C15.8984 37.1664 15.8946 37.0438 15.9159 36.9243C16.8616 31.7008 19.3797 26.8905 23.1332 23.1368C26.8868 19.383 31.697 16.8648 36.9205 15.9189C37.04 15.8976 37.1626 15.9014 37.2805 15.9302C37.3984 15.9589 37.509 16.0119 37.6053 16.0859C37.7015 16.1598 37.7813 16.253 37.8395 16.3594C37.8977 16.4659 37.9331 16.5834 37.9433 16.7043C38.025 17.6025 38.4395 18.4377 39.1054 19.0459C39.7714 19.6541 40.6407 19.9913 41.5426 19.9913C42.4445 19.9913 43.3137 19.6541 43.9797 19.0459C44.6457 18.4377 45.0602 17.6025 45.1418 16.7043C45.1521 16.5834 45.1874 16.4659 45.2456 16.3594C45.3039 16.253 45.3836 16.1598 45.4799 16.0859C45.5762 16.0119 45.6868 15.9589 45.8047 15.9302C45.9226 15.9014 46.0452 15.8976 46.1647 15.9189C51.389 16.864 56.2001 19.3819 59.9545 23.1357C63.7089 26.8895 66.2276 31.7002 67.1736 36.9243C67.1949 37.0438 67.1911 37.1664 67.1623 37.2843C67.1336 37.4022 67.0805 37.5128 67.0066 37.6091C66.9327 37.7054 66.8395 37.7851 66.733 37.8433C66.6265 37.9016 66.5091 37.9369 66.3881 37.9472C65.4918 38.0331 64.6593 38.4489 64.0523 39.114C63.4453 39.7791 63.107 40.646 63.1031 41.5464C63.0971 42.4501 63.4323 43.3228 64.0418 43.9901C64.6513 44.6574 65.4902 45.07 66.3908 45.1456C66.5116 45.1559 66.629 45.1913 66.7354 45.2494C66.8418 45.3076 66.935 45.3873 67.0089 45.4834C67.0828 45.5796 67.1358 45.6901 67.1646 45.8079C67.1935 45.9257 67.1974 46.0482 67.1762 46.1676C66.747 48.5626 65.9831 50.8854 64.9071 53.0676C64.805 53.276 64.6243 53.4352 64.4049 53.5103C64.1854 53.5855 63.945 53.5703 63.7367 53.4682C63.5284 53.3662 63.3692 53.1855 63.294 52.966C63.2189 52.7465 63.234 52.5062 63.3361 52.2979C64.2105 50.5225 64.8638 48.6466 65.2815 46.7122C64.1515 46.3985 63.1554 45.7232 62.4457 44.7896C61.736 43.8561 61.3517 42.7156 61.3517 41.5429C61.3517 40.3702 61.736 39.2298 62.4457 38.2962C63.1554 37.3626 64.1515 36.6873 65.2815 36.3736C64.287 31.8269 62.0093 27.6608 58.7185 24.3695C55.4277 21.0783 51.262 18.8 46.7154 17.8049C46.4017 18.9349 45.7264 19.9309 44.7928 20.6407C43.8592 21.3504 42.7188 21.7346 41.5461 21.7346C40.3733 21.7346 39.2329 21.3504 38.2993 20.6407C37.3658 19.9309 36.6904 18.9349 36.3767 17.8049C31.8291 18.7996 27.6622 21.0782 24.3707 24.3702C21.0792 27.6621 18.8013 31.8293 17.8072 36.3771C18.9371 36.6908 19.9332 37.3661 20.6429 38.2997C21.3527 39.2333 21.7369 40.3737 21.7369 41.5464C21.7369 42.7191 21.3527 43.8596 20.6429 44.7931C19.9332 45.7267 18.9371 46.402 17.8072 46.7157C18.8014 51.2638 21.0796 55.4311 24.3715 58.7231C27.6633 62.0151 31.8305 64.2935 36.3785 65.2879C36.6919 64.1576 37.3672 63.1611 38.3009 62.4511C39.2346 61.7411 40.3752 61.3566 41.5482 61.3566C42.7213 61.3566 43.8619 61.7411 44.7956 62.4511C45.7293 63.1611 46.4046 64.1576 46.718 65.2879C49.1202 64.7735 51.4284 63.8902 53.5604 62.6697C53.66 62.6096 53.7707 62.57 53.8858 62.5533C54.0009 62.5366 54.1183 62.543 54.2309 62.5723C54.3435 62.6016 54.4491 62.6531 54.5415 62.7238C54.6339 62.7945 54.7113 62.883 54.769 62.984C54.8267 63.085 54.8637 63.1965 54.8776 63.312C54.8916 63.4276 54.8824 63.5447 54.8504 63.6566C54.8185 63.7684 54.7645 63.8728 54.6917 63.9635C54.6188 64.0542 54.5285 64.1295 54.4262 64.1848C51.8668 65.651 49.0728 66.6629 46.1682 67.1757C46.1174 67.1842 46.066 67.1883 46.0146 67.1879Z" fill="url(#paint1_linear)"/>
<path d="M41.5462 21.7357C40.2052 21.7439 38.9106 21.2457 37.921 20.3408C36.9315 19.4358 36.3198 18.1908 36.2084 16.8544C36.1881 16.6929 36.1782 16.5302 36.1787 16.3674C36.1787 14.9439 36.7442 13.5787 37.7508 12.5721C38.7574 11.5655 40.1226 11 41.5462 11C42.9697 11 44.3349 11.5655 45.3415 12.5721C46.3481 13.5787 46.9136 14.9439 46.9136 16.3674C46.9139 16.5399 46.9028 16.7122 46.8804 16.8832C46.764 18.2145 46.1504 19.453 45.1619 20.3523C44.1734 21.2515 42.8825 21.7454 41.5462 21.7357V21.7357ZM41.5462 12.7464C40.5859 12.7475 39.6653 13.1295 38.9864 13.8085C38.3074 14.4875 37.9254 15.4081 37.9242 16.3683C37.9245 16.4701 37.9309 16.5718 37.9434 16.6729C38.0166 17.5753 38.4258 18.4174 39.0901 19.0325C39.7544 19.6477 40.6254 19.9911 41.5308 19.9948C42.4362 19.9985 43.31 19.6623 43.9793 19.0527C44.6486 18.443 45.0648 17.6043 45.1454 16.7026C45.1598 16.5917 45.1674 16.4801 45.1681 16.3683C45.1672 15.4079 44.7853 14.4871 44.1063 13.8079C43.4273 13.1287 42.5066 12.7467 41.5462 12.7455V12.7464Z" fill="#B99B55"/>
<path d="M41.5462 21.7357C40.2052 21.7439 38.9106 21.2457 37.921 20.3408C36.9315 19.4358 36.3198 18.1908 36.2084 16.8544C36.1881 16.6929 36.1782 16.5302 36.1787 16.3674C36.1787 14.9439 36.7442 13.5787 37.7508 12.5721C38.7574 11.5655 40.1226 11 41.5462 11C42.9697 11 44.3349 11.5655 45.3415 12.5721C46.3481 13.5787 46.9136 14.9439 46.9136 16.3674C46.9139 16.5399 46.9028 16.7122 46.8804 16.8832C46.764 18.2145 46.1504 19.453 45.1619 20.3523C44.1734 21.2515 42.8825 21.7454 41.5462 21.7357V21.7357ZM41.5462 12.7464C40.5859 12.7475 39.6653 13.1295 38.9864 13.8085C38.3074 14.4875 37.9254 15.4081 37.9242 16.3683C37.9245 16.4701 37.9309 16.5718 37.9434 16.6729C38.0166 17.5753 38.4258 18.4174 39.0901 19.0325C39.7544 19.6477 40.6254 19.9911 41.5308 19.9948C42.4362 19.9985 43.31 19.6623 43.9793 19.0527C44.6486 18.443 45.0648 17.6043 45.1454 16.7026C45.1598 16.5917 45.1674 16.4801 45.1681 16.3683C45.1672 15.4079 44.7853 14.4871 44.1063 13.8079C43.4273 13.1287 42.5066 12.7467 41.5462 12.7455V12.7464Z" fill="url(#paint2_linear)"/>
<path d="M41.5462 72.0929C40.123 72.0915 38.7586 71.5256 37.7523 70.5193C36.746 69.513 36.1801 68.1486 36.1787 66.7255C36.1785 66.553 36.1895 66.3807 36.2119 66.2097C36.3383 64.8797 36.957 63.6449 37.9467 62.7475C38.9363 61.85 40.2255 61.3545 41.5614 61.3582C42.8974 61.362 44.1838 61.8646 45.1684 62.7675C46.153 63.6705 46.7649 64.9087 46.8839 66.2394C46.9043 66.4006 46.9142 66.563 46.9136 66.7255C46.9122 68.1486 46.3463 69.513 45.34 70.5193C44.3337 71.5256 42.9693 72.0915 41.5462 72.0929V72.0929ZM41.5462 63.1036C40.6424 63.0977 39.7696 63.4332 39.1024 64.0428C38.4352 64.6525 38.0225 65.4914 37.9469 66.3921C37.9325 66.5026 37.9249 66.614 37.9242 66.7255C37.9242 67.6861 38.3058 68.6073 38.9851 69.2866C39.6643 69.9658 40.5856 70.3474 41.5462 70.3474C42.5067 70.3474 43.428 69.9658 44.1072 69.2866C44.7865 68.6073 45.1681 67.6861 45.1681 66.7255C45.1678 66.624 45.1614 66.5225 45.1489 66.4218C45.0784 65.516 44.6677 64.6704 43.9994 64.0549C43.3311 63.4393 42.4547 63.0995 41.5462 63.1036V63.1036Z" fill="#B99B55"/>
<path d="M41.5462 72.0929C40.123 72.0915 38.7586 71.5256 37.7523 70.5193C36.746 69.513 36.1801 68.1486 36.1787 66.7255C36.1785 66.553 36.1895 66.3807 36.2119 66.2097C36.3383 64.8797 36.957 63.6449 37.9467 62.7475C38.9363 61.85 40.2255 61.3545 41.5614 61.3582C42.8974 61.362 44.1838 61.8646 45.1684 62.7675C46.153 63.6705 46.7649 64.9087 46.8839 66.2394C46.9043 66.4006 46.9142 66.563 46.9136 66.7255C46.9122 68.1486 46.3463 69.513 45.34 70.5193C44.3337 71.5256 42.9693 72.0915 41.5462 72.0929V72.0929ZM41.5462 63.1036C40.6424 63.0977 39.7696 63.4332 39.1024 64.0428C38.4352 64.6525 38.0225 65.4914 37.9469 66.3921C37.9325 66.5026 37.9249 66.614 37.9242 66.7255C37.9242 67.6861 38.3058 68.6073 38.9851 69.2866C39.6643 69.9658 40.5856 70.3474 41.5462 70.3474C42.5067 70.3474 43.428 69.9658 44.1072 69.2866C44.7865 68.6073 45.1681 67.6861 45.1681 66.7255C45.1678 66.624 45.1614 66.5225 45.1489 66.4218C45.0784 65.516 44.6677 64.6704 43.9994 64.0549C43.3311 63.4393 42.4547 63.0995 41.5462 63.1036V63.1036Z" fill="url(#paint3_linear)"/>
<path d="M66.7256 46.9138C66.5505 46.9139 66.3756 46.9028 66.2019 46.8807C64.8774 46.7469 63.6502 46.1248 62.7592 45.1358C61.8682 44.1467 61.3772 42.8614 61.3819 41.5302C61.3866 40.199 61.8866 38.9172 62.7845 37.9345C63.6825 36.9517 64.9141 36.3383 66.2394 36.2139C66.4006 36.1929 66.563 36.1827 66.7256 36.1833C68.1491 36.1833 69.5143 36.7488 70.5209 37.7554C71.5275 38.762 72.093 40.1272 72.093 41.5507C72.093 42.9743 71.5275 44.3395 70.5209 45.3461C69.5143 46.3527 68.1491 46.9182 66.7256 46.9182V46.9138ZM66.7256 37.9245C66.6269 37.9246 66.5284 37.931 66.4306 37.9437C65.527 38.0221 64.6852 38.4349 64.0699 39.1012C63.4546 39.7675 63.11 40.6394 63.1036 41.5464C63.0976 42.4501 63.4329 43.3228 64.0424 43.9901C64.6519 44.6573 65.4907 45.07 66.3913 45.1456C66.5021 45.1604 66.6138 45.1679 66.7256 45.1683C67.6862 45.1683 68.6074 44.7867 69.2867 44.1075C69.9659 43.4282 70.3475 42.507 70.3475 41.5464C70.3475 40.5858 69.9659 39.6645 69.2867 38.9853C68.6074 38.3061 67.6862 37.9245 66.7256 37.9245V37.9245Z" fill="#B99B55"/>
<path d="M66.7256 46.9138C66.5505 46.9139 66.3756 46.9028 66.2019 46.8807C64.8774 46.7469 63.6502 46.1248 62.7592 45.1358C61.8682 44.1467 61.3772 42.8614 61.3819 41.5302C61.3866 40.199 61.8866 38.9172 62.7845 37.9345C63.6825 36.9517 64.9141 36.3383 66.2394 36.2139C66.4006 36.1929 66.563 36.1827 66.7256 36.1833C68.1491 36.1833 69.5143 36.7488 70.5209 37.7554C71.5275 38.762 72.093 40.1272 72.093 41.5507C72.093 42.9743 71.5275 44.3395 70.5209 45.3461C69.5143 46.3527 68.1491 46.9182 66.7256 46.9182V46.9138ZM66.7256 37.9245C66.6269 37.9246 66.5284 37.931 66.4306 37.9437C65.527 38.0221 64.6852 38.4349 64.0699 39.1012C63.4546 39.7675 63.11 40.6394 63.1036 41.5464C63.0976 42.4501 63.4329 43.3228 64.0424 43.9901C64.6519 44.6573 65.4907 45.07 66.3913 45.1456C66.5021 45.1604 66.6138 45.1679 66.7256 45.1683C67.6862 45.1683 68.6074 44.7867 69.2867 44.1075C69.9659 43.4282 70.3475 42.507 70.3475 41.5464C70.3475 40.5858 69.9659 39.6645 69.2867 38.9853C68.6074 38.3061 67.6862 37.9245 66.7256 37.9245V37.9245Z" fill="url(#paint4_linear)"/>
<path d="M16.3674 46.9139C14.9439 46.9139 13.5787 46.3484 12.5721 45.3418C11.5655 44.3352 11 42.97 11 41.5464C11 40.1229 11.5655 38.7577 12.5721 37.7511C13.5787 36.7445 14.9439 36.179 16.3674 36.179C16.5425 36.1792 16.7174 36.1906 16.8911 36.213C18.2201 36.3417 19.4531 36.9619 20.3488 37.9522C21.2444 38.9424 21.7381 40.2313 21.7332 41.5665C21.7283 42.9017 21.2251 44.1869 20.3222 45.1705C19.4193 46.1542 18.1817 46.7653 16.8518 46.8842C16.6912 46.9047 16.5294 46.9146 16.3674 46.9139V46.9139ZM16.3674 37.9245C15.8918 37.9245 15.4208 38.0182 14.9814 38.2002C14.542 38.3822 14.1427 38.649 13.8063 38.9853C13.47 39.3217 13.2032 39.7209 13.0212 40.1604C12.8392 40.5998 12.7455 41.0708 12.7455 41.5464C12.7455 42.0221 12.8392 42.493 13.0212 42.9325C13.2032 43.3719 13.47 43.7712 13.8063 44.1075C14.1427 44.4438 14.542 44.7106 14.9814 44.8927C15.4208 45.0747 15.8918 45.1684 16.3674 45.1684C16.4661 45.1685 16.5646 45.1624 16.6624 45.15C17.565 45.0781 18.4077 44.67 19.0238 44.0065C19.6398 43.3431 19.9844 42.4725 19.9894 41.5671C19.9943 40.6617 19.6592 39.7874 19.0504 39.1172C18.4416 38.4471 17.6034 38.0298 16.7017 37.9481C16.5909 37.9331 16.4792 37.9252 16.3674 37.9245V37.9245Z" fill="#B99B55"/>
<path d="M16.3674 46.9139C14.9439 46.9139 13.5787 46.3484 12.5721 45.3418C11.5655 44.3352 11 42.97 11 41.5464C11 40.1229 11.5655 38.7577 12.5721 37.7511C13.5787 36.7445 14.9439 36.179 16.3674 36.179C16.5425 36.1792 16.7174 36.1906 16.8911 36.213C18.2201 36.3417 19.4531 36.9619 20.3488 37.9522C21.2444 38.9424 21.7381 40.2313 21.7332 41.5665C21.7283 42.9017 21.2251 44.1869 20.3222 45.1705C19.4193 46.1542 18.1817 46.7653 16.8518 46.8842C16.6912 46.9047 16.5294 46.9146 16.3674 46.9139V46.9139ZM16.3674 37.9245C15.8918 37.9245 15.4208 38.0182 14.9814 38.2002C14.542 38.3822 14.1427 38.649 13.8063 38.9853C13.47 39.3217 13.2032 39.7209 13.0212 40.1604C12.8392 40.5998 12.7455 41.0708 12.7455 41.5464C12.7455 42.0221 12.8392 42.493 13.0212 42.9325C13.2032 43.3719 13.47 43.7712 13.8063 44.1075C14.1427 44.4438 14.542 44.7106 14.9814 44.8927C15.4208 45.0747 15.8918 45.1684 16.3674 45.1684C16.4661 45.1685 16.5646 45.1624 16.6624 45.15C17.565 45.0781 18.4077 44.67 19.0238 44.0065C19.6398 43.3431 19.9844 42.4725 19.9894 41.5671C19.9943 40.6617 19.6592 39.7874 19.0504 39.1172C18.4416 38.4471 17.6034 38.0298 16.7017 37.9481C16.5909 37.9331 16.4792 37.9252 16.3674 37.9245V37.9245Z" fill="url(#paint5_linear)"/>
<path d="M41.5469 59.0015C38.0946 59.0015 34.7198 57.9778 31.8494 56.0598C28.9789 54.1418 26.7416 51.4157 25.4205 48.2262C24.0994 45.0367 23.7537 41.5271 24.4272 38.1411C25.1007 34.7552 26.7631 31.645 29.2043 29.2038C31.6454 26.7627 34.7556 25.1002 38.1416 24.4267C41.5275 23.7532 45.0372 24.0989 48.2267 25.42C51.4162 26.7412 54.1423 28.9784 56.0603 31.8489C57.9782 34.7194 59.002 38.0941 59.002 41.5464C58.9967 46.1742 57.1559 50.6109 53.8836 53.8832C50.6113 57.1555 46.1746 58.9962 41.5469 59.0015V59.0015ZM41.5469 25.8369C38.4398 25.8369 35.4025 26.7582 32.8191 28.4844C30.2357 30.2106 28.2222 32.6641 27.0331 35.5346C25.8441 38.4052 25.533 41.5639 26.1392 44.6112C26.7453 47.6586 28.2415 50.4578 30.4385 52.6548C32.6356 54.8518 35.4347 56.348 38.4821 56.9541C41.5295 57.5603 44.6881 57.2492 47.5587 56.0602C50.4292 54.8712 52.8827 52.8576 54.6089 50.2742C56.3351 47.6908 57.2565 44.6535 57.2565 41.5464C57.2516 37.3815 55.5949 33.3885 52.6499 30.4434C49.7048 27.4984 45.7118 25.8417 41.5469 25.8369V25.8369Z" fill="#B99B55"/>
<path d="M41.5469 59.0015C38.0946 59.0015 34.7198 57.9778 31.8494 56.0598C28.9789 54.1418 26.7416 51.4157 25.4205 48.2262C24.0994 45.0367 23.7537 41.5271 24.4272 38.1411C25.1007 34.7552 26.7631 31.645 29.2043 29.2038C31.6454 26.7627 34.7556 25.1002 38.1416 24.4267C41.5275 23.7532 45.0372 24.0989 48.2267 25.42C51.4162 26.7412 54.1423 28.9784 56.0603 31.8489C57.9782 34.7194 59.002 38.0941 59.002 41.5464C58.9967 46.1742 57.1559 50.6109 53.8836 53.8832C50.6113 57.1555 46.1746 58.9962 41.5469 59.0015V59.0015ZM41.5469 25.8369C38.4398 25.8369 35.4025 26.7582 32.8191 28.4844C30.2357 30.2106 28.2222 32.6641 27.0331 35.5346C25.8441 38.4052 25.533 41.5639 26.1392 44.6112C26.7453 47.6586 28.2415 50.4578 30.4385 52.6548C32.6356 54.8518 35.4347 56.348 38.4821 56.9541C41.5295 57.5603 44.6881 57.2492 47.5587 56.0602C50.4292 54.8712 52.8827 52.8576 54.6089 50.2742C56.3351 47.6908 57.2565 44.6535 57.2565 41.5464C57.2516 37.3815 55.5949 33.3885 52.6499 30.4434C49.7048 27.4984 45.7118 25.8417 41.5469 25.8369V25.8369Z" fill="url(#paint6_linear)"/>
<path d="M41.5469 59.0015C36.731 59.0015 32.959 51.3344 32.959 41.5464C32.959 31.7585 36.731 24.0913 41.5469 24.0913C46.3627 24.0913 50.1348 31.7585 50.1348 41.5464C50.1348 51.3344 46.3627 59.0015 41.5469 59.0015ZM41.5469 25.8368C37.8377 25.8368 34.7045 33.031 34.7045 41.5464C34.7045 50.0619 37.8377 57.256 41.5469 57.256C45.2561 57.256 48.3893 50.0619 48.3893 41.5464C48.3893 33.031 45.2561 25.8368 41.5469 25.8368Z" fill="#B99B55"/>
<path d="M41.5469 59.0015C36.731 59.0015 32.959 51.3344 32.959 41.5464C32.959 31.7585 36.731 24.0913 41.5469 24.0913C46.3627 24.0913 50.1348 31.7585 50.1348 41.5464C50.1348 51.3344 46.3627 59.0015 41.5469 59.0015ZM41.5469 25.8368C37.8377 25.8368 34.7045 33.031 34.7045 41.5464C34.7045 50.0619 37.8377 57.256 41.5469 57.256C45.2561 57.256 48.3893 50.0619 48.3893 41.5464C48.3893 33.031 45.2561 25.8368 41.5469 25.8368Z" fill="url(#paint7_linear)"/>
<path d="M41.5466 59.0015C41.3151 59.0015 41.0931 58.9096 40.9295 58.7459C40.7658 58.5822 40.6738 58.3602 40.6738 58.1287V24.9641C40.6738 24.7326 40.7658 24.5106 40.9295 24.347C41.0931 24.1833 41.3151 24.0913 41.5466 24.0913C41.7781 24.0913 42 24.1833 42.1637 24.347C42.3274 24.5106 42.4193 24.7326 42.4193 24.9641V58.1287C42.4193 58.3602 42.3274 58.5822 42.1637 58.7459C42 58.9096 41.7781 59.0015 41.5466 59.0015Z" fill="#B99B55"/>
<path d="M41.5466 59.0015C41.3151 59.0015 41.0931 58.9096 40.9295 58.7459C40.7658 58.5822 40.6738 58.3602 40.6738 58.1287V24.9641C40.6738 24.7326 40.7658 24.5106 40.9295 24.347C41.0931 24.1833 41.3151 24.0913 41.5466 24.0913C41.7781 24.0913 42 24.1833 42.1637 24.347C42.3274 24.5106 42.4193 24.7326 42.4193 24.9641V58.1287C42.4193 58.3602 42.3274 58.5822 42.1637 58.7459C42 58.9096 41.7781 59.0015 41.5466 59.0015Z" fill="url(#paint8_linear)"/>
<path d="M58.1292 42.4192H24.9646C24.7331 42.4192 24.5111 42.3273 24.3474 42.1636C24.1837 41.9999 24.0918 41.7779 24.0918 41.5465C24.0918 41.315 24.1837 41.093 24.3474 40.9293C24.5111 40.7657 24.7331 40.6737 24.9646 40.6737H58.1292C58.3607 40.6737 58.5827 40.7657 58.7463 40.9293C58.91 41.093 59.002 41.315 59.002 41.5465C59.002 41.7779 58.91 41.9999 58.7463 42.1636C58.5827 42.3273 58.3607 42.4192 58.1292 42.4192Z" fill="#B99B55"/>
<path d="M58.1292 42.4192H24.9646C24.7331 42.4192 24.5111 42.3273 24.3474 42.1636C24.1837 41.9999 24.0918 41.7779 24.0918 41.5465C24.0918 41.315 24.1837 41.093 24.3474 40.9293C24.5111 40.7657 24.7331 40.6737 24.9646 40.6737H58.1292C58.3607 40.6737 58.5827 40.7657 58.7463 40.9293C58.91 41.093 59.002 41.315 59.002 41.5465C59.002 41.7779 58.91 41.9999 58.7463 42.1636C58.5827 42.3273 58.3607 42.4192 58.1292 42.4192Z" fill="url(#paint9_linear)"/>
<path d="M56.1664 34.5793H26.9353C26.7038 34.5793 26.4818 34.4873 26.3181 34.3237C26.1544 34.16 26.0625 33.938 26.0625 33.7065C26.0625 33.4751 26.1544 33.2531 26.3181 33.0894C26.4818 32.9257 26.7038 32.8338 26.9353 32.8338H56.1664C56.3979 32.8338 56.6199 32.9257 56.7835 33.0894C56.9472 33.2531 57.0392 33.4751 57.0392 33.7065C57.0392 33.938 56.9472 34.16 56.7835 34.3237C56.6199 34.4873 56.3979 34.5793 56.1664 34.5793Z" fill="#B99B55"/>
<path d="M56.1664 34.5793H26.9353C26.7038 34.5793 26.4818 34.4873 26.3181 34.3237C26.1544 34.16 26.0625 33.938 26.0625 33.7065C26.0625 33.4751 26.1544 33.2531 26.3181 33.0894C26.4818 32.9257 26.7038 32.8338 26.9353 32.8338H56.1664C56.3979 32.8338 56.6199 32.9257 56.7835 33.0894C56.9472 33.2531 57.0392 33.4751 57.0392 33.7065C57.0392 33.938 56.9472 34.16 56.7835 34.3237C56.6199 34.4873 56.3979 34.5793 56.1664 34.5793Z" fill="url(#paint10_linear)"/>
<path d="M56.1664 50.2591H26.9353C26.7038 50.2591 26.4818 50.1672 26.3181 50.0035C26.1544 49.8399 26.0625 49.6179 26.0625 49.3864C26.0625 49.1549 26.1544 48.9329 26.3181 48.7693C26.4818 48.6056 26.7038 48.5136 26.9353 48.5136H56.1664C56.3979 48.5136 56.6199 48.6056 56.7835 48.7693C56.9472 48.9329 57.0392 49.1549 57.0392 49.3864C57.0392 49.6179 56.9472 49.8399 56.7835 50.0035C56.6199 50.1672 56.3979 50.2591 56.1664 50.2591Z" fill="#B99B55"/>
<path d="M56.1664 50.2591H26.9353C26.7038 50.2591 26.4818 50.1672 26.3181 50.0035C26.1544 49.8399 26.0625 49.6179 26.0625 49.3864C26.0625 49.1549 26.1544 48.9329 26.3181 48.7693C26.4818 48.6056 26.7038 48.5136 26.9353 48.5136H56.1664C56.3979 48.5136 56.6199 48.6056 56.7835 48.7693C56.9472 48.9329 57.0392 49.1549 57.0392 49.3864C57.0392 49.6179 56.9472 49.8399 56.7835 50.0035C56.6199 50.1672 56.3979 50.2591 56.1664 50.2591Z" fill="url(#paint11_linear)"/>
<defs>
<linearGradient id="paint0_linear" x1="58.5548" y1="60.3632" x2="61.7168" y2="57.4002" gradientUnits="userSpaceOnUse">
<stop stop-color="#FAC929"/>
<stop offset="0.5158" stop-color="#FEF8C2"/>
<stop offset="1" stop-color="#FAC929"/>
</linearGradient>
<linearGradient id="paint1_linear" x1="23.0219" y1="63.7009" x2="68.2804" y2="20.2788" gradientUnits="userSpaceOnUse">
<stop stop-color="#FAC929"/>
<stop offset="0.5158" stop-color="#FEF8C2"/>
<stop offset="1" stop-color="#FAC929"/>
</linearGradient>
<linearGradient id="paint2_linear" x1="37.6689" y1="21.0053" x2="47.143" y2="11.9167" gradientUnits="userSpaceOnUse">
<stop stop-color="#FAC929"/>
<stop offset="0.5158" stop-color="#FEF8C2"/>
<stop offset="1" stop-color="#FAC929"/>
</linearGradient>
<linearGradient id="paint3_linear" x1="37.6689" y1="71.3624" x2="47.142" y2="62.2738" gradientUnits="userSpaceOnUse">
<stop stop-color="#FAC929"/>
<stop offset="0.5158" stop-color="#FEF8C2"/>
<stop offset="1" stop-color="#FAC929"/>
</linearGradient>
<linearGradient id="paint4_linear" x1="62.8687" y1="46.1877" x2="72.3411" y2="37.12" gradientUnits="userSpaceOnUse">
<stop stop-color="#FAC929"/>
<stop offset="0.5158" stop-color="#FEF8C2"/>
<stop offset="1" stop-color="#FAC929"/>
</linearGradient>
<linearGradient id="paint5_linear" x1="12.49" y1="46.1834" x2="21.9632" y2="37.0962" gradientUnits="userSpaceOnUse">
<stop stop-color="#FAC929"/>
<stop offset="0.5158" stop-color="#FEF8C2"/>
<stop offset="1" stop-color="#FAC929"/>
</linearGradient>
<linearGradient id="paint6_linear" x1="28.9379" y1="56.6258" x2="59.7453" y2="27.0693" gradientUnits="userSpaceOnUse">
<stop stop-color="#FAC929"/>
<stop offset="0.5158" stop-color="#FEF8C2"/>
<stop offset="1" stop-color="#FAC929"/>
</linearGradient>
<linearGradient id="paint7_linear" x1="35.3433" y1="56.6258" x2="59.148" y2="45.3894" gradientUnits="userSpaceOnUse">
<stop stop-color="#FAC929"/>
<stop offset="0.5158" stop-color="#FEF8C2"/>
<stop offset="1" stop-color="#FAC929"/>
</linearGradient>
<linearGradient id="paint8_linear" x1="40.9161" y1="56.6258" x2="43.8675" y2="56.4842" gradientUnits="userSpaceOnUse">
<stop stop-color="#FAC929"/>
<stop offset="0.5158" stop-color="#FEF8C2"/>
<stop offset="1" stop-color="#FAC929"/>
</linearGradient>
<linearGradient id="paint9_linear" x1="28.9379" y1="42.3004" x2="29.0982" y2="39.2254" gradientUnits="userSpaceOnUse">
<stop stop-color="#FAC929"/>
<stop offset="0.5158" stop-color="#FEF8C2"/>
<stop offset="1" stop-color="#FAC929"/>
</linearGradient>
<linearGradient id="paint10_linear" x1="30.3626" y1="34.4605" x2="30.5431" y2="31.3877" gradientUnits="userSpaceOnUse">
<stop stop-color="#FAC929"/>
<stop offset="0.5158" stop-color="#FEF8C2"/>
<stop offset="1" stop-color="#FAC929"/>
</linearGradient>
<linearGradient id="paint11_linear" x1="30.3626" y1="50.1404" x2="30.5431" y2="47.0676" gradientUnits="userSpaceOnUse">
<stop stop-color="#FAC929"/>
<stop offset="0.5158" stop-color="#FEF8C2"/>
<stop offset="1" stop-color="#FAC929"/>
</linearGradient>
</defs>
</svg>
