<svg width="84" height="84" viewBox="0 0 84 84" fill="none" xmlns="http://www.w3.org/2000/svg">
<circle cx="42" cy="42" r="42" fill="black"/>
<path d="M38.3062 66.1345C38.11 65.9382 37.8379 65.8254 37.5605 65.8254C37.2821 65.8254 37.0111 65.9382 36.8149 66.1345C36.6187 66.3307 36.5059 66.6027 36.5059 66.8801C36.5059 67.1575 36.6187 67.4296 36.8149 67.6257C37.0111 67.8219 37.2832 67.9348 37.5605 67.9348C37.8379 67.9348 38.11 67.822 38.3062 67.6257C38.5024 67.4296 38.6152 67.1575 38.6152 66.8801C38.6152 66.6027 38.5024 66.3306 38.3062 66.1345Z" fill="#B99B55"/>
<path d="M38.3062 66.1345C38.11 65.9382 37.8379 65.8254 37.5605 65.8254C37.2821 65.8254 37.0111 65.9382 36.8149 66.1345C36.6187 66.3307 36.5059 66.6027 36.5059 66.8801C36.5059 67.1575 36.6187 67.4296 36.8149 67.6257C37.0111 67.8219 37.2832 67.9348 37.5605 67.9348C37.8379 67.9348 38.11 67.822 38.3062 67.6257C38.5024 67.4296 38.6152 67.1575 38.6152 66.8801C38.6152 66.6027 38.5024 66.3306 38.3062 66.1345Z" fill="url(#paint0_linear)"/>
<path d="M22.1172 46.9966C21.5347 46.9966 21.0625 47.4688 21.0625 48.0513V57.8423C21.0625 58.4247 21.5347 58.897 22.1172 58.897C22.6997 58.897 23.1719 58.4247 23.1719 57.8423V48.0513C23.1719 47.4689 22.6997 46.9966 22.1172 46.9966Z" fill="#B99B55"/>
<path d="M22.1172 46.9966C21.5347 46.9966 21.0625 47.4688 21.0625 48.0513V57.8423C21.0625 58.4247 21.5347 58.897 22.1172 58.897C22.6997 58.897 23.1719 58.4247 23.1719 57.8423V48.0513C23.1719 47.4689 22.6997 46.9966 22.1172 46.9966Z" fill="url(#paint1_linear)"/>
<path d="M22.8629 42.9113C22.6667 42.7151 22.3946 42.6022 22.1172 42.6022C21.8398 42.6022 21.5677 42.715 21.3715 42.9113C21.1754 43.1074 21.0625 43.3785 21.0625 43.6569C21.0625 43.9342 21.1754 44.2064 21.3715 44.4025C21.5677 44.5987 21.8398 44.7115 22.1172 44.7115C22.3946 44.7115 22.6667 44.5988 22.8629 44.4025C23.059 44.2062 23.1719 43.9342 23.1719 43.6569C23.1719 43.3795 23.059 43.1075 22.8629 42.9113Z" fill="#B99B55"/>
<path d="M22.8629 42.9113C22.6667 42.7151 22.3946 42.6022 22.1172 42.6022C21.8398 42.6022 21.5677 42.715 21.3715 42.9113C21.1754 43.1074 21.0625 43.3785 21.0625 43.6569C21.0625 43.9342 21.1754 44.2064 21.3715 44.4025C21.5677 44.5987 21.8398 44.7115 22.1172 44.7115C22.3946 44.7115 22.6667 44.5988 22.8629 44.4025C23.059 44.2062 23.1719 43.9342 23.1719 43.6569C23.1719 43.3795 23.059 43.1075 22.8629 42.9113Z" fill="url(#paint2_linear)"/>
<path d="M70 42.5169C70 39.9916 68.1789 37.885 65.7812 37.4378V30.5989C65.7812 27.6911 63.4156 25.3254 60.5078 25.3254H54.9964L43.9798 14.3088C43.568 13.8971 42.9001 13.8971 42.4882 14.3088L40.0365 16.7604L37.5849 14.3088C37.1731 13.8971 36.5052 13.8971 36.0934 14.3088L25.0113 25.391C24.898 25.3495 24.7762 25.3257 24.6484 25.3257H21.2734C18.3657 25.3257 16 27.6913 16 30.5991C16 30.676 16.0025 30.7523 16.0058 30.8284C16.002 30.8645 16 30.9013 16 30.9386V62.6615C16 65.5693 18.3657 67.9349 21.2734 67.9349H33.1211C33.7036 67.9349 34.1757 67.4626 34.1757 66.8802C34.1757 66.2978 33.7036 65.8256 33.1211 65.8256H21.2734C19.5288 65.8256 18.1094 64.4062 18.1094 62.6615V34.8148C18.9914 35.4784 20.0872 35.8723 21.2734 35.8723L43.3508 35.8937H55.3325C55.3668 35.8937 55.4012 35.8919 55.4354 35.8887C55.4374 35.8885 55.4394 35.8881 55.4414 35.8879C57.0399 36.0454 58.293 37.3972 58.293 39.0365V45.5756H45.5312C42.6235 45.5756 40.2578 47.9412 40.2578 50.849C40.2578 53.7568 42.6235 56.1224 45.5312 56.1224H58.293V62.6615C58.293 64.4062 56.8736 65.8256 55.1289 65.8256H41.9804C41.3979 65.8256 40.9257 66.2978 40.9257 66.8802C40.9257 67.4626 41.3979 67.9349 41.9804 67.9349H55.1289C58.0367 67.9349 60.4023 65.5693 60.4023 62.6615V62.2396H60.5078C63.4156 62.2396 65.7812 59.8739 65.7812 56.9662V56.0163C68.1854 55.5263 70 53.3957 70 50.849V42.7279C70 42.7059 69.9994 42.6839 69.998 42.6622C69.9994 42.6139 70 42.5654 70 42.5169ZM41.187 18.5935L43.234 16.5463L45.4941 18.8064C44.1459 19.6184 42.4522 19.6396 41.0855 18.8709C41.1329 18.7827 41.1664 18.6891 41.187 18.5935ZM18.1094 30.5989C18.1094 28.8542 19.5288 27.4348 21.2734 27.4348H22.9674L18.4256 31.9766C18.2232 31.5599 18.1094 31.0925 18.1094 30.5989ZM21.2734 33.7629C20.7913 33.7629 20.3342 33.6541 19.9249 33.4605L36.8391 16.5462L38.545 18.2521L23.034 33.7629H21.2734ZM31.2275 33.7629C31.3709 33.5863 31.5233 33.4163 31.6856 33.2541C32.9311 32.0085 34.5872 31.3226 36.3485 31.3226C38.1098 31.3226 39.7659 32.0086 41.0114 33.2541C41.1737 33.4163 41.3261 33.5864 41.4695 33.7629H31.2275ZM53.3058 33.7629H43.9955C43.5973 33.0287 43.098 32.3575 42.5029 31.7624C40.859 30.1185 38.6732 29.2131 36.3484 29.2131C34.0236 29.2131 31.8378 30.1185 30.1939 31.7624C29.5987 32.3575 29.0994 33.0287 28.7013 33.7629H26.0171L39.4526 20.3277C40.5782 21.1358 41.9058 21.5412 43.234 21.5412C44.5623 21.5412 45.8898 21.1359 47.0155 20.3277L53.9024 27.2146C52.5181 29.1429 52.3189 31.6642 53.3058 33.7629ZM55.4238 33.2562C54.5895 31.871 54.5895 30.121 55.4238 28.736L57.6839 30.9961L55.4238 33.2562ZM57.3898 34.2732L59.9212 31.7418C60.333 31.33 60.333 30.6622 59.9212 30.2502L57.1058 27.4348H60.5078C62.2525 27.4348 63.6719 28.8542 63.6719 30.5989V45.5754H60.4023V39.0364C60.4023 36.9373 59.1694 35.1214 57.3898 34.2732ZM63.6719 56.9661C63.6719 58.7107 62.2525 60.1301 60.5078 60.1301H60.4023V56.1223H63.6719V56.9661ZM67.8906 50.8489C67.8906 52.5935 66.4712 54.0129 64.7266 54.0129H45.5312C43.7866 54.0129 42.3672 52.5935 42.3672 50.8489C42.3672 49.1042 43.7866 47.6848 45.5312 47.6848H64.832C65.9756 47.6848 67.0337 47.3115 67.8906 46.6802V50.8489ZM65.7812 45.4239V39.6098C67.0044 40.0102 67.8906 41.1617 67.8906 42.5169C67.8906 43.872 67.0044 45.0235 65.7812 45.4239Z" fill="#B99B55"/>
<path d="M70 42.5169C70 39.9916 68.1789 37.885 65.7812 37.4378V30.5989C65.7812 27.6911 63.4156 25.3254 60.5078 25.3254H54.9964L43.9798 14.3088C43.568 13.8971 42.9001 13.8971 42.4882 14.3088L40.0365 16.7604L37.5849 14.3088C37.1731 13.8971 36.5052 13.8971 36.0934 14.3088L25.0113 25.391C24.898 25.3495 24.7762 25.3257 24.6484 25.3257H21.2734C18.3657 25.3257 16 27.6913 16 30.5991C16 30.676 16.0025 30.7523 16.0058 30.8284C16.002 30.8645 16 30.9013 16 30.9386V62.6615C16 65.5693 18.3657 67.9349 21.2734 67.9349H33.1211C33.7036 67.9349 34.1757 67.4626 34.1757 66.8802C34.1757 66.2978 33.7036 65.8256 33.1211 65.8256H21.2734C19.5288 65.8256 18.1094 64.4062 18.1094 62.6615V34.8148C18.9914 35.4784 20.0872 35.8723 21.2734 35.8723L43.3508 35.8937H55.3325C55.3668 35.8937 55.4012 35.8919 55.4354 35.8887C55.4374 35.8885 55.4394 35.8881 55.4414 35.8879C57.0399 36.0454 58.293 37.3972 58.293 39.0365V45.5756H45.5312C42.6235 45.5756 40.2578 47.9412 40.2578 50.849C40.2578 53.7568 42.6235 56.1224 45.5312 56.1224H58.293V62.6615C58.293 64.4062 56.8736 65.8256 55.1289 65.8256H41.9804C41.3979 65.8256 40.9257 66.2978 40.9257 66.8802C40.9257 67.4626 41.3979 67.9349 41.9804 67.9349H55.1289C58.0367 67.9349 60.4023 65.5693 60.4023 62.6615V62.2396H60.5078C63.4156 62.2396 65.7812 59.8739 65.7812 56.9662V56.0163C68.1854 55.5263 70 53.3957 70 50.849V42.7279C70 42.7059 69.9994 42.6839 69.998 42.6622C69.9994 42.6139 70 42.5654 70 42.5169ZM41.187 18.5935L43.234 16.5463L45.4941 18.8064C44.1459 19.6184 42.4522 19.6396 41.0855 18.8709C41.1329 18.7827 41.1664 18.6891 41.187 18.5935ZM18.1094 30.5989C18.1094 28.8542 19.5288 27.4348 21.2734 27.4348H22.9674L18.4256 31.9766C18.2232 31.5599 18.1094 31.0925 18.1094 30.5989ZM21.2734 33.7629C20.7913 33.7629 20.3342 33.6541 19.9249 33.4605L36.8391 16.5462L38.545 18.2521L23.034 33.7629H21.2734ZM31.2275 33.7629C31.3709 33.5863 31.5233 33.4163 31.6856 33.2541C32.9311 32.0085 34.5872 31.3226 36.3485 31.3226C38.1098 31.3226 39.7659 32.0086 41.0114 33.2541C41.1737 33.4163 41.3261 33.5864 41.4695 33.7629H31.2275ZM53.3058 33.7629H43.9955C43.5973 33.0287 43.098 32.3575 42.5029 31.7624C40.859 30.1185 38.6732 29.2131 36.3484 29.2131C34.0236 29.2131 31.8378 30.1185 30.1939 31.7624C29.5987 32.3575 29.0994 33.0287 28.7013 33.7629H26.0171L39.4526 20.3277C40.5782 21.1358 41.9058 21.5412 43.234 21.5412C44.5623 21.5412 45.8898 21.1359 47.0155 20.3277L53.9024 27.2146C52.5181 29.1429 52.3189 31.6642 53.3058 33.7629ZM55.4238 33.2562C54.5895 31.871 54.5895 30.121 55.4238 28.736L57.6839 30.9961L55.4238 33.2562ZM57.3898 34.2732L59.9212 31.7418C60.333 31.33 60.333 30.6622 59.9212 30.2502L57.1058 27.4348H60.5078C62.2525 27.4348 63.6719 28.8542 63.6719 30.5989V45.5754H60.4023V39.0364C60.4023 36.9373 59.1694 35.1214 57.3898 34.2732ZM63.6719 56.9661C63.6719 58.7107 62.2525 60.1301 60.5078 60.1301H60.4023V56.1223H63.6719V56.9661ZM67.8906 50.8489C67.8906 52.5935 66.4712 54.0129 64.7266 54.0129H45.5312C43.7866 54.0129 42.3672 52.5935 42.3672 50.8489C42.3672 49.1042 43.7866 47.6848 45.5312 47.6848H64.832C65.9756 47.6848 67.0337 47.3115 67.8906 46.6802V50.8489ZM65.7812 45.4239V39.6098C67.0044 40.0102 67.8906 41.1617 67.8906 42.5169C67.8906 43.872 67.0044 45.0235 65.7812 45.4239Z" fill="url(#paint3_linear)"/>
<path d="M46.4879 50.1032C46.2917 49.907 46.0196 49.7942 45.7422 49.7942C45.4648 49.7942 45.1927 49.9069 44.9965 50.1032C44.8004 50.2994 44.6875 50.5715 44.6875 50.8489C44.6875 51.1263 44.8004 51.3984 44.9965 51.5944C45.1927 51.7906 45.4648 51.9036 45.7422 51.9036C46.0196 51.9036 46.2917 51.7907 46.4879 51.5944C46.684 51.3984 46.7969 51.1263 46.7969 50.8489C46.7969 50.5715 46.684 50.2994 46.4879 50.1032Z" fill="#B99B55"/>
<path d="M46.4879 50.1032C46.2917 49.907 46.0196 49.7942 45.7422 49.7942C45.4648 49.7942 45.1927 49.9069 44.9965 50.1032C44.8004 50.2994 44.6875 50.5715 44.6875 50.8489C44.6875 51.1263 44.8004 51.3984 44.9965 51.5944C45.1927 51.7906 45.4648 51.9036 45.7422 51.9036C46.0196 51.9036 46.2917 51.7907 46.4879 51.5944C46.684 51.3984 46.7969 51.1263 46.7969 50.8489C46.7969 50.5715 46.684 50.2994 46.4879 50.1032Z" fill="url(#paint4_linear)"/>
<path d="M46.9626 27.2669C46.5507 26.8553 45.8829 26.8552 45.4711 27.2669L43.638 29.0999C43.2262 29.5118 43.2261 30.1796 43.638 30.5916C43.8439 30.7975 44.1138 30.9005 44.3838 30.9005C44.6537 30.9005 44.9237 30.7975 45.1296 30.5916L46.9626 28.7585C47.3745 28.3467 47.3746 27.679 46.9626 27.2669Z" fill="#B99B55"/>
<path d="M46.9626 27.2669C46.5507 26.8553 45.8829 26.8552 45.4711 27.2669L43.638 29.0999C43.2262 29.5118 43.2261 30.1796 43.638 30.5916C43.8439 30.7975 44.1138 30.9005 44.3838 30.9005C44.6537 30.9005 44.9237 30.7975 45.1296 30.5916L46.9626 28.7585C47.3745 28.3467 47.3746 27.679 46.9626 27.2669Z" fill="url(#paint5_linear)"/>
<defs>
<linearGradient id="paint0_linear" x1="36.7987" y1="67.7913" x2="38.6602" y2="66.0054" gradientUnits="userSpaceOnUse">
<stop stop-color="#FAC929"/>
<stop offset="0.5158" stop-color="#FEF8C2"/>
<stop offset="1" stop-color="#FAC929"/>
</linearGradient>
<linearGradient id="paint1_linear" x1="21.3553" y1="58.0872" x2="24.8297" y2="57.4963" gradientUnits="userSpaceOnUse">
<stop stop-color="#FAC929"/>
<stop offset="0.5158" stop-color="#FEF8C2"/>
<stop offset="1" stop-color="#FAC929"/>
</linearGradient>
<linearGradient id="paint2_linear" x1="21.3553" y1="44.568" x2="23.2168" y2="42.7821" gradientUnits="userSpaceOnUse">
<stop stop-color="#FAC929"/>
<stop offset="0.5158" stop-color="#FEF8C2"/>
<stop offset="1" stop-color="#FAC929"/>
</linearGradient>
<linearGradient id="paint3_linear" x1="23.4961" y1="64.2646" x2="71.0948" y2="18.5436" gradientUnits="userSpaceOnUse">
<stop stop-color="#FAC929"/>
<stop offset="0.5158" stop-color="#FEF8C2"/>
<stop offset="1" stop-color="#FAC929"/>
</linearGradient>
<linearGradient id="paint4_linear" x1="44.9803" y1="51.76" x2="46.8418" y2="49.9741" gradientUnits="userSpaceOnUse">
<stop stop-color="#FAC929"/>
<stop offset="0.5158" stop-color="#FEF8C2"/>
<stop offset="1" stop-color="#FAC929"/>
</linearGradient>
<linearGradient id="paint5_linear" x1="43.8764" y1="30.6322" x2="47.3554" y2="27.2944" gradientUnits="userSpaceOnUse">
<stop stop-color="#FAC929"/>
<stop offset="0.5158" stop-color="#FEF8C2"/>
<stop offset="1" stop-color="#FAC929"/>
</linearGradient>
</defs>
</svg>
