<svg width="84" height="84" viewBox="0 0 84 84" fill="none" xmlns="http://www.w3.org/2000/svg">
<circle cx="42" cy="42" r="42" fill="black"/>
<path d="M67.4483 22.3955L57.6996 18.334C56.6302 17.8886 55.4037 17.8887 54.3344 18.3341L49.6538 20.2837C49.2354 20.4581 49.0375 20.9384 49.2117 21.3568C49.386 21.7752 49.8664 21.9732 50.2849 21.7988L54.9655 19.8491C55.6334 19.5708 56.4001 19.5707 57.0686 19.849L66.8168 23.9103C67.765 24.3058 68.3778 25.1952 68.3778 26.1758V61.2696C68.3778 62.6342 67.2057 63.7444 65.765 63.7444H64.4346C63.9813 63.7444 63.614 64.1117 63.614 64.565C63.614 65.0183 63.9813 65.3856 64.4346 65.3856H65.765C68.1106 65.3856 70.019 63.5392 70.019 61.2696V26.1758C70.019 24.5307 69.01 23.0469 67.4483 22.3955V22.3955Z" fill="#B99B55"/>
<path d="M67.4483 22.3955L57.6996 18.334C56.6302 17.8886 55.4037 17.8887 54.3344 18.3341L49.6538 20.2837C49.2354 20.4581 49.0375 20.9384 49.2117 21.3568C49.386 21.7752 49.8664 21.9732 50.2849 21.7988L54.9655 19.8491C55.6334 19.5708 56.4001 19.5707 57.0686 19.849L66.8168 23.9103C67.765 24.3058 68.3778 25.1952 68.3778 26.1758V61.2696C68.3778 62.6342 67.2057 63.7444 65.765 63.7444H64.4346C63.9813 63.7444 63.614 64.1117 63.614 64.565C63.614 65.0183 63.9813 65.3856 64.4346 65.3856H65.765C68.1106 65.3856 70.019 63.5392 70.019 61.2696V26.1758C70.019 24.5307 69.01 23.0469 67.4483 22.3955V22.3955Z" fill="url(#paint0_linear)"/>
<path d="M60.8576 63.7444H47.0696C47.6373 63.0991 47.9482 62.2804 47.9482 61.4139C47.9482 60.5493 47.6351 59.7568 47.1172 59.1423C47.4438 58.9757 47.7462 58.7577 48.0132 58.4908C48.6797 57.8242 49.0467 56.9378 49.0467 55.9948C49.0467 55.0959 48.7084 54.2749 48.1531 53.651C48.428 53.4953 48.6841 53.3023 48.9134 53.0727C49.5799 52.4063 49.947 51.52 49.947 50.5767C49.947 49.6805 49.6108 48.8615 49.0587 48.2382C49.3382 48.0813 49.5986 47.8859 49.8321 47.6529C50.4982 46.9853 50.865 46.0992 50.865 45.1575C50.865 43.2106 49.2816 41.6268 47.3352 41.6268H43.6557V26.1757C43.6557 25.1949 44.2686 24.3055 45.2163 23.9102L46.7088 23.2888C47.1271 23.1146 47.3251 22.6343 47.1509 22.2158C46.9766 21.7974 46.4963 21.5991 46.0779 21.7737L44.5849 22.3953C43.0235 23.0467 42.0146 24.5306 42.0146 26.1757V41.6269H38.5859C39.7277 38.0189 39.6305 34.2536 38.2981 29.8833C38.0957 29.2215 37.693 28.6546 37.1334 28.244C36.577 27.8359 35.9177 27.6201 35.2266 27.6201C34.3362 27.6201 33.5083 27.9756 32.8951 28.6213C32.2823 29.2668 31.9703 30.1119 32.0164 31.0008C32.273 35.9349 29.997 37.6332 26.847 39.9839C25.8099 40.7577 24.6764 41.6041 23.5623 42.6421V41.5666C23.5623 41.1133 23.195 40.746 22.7418 40.746H14.8206C14.3673 40.746 14 41.1133 14 41.5666V64.8395C14 65.2928 14.3673 65.6601 14.8206 65.6601H22.742C23.1953 65.6601 23.5626 65.2928 23.5626 64.8395V62.7751C25.1211 62.9234 26.2594 63.234 27.3654 64.0816C28.0914 64.6381 28.9864 64.9445 29.8854 64.9445H44.3574C44.9487 65.2327 45.6041 65.3855 46.2686 65.3855H60.8575C61.3108 65.3855 61.6781 65.0182 61.6781 64.5649C61.6781 64.1116 61.3108 63.7444 60.8576 63.7444V63.7444ZM28.3637 62.779C26.8164 61.5933 25.1628 61.2638 23.5626 61.1256V51.5439C23.5626 51.0907 23.1953 50.7234 22.742 50.7234C22.2887 50.7234 21.9214 51.0907 21.9214 51.5439V64.019H15.6412V42.3873H21.9214V47.9685C21.9214 48.4218 22.2887 48.7891 22.742 48.7891C23.1953 48.7891 23.5626 48.4218 23.5626 47.9685V44.9734C24.9352 43.4586 26.4051 42.3617 27.8287 41.2993C30.9808 38.9473 33.9578 36.7256 33.6558 30.9156C33.6331 30.4807 33.7857 30.0673 34.0857 29.7514C34.3857 29.4353 34.791 29.2613 35.2269 29.2613C35.5664 29.2613 35.8899 29.3671 36.1627 29.5674C36.435 29.7671 36.6308 30.0424 36.7288 30.3629C38.0858 34.8143 38.0646 38.5594 36.6619 42.1491C36.5633 42.4016 36.5957 42.6865 36.7486 42.9105C36.9014 43.1345 37.1551 43.2684 37.4262 43.2684H47.3355C48.3768 43.2684 49.224 44.116 49.224 45.1579C49.224 45.6618 49.0274 46.1363 48.6717 46.4929C48.3139 46.8498 47.8395 47.0464 47.3355 47.0464H43.9645C43.5112 47.0464 43.1439 47.4137 43.1439 47.867C43.1439 48.3202 43.5112 48.6875 43.9645 48.6875H46.4175C47.4588 48.6875 48.3059 49.5352 48.3059 50.5772C48.3059 51.0819 48.1097 51.5562 47.753 51.9128C47.3965 52.2693 46.9222 52.4656 46.4175 52.4656H43.9645C43.5112 52.4656 43.1439 52.8329 43.1439 53.2862C43.1439 53.7395 43.5112 54.1068 43.9645 54.1068H45.5169C46.5583 54.1068 47.4055 54.954 47.4055 55.9952C47.4055 56.4998 47.2091 56.9743 46.8526 57.3308C46.4953 57.6882 46.0209 57.8848 45.5169 57.8848H44.4184H43.0639C42.6106 57.8848 42.2433 58.2521 42.2433 58.7054C42.2433 59.1587 42.6106 59.5259 43.0639 59.5259H44.4184C45.4598 59.5259 46.307 60.3731 46.307 61.4144C46.307 61.919 46.1104 62.3938 45.7548 62.7503C45.4215 63.0828 44.895 63.2949 44.501 63.3019C44.4738 63.3024 29.8854 63.3039 29.8854 63.3039C29.3454 63.3034 28.8049 63.1172 28.3637 62.779V62.779Z" fill="#B99B55"/>
<path d="M60.8576 63.7444H47.0696C47.6373 63.0991 47.9482 62.2804 47.9482 61.4139C47.9482 60.5493 47.6351 59.7568 47.1172 59.1423C47.4438 58.9757 47.7462 58.7577 48.0132 58.4908C48.6797 57.8242 49.0467 56.9378 49.0467 55.9948C49.0467 55.0959 48.7084 54.2749 48.1531 53.651C48.428 53.4953 48.6841 53.3023 48.9134 53.0727C49.5799 52.4063 49.947 51.52 49.947 50.5767C49.947 49.6805 49.6108 48.8615 49.0587 48.2382C49.3382 48.0813 49.5986 47.8859 49.8321 47.6529C50.4982 46.9853 50.865 46.0992 50.865 45.1575C50.865 43.2106 49.2816 41.6268 47.3352 41.6268H43.6557V26.1757C43.6557 25.1949 44.2686 24.3055 45.2163 23.9102L46.7088 23.2888C47.1271 23.1146 47.3251 22.6343 47.1509 22.2158C46.9766 21.7974 46.4963 21.5991 46.0779 21.7737L44.5849 22.3953C43.0235 23.0467 42.0146 24.5306 42.0146 26.1757V41.6269H38.5859C39.7277 38.0189 39.6305 34.2536 38.2981 29.8833C38.0957 29.2215 37.693 28.6546 37.1334 28.244C36.577 27.8359 35.9177 27.6201 35.2266 27.6201C34.3362 27.6201 33.5083 27.9756 32.8951 28.6213C32.2823 29.2668 31.9703 30.1119 32.0164 31.0008C32.273 35.9349 29.997 37.6332 26.847 39.9839C25.8099 40.7577 24.6764 41.6041 23.5623 42.6421V41.5666C23.5623 41.1133 23.195 40.746 22.7418 40.746H14.8206C14.3673 40.746 14 41.1133 14 41.5666V64.8395C14 65.2928 14.3673 65.6601 14.8206 65.6601H22.742C23.1953 65.6601 23.5626 65.2928 23.5626 64.8395V62.7751C25.1211 62.9234 26.2594 63.234 27.3654 64.0816C28.0914 64.6381 28.9864 64.9445 29.8854 64.9445H44.3574C44.9487 65.2327 45.6041 65.3855 46.2686 65.3855H60.8575C61.3108 65.3855 61.6781 65.0182 61.6781 64.5649C61.6781 64.1116 61.3108 63.7444 60.8576 63.7444V63.7444ZM28.3637 62.779C26.8164 61.5933 25.1628 61.2638 23.5626 61.1256V51.5439C23.5626 51.0907 23.1953 50.7234 22.742 50.7234C22.2887 50.7234 21.9214 51.0907 21.9214 51.5439V64.019H15.6412V42.3873H21.9214V47.9685C21.9214 48.4218 22.2887 48.7891 22.742 48.7891C23.1953 48.7891 23.5626 48.4218 23.5626 47.9685V44.9734C24.9352 43.4586 26.4051 42.3617 27.8287 41.2993C30.9808 38.9473 33.9578 36.7256 33.6558 30.9156C33.6331 30.4807 33.7857 30.0673 34.0857 29.7514C34.3857 29.4353 34.791 29.2613 35.2269 29.2613C35.5664 29.2613 35.8899 29.3671 36.1627 29.5674C36.435 29.7671 36.6308 30.0424 36.7288 30.3629C38.0858 34.8143 38.0646 38.5594 36.6619 42.1491C36.5633 42.4016 36.5957 42.6865 36.7486 42.9105C36.9014 43.1345 37.1551 43.2684 37.4262 43.2684H47.3355C48.3768 43.2684 49.224 44.116 49.224 45.1579C49.224 45.6618 49.0274 46.1363 48.6717 46.4929C48.3139 46.8498 47.8395 47.0464 47.3355 47.0464H43.9645C43.5112 47.0464 43.1439 47.4137 43.1439 47.867C43.1439 48.3202 43.5112 48.6875 43.9645 48.6875H46.4175C47.4588 48.6875 48.3059 49.5352 48.3059 50.5772C48.3059 51.0819 48.1097 51.5562 47.753 51.9128C47.3965 52.2693 46.9222 52.4656 46.4175 52.4656H43.9645C43.5112 52.4656 43.1439 52.8329 43.1439 53.2862C43.1439 53.7395 43.5112 54.1068 43.9645 54.1068H45.5169C46.5583 54.1068 47.4055 54.954 47.4055 55.9952C47.4055 56.4998 47.2091 56.9743 46.8526 57.3308C46.4953 57.6882 46.0209 57.8848 45.5169 57.8848H44.4184H43.0639C42.6106 57.8848 42.2433 58.2521 42.2433 58.7054C42.2433 59.1587 42.6106 59.5259 43.0639 59.5259H44.4184C45.4598 59.5259 46.307 60.3731 46.307 61.4144C46.307 61.919 46.1104 62.3938 45.7548 62.7503C45.4215 63.0828 44.895 63.2949 44.501 63.3019C44.4738 63.3024 29.8854 63.3039 29.8854 63.3039C29.3454 63.3034 28.8049 63.1172 28.3637 62.779V62.779Z" fill="url(#paint1_linear)"/>
<path d="M58.978 26.5405C58.978 24.8162 57.5752 23.4133 55.8508 23.4133C54.1265 23.4133 52.7236 24.8162 52.7236 26.5405C52.7236 28.2648 54.1265 29.6677 55.8508 29.6677C57.5752 29.6677 58.978 28.2648 58.978 26.5405ZM54.3648 26.5405C54.3648 25.7211 55.0314 25.0545 55.8508 25.0545C56.6702 25.0545 57.3369 25.7211 57.3369 26.5405C57.3369 27.3599 56.6702 28.0266 55.8508 28.0266C55.0314 28.0266 54.3648 27.36 54.3648 26.5405Z" fill="#B99B55"/>
<path d="M58.978 26.5405C58.978 24.8162 57.5752 23.4133 55.8508 23.4133C54.1265 23.4133 52.7236 24.8162 52.7236 26.5405C52.7236 28.2648 54.1265 29.6677 55.8508 29.6677C57.5752 29.6677 58.978 28.2648 58.978 26.5405ZM54.3648 26.5405C54.3648 25.7211 55.0314 25.0545 55.8508 25.0545C56.6702 25.0545 57.3369 25.7211 57.3369 26.5405C57.3369 27.3599 56.6702 28.0266 55.8508 28.0266C55.0314 28.0266 54.3648 27.36 54.3648 26.5405Z" fill="url(#paint2_linear)"/>
<path d="M56.3635 54.5397H54.8918C54.1167 54.5397 53.486 53.909 53.486 53.1338C53.486 52.6805 53.1187 52.3132 52.6654 52.3132C52.2121 52.3132 51.8448 52.6805 51.8448 53.1338C51.8448 54.7856 53.1661 56.1335 54.807 56.1787V57.9947C54.807 58.448 55.1743 58.8153 55.6276 58.8153C56.0809 58.8153 56.4482 58.448 56.4482 57.9947V56.1787C58.0893 56.1335 59.4105 54.7856 59.4105 53.1338V51.9978C59.4105 50.9438 58.7371 50.017 57.7347 49.6912L54.0278 48.4871C53.7037 48.3817 53.486 48.0822 53.486 47.7415V46.1148C53.486 45.4853 53.9982 44.973 54.6277 44.973H56.6278C57.2573 44.973 57.7695 45.4853 57.7695 46.1148C57.7695 46.5681 58.1368 46.9354 58.59 46.9354C59.0433 46.9354 59.4106 46.5681 59.4106 46.1148C59.4106 44.5803 58.1622 43.3319 56.6278 43.3319H56.4482V41.518C56.4482 41.0647 56.0809 40.6974 55.6276 40.6974C55.1743 40.6974 54.807 41.0647 54.807 41.518V43.3319H54.6276C53.0932 43.3319 51.8447 44.5802 51.8447 46.1148V47.7415C51.8447 48.7954 52.5182 49.7222 53.5206 50.048L57.2273 51.252C57.5515 51.3574 57.7692 51.6571 57.7692 51.9978V53.1338C57.7695 53.909 57.1387 54.5397 56.3635 54.5397V54.5397Z" fill="#B99B55"/>
<path d="M56.3635 54.5397H54.8918C54.1167 54.5397 53.486 53.909 53.486 53.1338C53.486 52.6805 53.1187 52.3132 52.6654 52.3132C52.2121 52.3132 51.8448 52.6805 51.8448 53.1338C51.8448 54.7856 53.1661 56.1335 54.807 56.1787V57.9947C54.807 58.448 55.1743 58.8153 55.6276 58.8153C56.0809 58.8153 56.4482 58.448 56.4482 57.9947V56.1787C58.0893 56.1335 59.4105 54.7856 59.4105 53.1338V51.9978C59.4105 50.9438 58.7371 50.017 57.7347 49.6912L54.0278 48.4871C53.7037 48.3817 53.486 48.0822 53.486 47.7415V46.1148C53.486 45.4853 53.9982 44.973 54.6277 44.973H56.6278C57.2573 44.973 57.7695 45.4853 57.7695 46.1148C57.7695 46.5681 58.1368 46.9354 58.59 46.9354C59.0433 46.9354 59.4106 46.5681 59.4106 46.1148C59.4106 44.5803 58.1622 43.3319 56.6278 43.3319H56.4482V41.518C56.4482 41.0647 56.0809 40.6974 55.6276 40.6974C55.1743 40.6974 54.807 41.0647 54.807 41.518V43.3319H54.6276C53.0932 43.3319 51.8447 44.5802 51.8447 46.1148V47.7415C51.8447 48.7954 52.5182 49.7222 53.5206 50.048L57.2273 51.252C57.5515 51.3574 57.7692 51.6571 57.7692 51.9978V53.1338C57.7695 53.909 57.1387 54.5397 56.3635 54.5397V54.5397Z" fill="url(#paint3_linear)"/>
<defs>
<linearGradient id="paint0_linear" x1="52.0456" y1="62.1609" x2="82.0571" y2="49.4794" gradientUnits="userSpaceOnUse">
<stop stop-color="#FAC929"/>
<stop offset="0.5158" stop-color="#FEF8C2"/>
<stop offset="1" stop-color="#FAC929"/>
</linearGradient>
<linearGradient id="paint1_linear" x1="20.6185" y1="62.6692" x2="59.4056" y2="22.3004" gradientUnits="userSpaceOnUse">
<stop stop-color="#FAC929"/>
<stop offset="0.5158" stop-color="#FEF8C2"/>
<stop offset="1" stop-color="#FAC929"/>
</linearGradient>
<linearGradient id="paint2_linear" x1="53.5918" y1="29.2421" x2="59.1112" y2="23.9469" gradientUnits="userSpaceOnUse">
<stop stop-color="#FAC929"/>
<stop offset="0.5158" stop-color="#FEF8C2"/>
<stop offset="1" stop-color="#FAC929"/>
</linearGradient>
<linearGradient id="paint3_linear" x1="52.895" y1="57.5824" x2="63.9438" y2="53.1558" gradientUnits="userSpaceOnUse">
<stop stop-color="#FAC929"/>
<stop offset="0.5158" stop-color="#FEF8C2"/>
<stop offset="1" stop-color="#FAC929"/>
</linearGradient>
</defs>
</svg>
