<svg width="84" height="84" viewBox="0 0 84 84" fill="none" xmlns="http://www.w3.org/2000/svg">
<circle cx="42" cy="42" r="42" fill="black"/>
<path d="M15 65.3451L15.713 66.9499L41.2969 56.3417L45.754 56.8766L47.3584 61.7794L45.2191 63.83C44.4169 64.5429 44.1497 65.7016 44.5954 66.7715L45.4868 69L60.284 63.2058L59.4818 61.0665C59.1254 59.9966 58.1447 59.3728 56.986 59.3728H54.0441L52.4397 55.5395L56.3619 53.5786C57.6098 52.9544 58.1447 51.5281 57.699 50.2802L52.6182 36.6416C52.0832 35.2152 50.5676 34.5911 49.1413 35.0368C49.1413 35.0368 49.0525 35.0368 49.0525 35.126L45.3083 36.7304L44.7734 35.3933L46.8239 32.9867C48.2498 31.3819 49.1413 29.421 49.409 27.2817L51.994 24.1617C53.6876 22.2004 53.3311 19.2589 51.3698 17.5648C51.0133 17.2976 50.6569 17.0303 50.3004 16.8519C49.3197 16.4062 48.3391 16.3169 47.2696 16.5846L47.0019 15.782C46.5562 14.3561 44.9519 13.6427 43.6147 14.1776L24.8056 20.9525C23.3793 21.4874 22.6663 23.0026 23.2013 24.3397V24.4289L23.647 25.5876C21.3292 26.6575 20.2593 29.3318 21.0615 31.6495C21.6857 33.4324 23.29 34.6803 25.1621 34.9475L29.352 35.3933C31.0456 36.6416 33.0957 37.4438 35.1462 37.6218L38.0877 37.8895L38.6227 39.2266C37.9985 39.5831 37.5528 40.2073 37.3748 41.0095L36.7506 44.0402L15 52.8652L15.6242 54.5588L28.1041 49.5672L31.1348 58.6594L15 65.3451ZM57.699 61.6014L57.8775 62.1359L46.467 66.6822L46.1998 66.1473C46.1105 65.7908 46.1998 65.4343 46.3782 65.1671L49.409 62.3144L53.2419 61.0665H56.8076C57.2533 61.0665 57.521 61.2445 57.699 61.6014V61.6014ZM52.0832 59.4616L48.874 60.5315L47.7153 57.1443C48.2498 57.2331 48.6956 57.1443 49.1413 56.8766L50.6569 56.1636L52.0832 59.4616ZM49.6762 36.4631C50.1219 36.2847 50.6569 36.4631 50.8353 36.9088L51.5483 38.7809L47.1804 40.2073L47.7153 41.9009L52.0832 40.4745L53.1527 43.3273L48.9632 44.7532L49.4982 46.4472L53.7768 45.0209L54.8467 47.8732L50.7461 49.2103L51.281 50.9043L55.4705 49.478L55.9162 50.6367C56.0946 51.0824 55.9162 51.5281 55.4705 51.7065L48.4283 55.183C48.2498 55.2722 48.0718 55.2722 47.8934 55.2722L41.8319 54.5588L38.5334 44.6644L39.1576 41.366C39.2468 41.0987 39.4249 40.831 39.6926 40.7418L49.6762 36.4631ZM49.587 18.4562C51.0133 19.0804 51.7267 20.774 51.1026 22.2896C51.0133 22.5569 50.8353 22.7353 50.6569 23.0026L49.587 24.3397C49.4982 23.4483 49.3197 22.6461 49.0525 21.7547L47.8934 18.2782C48.5175 18.189 49.0525 18.2782 49.587 18.4562V18.4562ZM22.8443 31.2038C22.3098 29.6882 22.9336 28.0839 24.3599 27.3705L25.6078 30.4016C26.0535 31.4711 26.6777 32.541 27.3907 33.4324L25.5186 33.2539C24.2707 33.1647 23.2013 32.3625 22.8443 31.2038ZM35.5027 35.9282C31.8478 35.5717 28.6386 33.2539 27.3014 29.7775L24.9841 23.894C24.8056 23.4483 24.9841 22.9134 25.4298 22.7353L44.2385 15.9604C44.5061 15.8712 44.6842 15.8712 44.9519 15.9604C45.1299 16.0497 45.3083 16.2277 45.3976 16.4954L47.3584 22.3788C48.4283 25.6768 47.7153 29.2425 45.4868 31.8276L42.7233 35.0368L43.5255 37.1761L40.3163 38.5132L39.4249 36.2847L35.5027 35.9282ZM29.7977 48.8538L31.8478 48.0516L34.0763 54.8265L35.7699 54.2916L33.4526 47.3387L37.0183 45.9123L40.049 54.9157L32.8284 57.9465L29.7977 48.8538Z" fill="#B99B55"/>
<path d="M15 65.3451L15.713 66.9499L41.2969 56.3417L45.754 56.8766L47.3584 61.7794L45.2191 63.83C44.4169 64.5429 44.1497 65.7016 44.5954 66.7715L45.4868 69L60.284 63.2058L59.4818 61.0665C59.1254 59.9966 58.1447 59.3728 56.986 59.3728H54.0441L52.4397 55.5395L56.3619 53.5786C57.6098 52.9544 58.1447 51.5281 57.699 50.2802L52.6182 36.6416C52.0832 35.2152 50.5676 34.5911 49.1413 35.0368C49.1413 35.0368 49.0525 35.0368 49.0525 35.126L45.3083 36.7304L44.7734 35.3933L46.8239 32.9867C48.2498 31.3819 49.1413 29.421 49.409 27.2817L51.994 24.1617C53.6876 22.2004 53.3311 19.2589 51.3698 17.5648C51.0133 17.2976 50.6569 17.0303 50.3004 16.8519C49.3197 16.4062 48.3391 16.3169 47.2696 16.5846L47.0019 15.782C46.5562 14.3561 44.9519 13.6427 43.6147 14.1776L24.8056 20.9525C23.3793 21.4874 22.6663 23.0026 23.2013 24.3397V24.4289L23.647 25.5876C21.3292 26.6575 20.2593 29.3318 21.0615 31.6495C21.6857 33.4324 23.29 34.6803 25.1621 34.9475L29.352 35.3933C31.0456 36.6416 33.0957 37.4438 35.1462 37.6218L38.0877 37.8895L38.6227 39.2266C37.9985 39.5831 37.5528 40.2073 37.3748 41.0095L36.7506 44.0402L15 52.8652L15.6242 54.5588L28.1041 49.5672L31.1348 58.6594L15 65.3451ZM57.699 61.6014L57.8775 62.1359L46.467 66.6822L46.1998 66.1473C46.1105 65.7908 46.1998 65.4343 46.3782 65.1671L49.409 62.3144L53.2419 61.0665H56.8076C57.2533 61.0665 57.521 61.2445 57.699 61.6014V61.6014ZM52.0832 59.4616L48.874 60.5315L47.7153 57.1443C48.2498 57.2331 48.6956 57.1443 49.1413 56.8766L50.6569 56.1636L52.0832 59.4616ZM49.6762 36.4631C50.1219 36.2847 50.6569 36.4631 50.8353 36.9088L51.5483 38.7809L47.1804 40.2073L47.7153 41.9009L52.0832 40.4745L53.1527 43.3273L48.9632 44.7532L49.4982 46.4472L53.7768 45.0209L54.8467 47.8732L50.7461 49.2103L51.281 50.9043L55.4705 49.478L55.9162 50.6367C56.0946 51.0824 55.9162 51.5281 55.4705 51.7065L48.4283 55.183C48.2498 55.2722 48.0718 55.2722 47.8934 55.2722L41.8319 54.5588L38.5334 44.6644L39.1576 41.366C39.2468 41.0987 39.4249 40.831 39.6926 40.7418L49.6762 36.4631ZM49.587 18.4562C51.0133 19.0804 51.7267 20.774 51.1026 22.2896C51.0133 22.5569 50.8353 22.7353 50.6569 23.0026L49.587 24.3397C49.4982 23.4483 49.3197 22.6461 49.0525 21.7547L47.8934 18.2782C48.5175 18.189 49.0525 18.2782 49.587 18.4562V18.4562ZM22.8443 31.2038C22.3098 29.6882 22.9336 28.0839 24.3599 27.3705L25.6078 30.4016C26.0535 31.4711 26.6777 32.541 27.3907 33.4324L25.5186 33.2539C24.2707 33.1647 23.2013 32.3625 22.8443 31.2038ZM35.5027 35.9282C31.8478 35.5717 28.6386 33.2539 27.3014 29.7775L24.9841 23.894C24.8056 23.4483 24.9841 22.9134 25.4298 22.7353L44.2385 15.9604C44.5061 15.8712 44.6842 15.8712 44.9519 15.9604C45.1299 16.0497 45.3083 16.2277 45.3976 16.4954L47.3584 22.3788C48.4283 25.6768 47.7153 29.2425 45.4868 31.8276L42.7233 35.0368L43.5255 37.1761L40.3163 38.5132L39.4249 36.2847L35.5027 35.9282ZM29.7977 48.8538L31.8478 48.0516L34.0763 54.8265L35.7699 54.2916L33.4526 47.3387L37.0183 45.9123L40.049 54.9157L32.8284 57.9465L29.7977 48.8538Z" fill="url(#paint0_linear)"/>
<path d="M59.0357 29.599V30.4904H60.8186V29.599C60.8186 27.1032 62.7799 25.1419 65.2757 25.1419V23.359C62.7799 23.359 60.8186 21.3982 60.8186 18.9019V18.0105H59.0357V18.9019C59.0357 21.3982 57.0749 23.359 54.5786 23.359V25.1419C57.0749 25.1419 59.0357 27.1032 59.0357 29.599ZM59.9271 22.1111C60.4621 23.0025 61.175 23.7159 62.0665 24.2504C61.175 24.7854 60.4621 25.4988 59.9271 26.3902C59.3922 25.4988 58.6792 24.7854 57.7878 24.2504C58.6792 23.7159 59.3922 23.0025 59.9271 22.1111V22.1111Z" fill="#B99B55"/>
<path d="M59.0357 29.599V30.4904H60.8186V29.599C60.8186 27.1032 62.7799 25.1419 65.2757 25.1419V23.359C62.7799 23.359 60.8186 21.3982 60.8186 18.9019V18.0105H59.0357V18.9019C59.0357 21.3982 57.0749 23.359 54.5786 23.359V25.1419C57.0749 25.1419 59.0357 27.1032 59.0357 29.599ZM59.9271 22.1111C60.4621 23.0025 61.175 23.7159 62.0665 24.2504C61.175 24.7854 60.4621 25.4988 59.9271 26.3902C59.3922 25.4988 58.6792 24.7854 57.7878 24.2504C58.6792 23.7159 59.3922 23.0025 59.9271 22.1111V22.1111Z" fill="url(#paint1_linear)"/>
<path d="M19.8131 47.4275V48.3189H21.5959V47.4275C21.5959 44.9317 23.5572 42.9704 26.053 42.9704V41.1875C23.5572 41.1875 21.5959 39.2267 21.5959 36.7304V35.839H19.8131V36.7304C19.8131 39.2267 17.8522 41.1875 15.356 41.1875V42.9704C17.8522 42.9704 19.8131 44.9317 19.8131 47.4275ZM20.7045 39.9396C21.2394 40.831 21.9524 41.5444 22.8438 42.0789C21.9524 42.6139 21.2394 43.3273 20.7045 44.2187C20.1695 43.3273 19.4566 42.6139 18.5652 42.0789C19.4566 41.5444 20.1695 40.831 20.7045 39.9396Z" fill="#B99B55"/>
<path d="M19.8131 47.4275V48.3189H21.5959V47.4275C21.5959 44.9317 23.5572 42.9704 26.053 42.9704V41.1875C23.5572 41.1875 21.5959 39.2267 21.5959 36.7304V35.839H19.8131V36.7304C19.8131 39.2267 17.8522 41.1875 15.356 41.1875V42.9704C17.8522 42.9704 19.8131 44.9317 19.8131 47.4275ZM20.7045 39.9396C21.2394 40.831 21.9524 41.5444 22.8438 42.0789C21.9524 42.6139 21.2394 43.3273 20.7045 44.2187C20.1695 43.3273 19.4566 42.6139 18.5652 42.0789C19.4566 41.5444 20.1695 40.831 20.7045 39.9396Z" fill="url(#paint2_linear)"/>
<path d="M64.3845 36.7304V35.839H62.6016V36.7304C62.6016 39.2267 60.6408 41.1875 58.1445 41.1875V42.9704C60.6408 42.9704 62.6016 44.9317 62.6016 47.4275V48.3189H64.3845V47.4275C64.3845 44.9317 66.3458 42.9704 68.8416 42.9704V41.1875C66.3458 41.1875 64.3845 39.2267 64.3845 36.7304ZM63.4931 44.2187C62.9581 43.3273 62.2452 42.6139 61.3537 42.0789C62.2452 41.5444 62.9581 40.831 63.4931 39.9396C64.028 40.831 64.741 41.5444 65.6324 42.0789C64.741 42.6139 64.028 43.3273 63.4931 44.2187V44.2187Z" fill="#B99B55"/>
<path d="M64.3845 36.7304V35.839H62.6016V36.7304C62.6016 39.2267 60.6408 41.1875 58.1445 41.1875V42.9704C60.6408 42.9704 62.6016 44.9317 62.6016 47.4275V48.3189H64.3845V47.4275C64.3845 44.9317 66.3458 42.9704 68.8416 42.9704V41.1875C66.3458 41.1875 64.3845 39.2267 64.3845 36.7304ZM63.4931 44.2187C62.9581 43.3273 62.2452 42.6139 61.3537 42.0789C62.2452 41.5444 62.9581 40.831 63.4931 39.9396C64.028 40.831 64.741 41.5444 65.6324 42.0789C64.741 42.6139 64.028 43.3273 63.4931 44.2187V44.2187Z" fill="url(#paint3_linear)"/>
<path d="M41.4758 29.8668L42.7237 31.1147C47.6265 26.2118 43.0802 18.724 42.813 18.4563L41.2974 19.4369C41.3866 19.4369 45.398 25.9446 41.4758 29.8668Z" fill="#B99B55"/>
<path d="M41.4758 29.8668L42.7237 31.1147C47.6265 26.2118 43.0802 18.724 42.813 18.4563L41.2974 19.4369C41.3866 19.4369 45.398 25.9446 41.4758 29.8668Z" fill="url(#paint4_linear)"/>
<defs>
<linearGradient id="paint0_linear" x1="21.2862" y1="65.2572" x2="68.5439" y2="27.9277" gradientUnits="userSpaceOnUse">
<stop stop-color="#FAC929"/>
<stop offset="0.5158" stop-color="#FEF8C2"/>
<stop offset="1" stop-color="#FAC929"/>
</linearGradient>
<linearGradient id="paint1_linear" x1="56.0635" y1="29.6411" x2="66.8787" y2="20.7474" gradientUnits="userSpaceOnUse">
<stop stop-color="#FAC929"/>
<stop offset="0.5158" stop-color="#FEF8C2"/>
<stop offset="1" stop-color="#FAC929"/>
</linearGradient>
<linearGradient id="paint2_linear" x1="16.8409" y1="47.4696" x2="27.656" y2="38.5759" gradientUnits="userSpaceOnUse">
<stop stop-color="#FAC929"/>
<stop offset="0.5158" stop-color="#FEF8C2"/>
<stop offset="1" stop-color="#FAC929"/>
</linearGradient>
<linearGradient id="paint3_linear" x1="59.6295" y1="47.4696" x2="70.4446" y2="38.5759" gradientUnits="userSpaceOnUse">
<stop stop-color="#FAC929"/>
<stop offset="0.5158" stop-color="#FEF8C2"/>
<stop offset="1" stop-color="#FAC929"/>
</linearGradient>
<linearGradient id="paint4_linear" x1="41.8097" y1="30.2532" x2="47.6103" y2="28.6308" gradientUnits="userSpaceOnUse">
<stop stop-color="#FAC929"/>
<stop offset="0.5158" stop-color="#FEF8C2"/>
<stop offset="1" stop-color="#FAC929"/>
</linearGradient>
</defs>
</svg>
