<svg width="30" height="30" viewBox="0 0 30 30" fill="none" xmlns="http://www.w3.org/2000/svg">
<path d="M29.2037 10.2946L19.7041 0.795176C19.1913 0.282422 18.5074 0 17.7784 0C17.0494 0 16.3655 0.282305 15.8527 0.795059L0.795176 15.8527C0.282422 16.3655 0 17.0493 0 17.7783C0 18.5073 0.282422 19.1912 0.795176 19.7039L1.96658 20.8753C1.9667 20.8754 1.96676 20.8755 1.96688 20.8756C1.96699 20.8757 1.96711 20.8758 1.96723 20.876L9.83988 28.7486H8.7498C8.40469 28.7486 8.12484 29.0284 8.12484 29.3736C8.12484 29.7187 8.40469 29.9985 8.7498 29.9985H12.2179C12.2187 29.9985 12.2195 29.9986 12.2203 29.9986C12.2211 29.9986 12.2219 29.9985 12.2227 29.9985L21.2493 29.9987C21.5944 29.9987 21.8742 29.7188 21.8742 29.3737C21.8742 29.0285 21.5944 28.7487 21.2493 28.7487L14.601 28.7486L29.2037 14.1459C30.2654 13.084 30.2654 11.3563 29.2037 10.2946ZM28.3198 13.2621L13.2622 28.3197C12.986 28.5958 12.6169 28.748 12.2226 28.7486H12.2179C11.8237 28.748 11.4547 28.5958 11.1786 28.3197L3.29268 20.4337L17.7533 5.97293C17.9974 5.72889 17.9974 5.33314 17.7533 5.0891C17.5092 4.84506 17.1136 4.84506 16.8694 5.08916L2.40879 19.5499L1.67895 18.8201C1.40232 18.5435 1.24998 18.1735 1.24998 17.7783C1.24998 17.3832 1.40232 17.0132 1.679 16.7365L16.7365 1.67895C17.0132 1.40232 17.3832 1.24998 17.7784 1.24998C18.1736 1.24998 18.5436 1.40232 18.8203 1.679L22.2013 5.05998L7.74047 19.5209C7.49643 19.7649 7.49643 20.1606 7.74047 20.4048C7.86252 20.5268 8.02248 20.5878 8.18238 20.5878C8.34229 20.5878 8.50225 20.5267 8.6243 20.4047L23.0851 5.94387L28.3198 11.1784C28.8942 11.7529 28.8942 12.6876 28.3198 13.2621Z" fill="white"/>
<path d="M15.3985 18.0492C15.1545 17.8052 14.7588 17.8052 14.5146 18.0492L9.59661 22.9672C9.35256 23.2112 9.35256 23.6069 9.59661 23.8511C9.71866 23.9731 9.87862 24.0341 10.0385 24.0341C10.1984 24.0341 10.3584 23.973 10.4804 23.8511L15.3984 18.9331C15.6425 18.6889 15.6425 18.2933 15.3985 18.0492Z" fill="white"/>
<path d="M13.3813 22.7175L11.3642 24.7346C11.1201 24.9786 11.1201 25.3744 11.3642 25.6185C11.4862 25.7405 11.6462 25.8015 11.8061 25.8015C11.9661 25.8015 12.126 25.7405 12.248 25.6185L14.2651 23.6014C14.5091 23.3573 14.5091 22.9616 14.2651 22.7175C14.0211 22.4734 13.6255 22.4734 13.3813 22.7175Z" fill="white"/>
<path d="M15.2378 20.8617L14.9726 21.1268C14.7285 21.3708 14.7285 21.7665 14.9726 22.0107C15.0946 22.1327 15.2546 22.1938 15.4145 22.1938C15.5744 22.1938 15.7344 22.1327 15.8563 22.0107L16.1215 21.7456C16.3656 21.5016 16.3656 21.1059 16.1215 20.8618C15.8776 20.6177 15.4818 20.6177 15.2378 20.8617Z" fill="white"/>
<path d="M23.8518 9.5954C23.7347 9.47821 23.5757 9.41235 23.4099 9.41235C23.2442 9.41235 23.0853 9.47821 22.968 9.5954L20.3163 12.247C20.1992 12.3642 20.1333 12.5232 20.1333 12.6889C20.1333 12.8547 20.1992 13.0136 20.3163 13.1308L22.0841 14.8984C22.2062 15.0205 22.3661 15.0815 22.526 15.0815C22.6861 15.0815 22.8459 15.0204 22.968 14.8984L25.6195 12.2469C25.8635 12.0029 25.8635 11.6072 25.6195 11.3631L23.8518 9.5954ZM22.526 13.5727L21.6421 12.6889L23.4099 10.9212L24.2937 11.8051L22.526 13.5727Z" fill="white"/>
<path d="M18.77 4.69659C18.93 4.69659 19.09 4.63553 19.212 4.51342L19.4771 4.24817C19.7211 4.00407 19.721 3.60833 19.4769 3.36434C19.2329 3.12036 18.8371 3.12041 18.5931 3.36452L18.328 3.62977C18.084 3.87387 18.084 4.26962 18.3281 4.5136C18.4502 4.63565 18.61 4.69659 18.77 4.69659Z" fill="white"/>
<path d="M6.28215 20.9782L6.01702 21.2434C5.77297 21.4874 5.77297 21.8831 6.01702 22.1273C6.13907 22.2493 6.29903 22.3103 6.45893 22.3103C6.61883 22.3103 6.77879 22.2493 6.90085 22.1273L7.16598 21.8621C7.41003 21.618 7.41003 21.2223 7.16598 20.9782C6.92188 20.7341 6.52626 20.7341 6.28215 20.9782Z" fill="white"/>
</svg>
