<svg width="64" height="64" viewBox="0 0 64 64" fill="none" xmlns="http://www.w3.org/2000/svg">
<path d="M0 32C0 38.329 1.87677 44.5159 5.39297 49.7782C8.90918 55.0406 13.9069 59.1421 19.7541 61.5641C25.6014 63.9861 32.0355 64.6199 38.2429 63.3851C44.4503 62.1504 50.1521 59.1027 54.6274 54.6274C59.1027 50.1521 62.1504 44.4503 63.3851 38.2429C64.6199 32.0355 63.9861 25.6014 61.5641 19.7541C59.1421 13.9069 55.0406 8.90918 49.7782 5.39297C44.5159 1.87677 38.329 0 32 0C23.5131 0 15.3737 3.37142 9.37258 9.37258C3.37142 15.3737 0 23.5131 0 32V32Z" fill="#B99B55"/>
<path d="M0 32C0 38.329 1.87677 44.5159 5.39297 49.7782C8.90918 55.0406 13.9069 59.1421 19.7541 61.5641C25.6014 63.9861 32.0355 64.6199 38.2429 63.3851C44.4503 62.1504 50.1521 59.1027 54.6274 54.6274C59.1027 50.1521 62.1504 44.4503 63.3851 38.2429C64.6199 32.0355 63.9861 25.6014 61.5641 19.7541C59.1421 13.9069 55.0406 8.90918 49.7782 5.39297C44.5159 1.87677 38.329 0 32 0C23.5131 0 15.3737 3.37142 9.37258 9.37258C3.37142 15.3737 0 23.5131 0 32V32Z" fill="url(#paint0_linear)"/>
<path d="M46.52 20H17.48C16.6626 20 16 20.6626 16 21.48V42.7C16 43.5174 16.6626 44.18 17.48 44.18H46.52C47.3374 44.18 48 43.5174 48 42.7V21.48C48 20.6626 47.3374 20 46.52 20Z" stroke="black" stroke-width="2" stroke-miterlimit="10"/>
<path d="M47.4396 20.83L36.5296 32.54C35.9441 33.1532 35.2404 33.6413 34.4609 33.9748C33.6814 34.3083 32.8424 34.4802 31.9946 34.4802C31.1467 34.4802 30.3077 34.3083 29.5283 33.9748C28.7488 33.6413 28.045 33.1532 27.4596 32.54L16.5596 20.84" stroke="black" stroke-width="2" stroke-linejoin="round"/>
<path d="M38.1904 30.75L47.1504 43.51" stroke="black" stroke-width="2" stroke-linejoin="round"/>
<path d="M25.9802 30.88L16.7002 43.51" stroke="black" stroke-width="2" stroke-linejoin="round"/>
<defs>
<linearGradient id="paint0_linear" x1="8.88427" y1="59.6447" x2="65.3628" y2="5.4595" gradientUnits="userSpaceOnUse">
<stop stop-color="#FAC929"/>
<stop offset="0.5158" stop-color="#FEF8C2"/>
<stop offset="1" stop-color="#FAC929"/>
</linearGradient>
</defs>
</svg>
