<svg width="64" height="64" viewBox="0 0 64 64" fill="none" xmlns="http://www.w3.org/2000/svg">
<path d="M0 32C0 38.329 1.87677 44.5159 5.39297 49.7782C8.90918 55.0406 13.9069 59.1421 19.7541 61.5641C25.6014 63.9861 32.0355 64.6199 38.2429 63.3851C44.4503 62.1504 50.1521 59.1027 54.6274 54.6274C59.1027 50.1521 62.1504 44.4503 63.3851 38.2429C64.6199 32.0355 63.9861 25.6014 61.5641 19.7541C59.1421 13.9069 55.0406 8.90918 49.7782 5.39297C44.5159 1.87677 38.329 0 32 0C23.5131 0 15.3737 3.37142 9.37258 9.37258C3.37142 15.3737 0 23.5131 0 32Z" fill="#B99B55"/>
<path d="M0 32C0 38.329 1.87677 44.5159 5.39297 49.7782C8.90918 55.0406 13.9069 59.1421 19.7541 61.5641C25.6014 63.9861 32.0355 64.6199 38.2429 63.3851C44.4503 62.1504 50.1521 59.1027 54.6274 54.6274C59.1027 50.1521 62.1504 44.4503 63.3851 38.2429C64.6199 32.0355 63.9861 25.6014 61.5641 19.7541C59.1421 13.9069 55.0406 8.90918 49.7782 5.39297C44.5159 1.87677 38.329 0 32 0C23.5131 0 15.3737 3.37142 9.37258 9.37258C3.37142 15.3737 0 23.5131 0 32Z" fill="url(#paint0_linear)"/>
<path d="M45.7998 30.706V32.008C45.7981 35.027 44.8205 37.9646 43.0129 40.3826C41.2052 42.8006 38.6644 44.5695 35.7693 45.4255C32.8742 46.2815 29.78 46.1787 26.9481 45.1324C24.1162 44.0862 21.6983 42.1526 20.0551 39.6199C18.412 37.0873 17.6315 34.0913 17.8302 31.0789C18.0288 28.0664 19.1959 25.1989 21.1574 22.9039C23.1189 20.609 25.7697 19.0095 28.7145 18.3442C31.6592 17.6789 34.7402 17.9833 37.4978 19.212" stroke="black" stroke-width="2" stroke-linecap="round" stroke-linejoin="round"/>
<path d="M47.1996 19.4082L31.7996 34.8082L27.5996 30.6082" stroke="black" stroke-width="2" stroke-linecap="round" stroke-linejoin="round"/>
<defs>
<linearGradient id="paint0_linear" x1="8.88427" y1="59.6447" x2="65.3628" y2="5.4595" gradientUnits="userSpaceOnUse">
<stop stop-color="#FAC929"/>
<stop offset="0.5158" stop-color="#FEF8C2"/>
<stop offset="1" stop-color="#FAC929"/>
</linearGradient>
</defs>
</svg>
