<svg width="28" height="28" viewBox="0 0 28 28" fill="none" xmlns="http://www.w3.org/2000/svg">
<path d="M14 28C21.7584 28 28 21.7584 28 14C28 6.24162 21.7584 0 14 0C6.24162 0 0 6.24162 0 14C0 21.7584 6.24162 28 14 28Z" fill="#2775CA"/>
<path d="M17.8498 16.2167C17.8498 14.1751 16.6248 13.4751 14.1748 13.1835C12.4248 12.9501 12.0748 12.4835 12.0748 11.6667C12.0748 10.8499 12.6582 10.3251 13.8248 10.3251C14.8748 10.3251 15.4582 10.6751 15.7498 11.5501C15.8082 11.7251 15.9832 11.8417 16.1582 11.8417H17.0914C17.3248 11.8417 17.4998 11.6667 17.4998 11.4335V11.3751C17.2664 10.0917 16.2164 9.10008 14.8748 8.98346V7.58346C14.8748 7.35008 14.6998 7.17508 14.4082 7.1167H13.5332C13.2998 7.1167 13.1248 7.2917 13.0664 7.58346V8.92508C11.3164 9.15846 10.2082 10.3251 10.2082 11.7835C10.2082 13.7085 11.3748 14.4667 13.8248 14.7585C15.4582 15.0501 15.9832 15.4001 15.9832 16.3335C15.9832 17.2668 15.1664 17.9085 14.0582 17.9085C12.5414 17.9085 12.0164 17.2667 11.8414 16.3917C11.7832 16.1585 11.6082 16.0417 11.4332 16.0417H10.4414C10.2082 16.0417 10.0332 16.2167 10.0332 16.4501V16.5085C10.2664 17.9667 11.1998 19.0167 13.1248 19.3085V20.7085C13.1248 20.9417 13.2998 21.1167 13.5914 21.1751H14.4664C14.6998 21.1751 14.8748 21.0001 14.9332 20.7085V19.3085C16.6832 19.0167 17.8498 17.7917 17.8498 16.2167Z" fill="white"/>
<path d="M11.0252 22.3415C6.47516 20.7083 4.14178 15.6333 5.83354 11.1415C6.70854 8.69149 8.63354 6.82487 11.0252 5.94987C11.2585 5.83325 11.3752 5.65825 11.3752 5.36649V4.54987C11.3752 4.31649 11.2585 4.14149 11.0252 4.08325C10.9668 4.08325 10.8502 4.08325 10.7918 4.14149C5.25016 5.89149 2.21678 11.7833 3.96678 17.3249C5.01678 20.5915 7.52516 23.0999 10.7918 24.1499C11.0252 24.2665 11.2585 24.1499 11.3168 23.9165C11.3752 23.8583 11.3752 23.7999 11.3752 23.6833V22.8665C11.3752 22.6915 11.2002 22.4583 11.0252 22.3415ZM17.2085 4.14149C16.9752 4.02487 16.7418 4.14149 16.6835 4.37487C16.6252 4.43325 16.6252 4.49149 16.6252 4.60825V5.42487C16.6252 5.65825 16.8002 5.89149 16.9752 6.00825C21.5252 7.64149 23.8585 12.7165 22.1668 17.2083C21.2918 19.6583 19.3668 21.5249 16.9752 22.3999C16.7418 22.5165 16.6252 22.6915 16.6252 22.9833V23.7999C16.6252 24.0333 16.7418 24.2083 16.9752 24.2665C17.0335 24.2665 17.1502 24.2665 17.2085 24.2083C22.7502 22.4583 25.7835 16.5665 24.0335 11.0249C22.9835 7.69987 20.4168 5.19149 17.2085 4.14149Z" fill="white"/>
</svg>
