<svg width="121" height="41" viewBox="0 0 121 41" fill="none" xmlns="http://www.w3.org/2000/svg">
<path d="M82.0267 19.301V21.592H80.5906V23.0944H82.0267V28.1994C82.0267 29.9426 82.8152 30.6398 84.7991 30.6398C85.1478 30.6398 85.4798 30.5983 85.7703 30.5485V29.0627C85.5213 29.0876 85.3636 29.1042 85.0896 29.1042C84.2015 29.1042 83.8113 28.6891 83.8113 27.7429V23.0944H85.7703V21.592H83.8113V19.301H82.0267Z" fill="white"/>
<path d="M90.8242 30.7643C93.4638 30.7643 95.0825 28.9963 95.0825 26.0661C95.0825 23.1525 93.4555 21.3762 90.8242 21.3762C88.1845 21.3762 86.5576 23.1525 86.5576 26.0661C86.5576 28.9963 88.1762 30.7643 90.8242 30.7643ZM90.8242 29.1789C89.2719 29.1789 88.4003 28.0417 88.4003 26.0661C88.4003 24.1071 89.2719 22.9616 90.8242 22.9616C92.3681 22.9616 93.248 24.1071 93.248 26.0661C93.248 28.0334 92.3681 29.1789 90.8242 29.1789Z" fill="white"/>
<path d="M96.4674 30.59H98.252V25.2526C98.252 23.9826 99.2066 23.1276 100.56 23.1276C100.875 23.1276 101.406 23.1857 101.556 23.2355V21.4758C101.365 21.426 101.024 21.4011 100.759 21.4011C99.5802 21.4011 98.5758 22.0485 98.3184 22.9367H98.1856V21.5505H96.4674V30.59Z" fill="white"/>
<path d="M105.987 22.8952C107.307 22.8952 108.17 23.8166 108.212 25.236H103.646C103.746 23.8249 104.667 22.8952 105.987 22.8952ZM108.203 28.1496C107.871 28.8552 107.133 29.2453 106.053 29.2453C104.626 29.2453 103.704 28.2409 103.646 26.6554V26.5558H110.03V25.9333C110.03 23.0944 108.51 21.3762 105.995 21.3762C103.447 21.3762 101.828 23.2106 101.828 26.0993C101.828 28.988 103.414 30.7643 106.004 30.7643C108.071 30.7643 109.515 29.7682 109.922 28.1496H108.203Z" fill="white"/>
<path d="M70.3231 27.2519C70.4607 29.4716 72.3105 30.8911 75.0636 30.8911C78.006 30.8911 79.8472 29.4027 79.8472 27.0282C79.8472 25.1612 78.7975 24.1288 76.2509 23.5351L74.8829 23.1996C73.2655 22.821 72.6116 22.3134 72.6116 21.4273C72.6116 20.3088 73.6268 19.5775 75.1497 19.5775C76.595 19.5775 77.593 20.2916 77.7737 21.4359H79.6493C79.5374 19.3452 77.6963 17.874 75.1755 17.874C72.4654 17.874 70.6586 19.3452 70.6586 21.5563C70.6586 23.3803 71.6824 24.4643 73.9279 24.9891L75.5282 25.3763C77.1715 25.7634 77.8942 26.3313 77.8942 27.2777C77.8942 28.3789 76.7585 29.179 75.2099 29.179C73.5494 29.179 72.3965 28.4305 72.2331 27.2519H70.3231Z" fill="white"/>
<path d="M51.8357 21.4011C50.6072 21.4011 49.5447 22.0153 48.9969 23.0446H48.8641V21.5505H47.1458V33.5949H48.9305V29.2204H49.0716C49.5447 30.175 50.5657 30.7394 51.8523 30.7394C54.1351 30.7394 55.5877 28.9382 55.5877 26.0661C55.5877 23.194 54.1351 21.4011 51.8357 21.4011ZM51.3294 29.1374C49.8353 29.1374 48.8973 27.9587 48.8973 26.0744C48.8973 24.1818 49.8353 23.0031 51.3377 23.0031C52.8484 23.0031 53.7532 24.1569 53.7532 26.0661C53.7532 27.9836 52.8484 29.1374 51.3294 29.1374Z" fill="white"/>
<path d="M61.8325 21.4011C60.604 21.4011 59.5415 22.0153 58.9937 23.0446H58.8609V21.5505H57.1426V33.5949H58.9273V29.2204H59.0684C59.5415 30.175 60.5625 30.7394 61.8491 30.7394C64.1319 30.7394 65.5845 28.9382 65.5845 26.0661C65.5845 23.194 64.1319 21.4011 61.8325 21.4011ZM61.3262 29.1374C59.8321 29.1374 58.8941 27.9587 58.8941 26.0744C58.8941 24.1818 59.8321 23.0031 61.3345 23.0031C62.8452 23.0031 63.75 24.1569 63.75 26.0661C63.75 27.9836 62.8452 29.1374 61.3262 29.1374Z" fill="white"/>
<path d="M43.9438 30.59H45.9914L41.509 18.1751H39.4356L34.9531 30.59H36.9319L38.0762 27.2949H42.8081L43.9438 30.59ZM40.3733 20.4293H40.5196L42.3177 25.6774H38.5666L40.3733 20.4293Z" fill="white"/>
<path d="M36.1523 8.81094V14.8H38.3147C40.0994 14.8 41.1328 13.7001 41.1328 11.7868C41.1328 9.9025 40.0911 8.81094 38.3147 8.81094H36.1523ZM37.082 9.65762H38.2109C39.4519 9.65762 40.1865 10.4462 40.1865 11.7992C40.1865 13.173 39.4644 13.9533 38.2109 13.9533H37.082V9.65762Z" fill="white"/>
<path d="M44.2979 14.8871C45.6177 14.8871 46.4271 14.0031 46.4271 12.538C46.4271 11.0812 45.6136 10.193 44.2979 10.193C42.9781 10.193 42.1646 11.0812 42.1646 12.538C42.1646 14.0031 42.9739 14.8871 44.2979 14.8871ZM44.2979 14.0944C43.5218 14.0944 43.086 13.5258 43.086 12.538C43.086 11.5585 43.5218 10.9857 44.2979 10.9857C45.0699 10.9857 45.5098 11.5585 45.5098 12.538C45.5098 13.5216 45.0699 14.0944 44.2979 14.0944Z" fill="white"/>
<path d="M53.3192 10.2802H52.4269L51.6217 13.7292H51.5511L50.6214 10.2802H49.7665L48.8368 13.7292H48.7704L47.961 10.2802H47.0562L48.3014 14.8H49.2186L50.1483 11.4713H50.2188L51.1527 14.8H52.0782L53.3192 10.2802Z" fill="white"/>
<path d="M54.3468 14.8H55.2392V12.1562C55.2392 11.4506 55.6583 11.0107 56.3183 11.0107C56.9782 11.0107 57.2936 11.3717 57.2936 12.0981V14.8H58.1859V11.8739C58.1859 10.799 57.6298 10.193 56.6212 10.193C55.9406 10.193 55.4923 10.496 55.2724 10.9982H55.206V10.2802H54.3468V14.8Z" fill="white"/>
<path d="M59.5913 14.8H60.4836V8.51627H59.5913V14.8Z" fill="white"/>
<path d="M63.8396 14.8871C65.1594 14.8871 65.9688 14.0031 65.9688 12.538C65.9688 11.0812 65.1553 10.193 63.8396 10.193C62.5198 10.193 61.7063 11.0812 61.7063 12.538C61.7063 14.0031 62.5156 14.8871 63.8396 14.8871ZM63.8396 14.0944C63.0635 14.0944 62.6277 13.5258 62.6277 12.538C62.6277 11.5585 63.0635 10.9857 63.8396 10.9857C64.6116 10.9857 65.0515 11.5585 65.0515 12.538C65.0515 13.5216 64.6116 14.0944 63.8396 14.0944Z" fill="white"/>
<path d="M68.6275 14.1234C68.1419 14.1234 67.7891 13.8869 67.7891 13.4801C67.7891 13.0817 68.0713 12.87 68.6939 12.8285L69.7979 12.758V13.1357C69.7979 13.696 69.2999 14.1234 68.6275 14.1234ZM68.3992 14.8747C68.9927 14.8747 69.4866 14.6173 69.7564 14.1649H69.827V14.8H70.6861V11.7121C70.6861 10.7575 70.0469 10.193 68.9139 10.193C67.8887 10.193 67.1583 10.6911 67.0669 11.4672H67.9302C68.0298 11.1476 68.3743 10.965 68.8724 10.965C69.4825 10.965 69.7979 11.2348 69.7979 11.7121V12.1022L68.5735 12.1728C67.4986 12.2392 66.8926 12.7082 66.8926 13.5216C66.8926 14.3476 67.5276 14.8747 68.3992 14.8747Z" fill="white"/>
<path d="M73.7142 14.8747C74.3368 14.8747 74.8639 14.58 75.1336 14.0861H75.2042V14.8H76.0592V8.51627H75.1668V10.9982H75.1004C74.8556 10.5002 74.3326 10.2055 73.7142 10.2055C72.5728 10.2055 71.8382 11.1103 71.8382 12.538C71.8382 13.9699 72.5645 14.8747 73.7142 14.8747ZM73.9674 11.0065C74.7145 11.0065 75.1834 11.6 75.1834 12.5421C75.1834 13.4884 74.7186 14.0736 73.9674 14.0736C73.212 14.0736 72.7596 13.4967 72.7596 12.538C72.7596 11.5876 73.2162 11.0065 73.9674 11.0065Z" fill="white"/>
<path d="M81.8457 14.8871C83.1655 14.8871 83.9748 14.0031 83.9748 12.538C83.9748 11.0812 83.1613 10.193 81.8457 10.193C80.5258 10.193 79.7124 11.0812 79.7124 12.538C79.7124 14.0031 80.5217 14.8871 81.8457 14.8871ZM81.8457 14.0944C81.0695 14.0944 80.6337 13.5258 80.6337 12.538C80.6337 11.5585 81.0695 10.9857 81.8457 10.9857C82.6176 10.9857 83.0576 11.5585 83.0576 12.538C83.0576 13.5216 82.6176 14.0944 81.8457 14.0944Z" fill="white"/>
<path d="M85.156 14.8H86.0483V12.1562C86.0483 11.4506 86.4675 11.0107 87.1274 11.0107C87.7874 11.0107 88.1028 11.3717 88.1028 12.0981V14.8H88.9951V11.8739C88.9951 10.799 88.439 10.193 87.4304 10.193C86.7498 10.193 86.3015 10.496 86.0815 10.9982H86.0151V10.2802H85.156V14.8Z" fill="white"/>
<path d="M93.1048 9.15543V10.3009H92.3868V11.0522H93.1048V13.6046C93.1048 14.4762 93.4991 14.8249 94.4911 14.8249C94.6654 14.8249 94.8314 14.8041 94.9767 14.7792V14.0363C94.8521 14.0487 94.7733 14.057 94.6363 14.057C94.1922 14.057 93.9972 13.8495 93.9972 13.3764V11.0522H94.9767V10.3009H93.9972V9.15543H93.1048Z" fill="white"/>
<path d="M96.1745 14.8H97.0668V12.1603C97.0668 11.4755 97.4735 11.0148 98.204 11.0148C98.8349 11.0148 99.171 11.38 99.171 12.1022V14.8H100.063V11.8822C100.063 10.8073 99.4699 10.1972 98.507 10.1972C97.8263 10.1972 97.349 10.5002 97.1291 11.0065H97.0585V8.51627H96.1745V14.8Z" fill="white"/>
<path d="M103.282 10.9525C103.942 10.9525 104.374 11.4132 104.395 12.123H102.112C102.162 11.4174 102.623 10.9525 103.282 10.9525ZM104.391 13.5797C104.225 13.9325 103.855 14.1276 103.316 14.1276C102.602 14.1276 102.141 13.6254 102.112 12.8327V12.7829H105.304V12.4716C105.304 11.0522 104.544 10.193 103.287 10.193C102.012 10.193 101.203 11.1103 101.203 12.5546C101.203 13.9989 101.996 14.8871 103.291 14.8871C104.324 14.8871 105.046 14.3891 105.25 13.5797H104.391Z" fill="white"/>
<path d="M25.27 20.4008C25.2916 18.7198 26.1944 17.1292 27.6265 16.2488C26.7231 14.9584 25.2098 14.1403 23.6354 14.0911C21.9561 13.9148 20.3282 15.0959 19.4725 15.0959C18.6002 15.0959 17.2827 14.1086 15.864 14.1378C14.0147 14.1975 12.2907 15.2489 11.391 16.8656C9.45705 20.2141 10.8996 25.1351 12.7522 27.8417C13.6791 29.1671 14.7624 30.6475 16.1799 30.595C17.5669 30.5375 18.085 29.7105 19.7593 29.7105C21.418 29.7105 21.9041 30.595 23.3503 30.5616C24.8387 30.5375 25.7764 29.2304 26.6708 27.8925C27.3368 26.9481 27.8492 25.9044 28.1892 24.8C26.4401 24.0602 25.272 22.3 25.27 20.4008Z" fill="white"/>
<path d="M22.5383 12.3111C23.3498 11.3369 23.7496 10.0847 23.6528 8.82047C22.413 8.95069 21.2677 9.54324 20.4452 10.4801C19.641 11.3954 19.2224 12.6256 19.3015 13.8415C20.5418 13.8542 21.7611 13.2777 22.5383 12.3111Z" fill="white"/>
<rect x="1" y="0.600006" width="119" height="39" rx="6.5" stroke="white"/>
</svg>
