<svg width="136" height="41" viewBox="0 0 136 41" fill="none" xmlns="http://www.w3.org/2000/svg">
<path d="M68.637 21.8511C66.285 21.8511 64.368 23.6401 64.368 26.1041C64.368 28.5531 66.285 30.3571 68.637 30.3571C70.99 30.3571 72.907 28.5531 72.907 26.1041C72.906 23.6401 70.989 21.8511 68.637 21.8511ZM68.637 28.6831C67.348 28.6831 66.237 27.6201 66.237 26.1051C66.237 24.5741 67.349 23.5271 68.637 23.5271C69.926 23.5271 71.037 24.5741 71.037 26.1051C71.037 27.6191 69.926 28.6831 68.637 28.6831ZM59.323 21.8511C56.971 21.8511 55.054 23.6401 55.054 26.1041C55.054 28.5531 56.971 30.3571 59.323 30.3571C61.676 30.3571 63.593 28.5531 63.593 26.1041C63.593 23.6401 61.676 21.8511 59.323 21.8511ZM59.323 28.6831C58.034 28.6831 56.923 27.6201 56.923 26.1051C56.923 24.5741 58.035 23.5271 59.323 23.5271C60.612 23.5271 61.723 24.5741 61.723 26.1051C61.724 27.6191 60.612 28.6831 59.323 28.6831ZM48.245 23.1571V24.9611H52.563C52.434 25.9761 52.096 26.7171 51.58 27.2321C50.952 27.8601 49.969 28.5531 48.245 28.5531C45.587 28.5531 43.509 26.4101 43.509 23.7521C43.509 21.0941 45.587 18.9511 48.245 18.9511C49.679 18.9511 50.726 19.5151 51.499 20.2401L52.772 18.9671C51.692 17.9361 50.259 17.1471 48.245 17.1471C44.604 17.1471 41.543 20.1111 41.543 23.7521C41.543 27.3931 44.604 30.3571 48.245 30.3571C50.21 30.3571 51.693 29.7121 52.852 28.5041C54.044 27.3121 54.415 25.6361 54.415 24.2831C54.415 23.8651 54.383 23.4781 54.318 23.1561H48.245V23.1571ZM93.553 24.5581C93.199 23.6081 92.119 21.8511 89.912 21.8511C87.721 21.8511 85.9 23.5751 85.9 26.1041C85.9 28.4881 87.705 30.3571 90.121 30.3571C92.07 30.3571 93.198 29.1651 93.666 28.4721L92.216 27.5051C91.733 28.2141 91.072 28.6811 90.121 28.6811C89.171 28.6811 88.494 28.2461 88.059 27.3921L93.746 25.0401L93.553 24.5581ZM87.753 25.9761C87.705 24.3321 89.026 23.4951 89.977 23.4951C90.718 23.4951 91.346 23.8661 91.556 24.3971L87.753 25.9761ZM83.13 30.1001H84.998V17.5991H83.13V30.1001ZM80.068 22.8021H80.004C79.585 22.3021 78.779 21.8511 77.765 21.8511C75.638 21.8511 73.689 23.7201 73.689 26.1211C73.689 28.5051 75.638 30.3581 77.765 30.3581C78.78 30.3581 79.585 29.9071 80.004 29.3921H80.068V30.0041C80.068 31.6311 79.198 32.5011 77.797 32.5011C76.653 32.5011 75.944 31.6801 75.654 30.9871L74.027 31.6641C74.494 32.7911 75.734 34.1771 77.797 34.1771C79.988 34.1771 81.841 32.8881 81.841 29.7461V22.1101H80.069V22.8021H80.068ZM77.926 28.6831C76.637 28.6831 75.558 27.6031 75.558 26.1211C75.558 24.6221 76.637 23.5271 77.926 23.5271C79.198 23.5271 80.197 24.6221 80.197 26.1211C80.197 27.6031 79.198 28.6831 77.926 28.6831ZM102.307 17.5991H97.836V30.1001H99.701V25.3641H102.306C104.374 25.3641 106.408 23.8671 106.408 21.4821C106.408 19.0971 104.375 17.5991 102.307 17.5991ZM102.355 23.6241H99.701V19.3391H102.355C103.75 19.3391 104.542 20.4941 104.542 21.4821C104.542 22.4501 103.75 23.6241 102.355 23.6241ZM113.887 21.8291C112.536 21.8291 111.137 22.4241 110.558 23.7431L112.214 24.4341C112.568 23.7431 113.228 23.5171 113.919 23.5171C114.884 23.5171 115.865 24.0961 115.881 25.1251V25.2541C115.543 25.0611 114.819 24.7721 113.935 24.7721C112.15 24.7721 110.332 25.7531 110.332 27.5861C110.332 29.2591 111.796 30.3361 113.436 30.3361C114.69 30.3361 115.382 29.7731 115.816 29.1131H115.88V30.0781H117.682V25.2851C117.683 23.0671 116.025 21.8291 113.887 21.8291ZM113.661 28.6801C113.051 28.6801 112.198 28.3741 112.198 27.6181C112.198 26.6531 113.26 26.2831 114.177 26.2831C114.996 26.2831 115.383 26.4601 115.881 26.7011C115.736 27.8601 114.739 28.6801 113.661 28.6801ZM124.244 22.1021L122.105 27.5221H122.041L119.821 22.1021H117.811L121.14 29.6771L119.242 33.8911H121.188L126.319 22.1021H124.244ZM107.438 30.1001H109.303V17.5991H107.438V30.1001Z" fill="white"/>
<path d="M47.9176 10.3429C47.9176 11.1809 47.6696 11.8479 47.1726 12.3459C46.6086 12.9379 45.8726 13.234 44.9686 13.234C44.1026 13.234 43.3656 12.9339 42.7606 12.3339C42.1546 11.7329 41.8516 10.9889 41.8516 10.1009C41.8516 9.21195 42.1546 8.46795 42.7606 7.86795C43.3656 7.26695 44.1026 6.96695 44.9686 6.96695C45.3986 6.96695 45.8096 7.05095 46.1996 7.21795C46.5906 7.38595 46.9036 7.60895 47.1376 7.88795L46.6106 8.41595C46.2136 7.94095 45.6666 7.70395 44.9676 7.70395C44.3356 7.70395 43.7896 7.92595 43.3286 8.36995C42.8676 8.81395 42.6376 9.39095 42.6376 10.0999C42.6376 10.8089 42.8676 11.3859 43.3286 11.8299C43.7896 12.2739 44.3356 12.4959 44.9676 12.4959C45.6376 12.4959 46.1966 12.2729 46.6436 11.8259C46.9336 11.5349 47.1016 11.1299 47.1466 10.6109H44.9676V9.88995H47.8746C47.9046 10.047 47.9176 10.1979 47.9176 10.3429Z" fill="white"/>
<path d="M52.5277 7.83701H49.7957V9.73901H52.2597V10.46H49.7957V12.362H52.5277V13.1H49.0247V7.10001H52.5277V7.83701Z" fill="white"/>
<path d="M55.7785 13.1H55.0075V7.83701H53.3315V7.10001H57.4545V7.83701H55.7785V13.1Z" fill="white"/>
<path d="M60.4375 13.1V7.10001H61.2085V13.1H60.4375Z" fill="white"/>
<path d="M64.6277 13.1H63.8567V7.83701H62.1807V7.10001H66.3037V7.83701H64.6277V13.1Z" fill="white"/>
<path d="M74.1084 12.325C73.5184 12.931 72.7854 13.234 71.9084 13.234C71.0314 13.234 70.2984 12.931 69.7094 12.325C69.1194 11.719 68.8254 10.977 68.8254 10.1C68.8254 9.223 69.1194 8.481 69.7094 7.875C70.2984 7.269 71.0314 6.965 71.9084 6.965C72.7804 6.965 73.5124 7.27 74.1044 7.879C74.6964 8.488 74.9924 9.228 74.9924 10.1C74.9924 10.977 74.6974 11.719 74.1084 12.325ZM70.2784 11.822C70.7224 12.272 71.2654 12.496 71.9084 12.496C72.5514 12.496 73.0954 12.271 73.5384 11.822C73.9824 11.372 74.2054 10.798 74.2054 10.1C74.2054 9.402 73.9824 8.828 73.5384 8.378C73.0954 7.928 72.5514 7.704 71.9084 7.704C71.2654 7.704 70.7224 7.929 70.2784 8.378C69.8354 8.828 69.6124 9.402 69.6124 10.1C69.6124 10.798 69.8354 11.372 70.2784 11.822Z" fill="white"/>
<path d="M76.0745 13.1V7.10001H77.0125L79.9285 11.767H79.9615L79.9285 10.611V7.10001H80.6995V13.1H79.8945L76.8435 8.20601H76.8105L76.8435 9.36201V13.1H76.0745Z" fill="white"/>
<path d="M47.9176 10.3429C47.9176 11.1809 47.6696 11.8479 47.1726 12.3459C46.6086 12.9379 45.8726 13.234 44.9686 13.234C44.1026 13.234 43.3656 12.9339 42.7606 12.3339C42.1546 11.7329 41.8516 10.9889 41.8516 10.1009C41.8516 9.21195 42.1546 8.46795 42.7606 7.86795C43.3656 7.26695 44.1026 6.96695 44.9686 6.96695C45.3986 6.96695 45.8096 7.05095 46.1996 7.21795C46.5906 7.38595 46.9036 7.60895 47.1376 7.88795L46.6106 8.41595C46.2136 7.94095 45.6666 7.70395 44.9676 7.70395C44.3356 7.70395 43.7896 7.92595 43.3286 8.36995C42.8676 8.81395 42.6376 9.39095 42.6376 10.0999C42.6376 10.8089 42.8676 11.3859 43.3286 11.8299C43.7896 12.2739 44.3356 12.4959 44.9676 12.4959C45.6376 12.4959 46.1966 12.2729 46.6436 11.8259C46.9336 11.5349 47.1016 11.1299 47.1466 10.6109H44.9676V9.88995H47.8746C47.9046 10.047 47.9176 10.1979 47.9176 10.3429Z" stroke="white" stroke-width="0.2" stroke-miterlimit="10"/>
<path d="M52.5277 7.83701H49.7957V9.73901H52.2597V10.46H49.7957V12.362H52.5277V13.1H49.0247V7.10001H52.5277V7.83701Z" stroke="white" stroke-width="0.2" stroke-miterlimit="10"/>
<path d="M55.7785 13.1H55.0075V7.83701H53.3315V7.10001H57.4545V7.83701H55.7785V13.1Z" stroke="white" stroke-width="0.2" stroke-miterlimit="10"/>
<path d="M60.4375 13.1V7.10001H61.2085V13.1H60.4375Z" stroke="white" stroke-width="0.2" stroke-miterlimit="10"/>
<path d="M64.6277 13.1H63.8567V7.83701H62.1807V7.10001H66.3037V7.83701H64.6277V13.1Z" stroke="white" stroke-width="0.2" stroke-miterlimit="10"/>
<path d="M74.1084 12.325C73.5184 12.931 72.7854 13.234 71.9084 13.234C71.0314 13.234 70.2984 12.931 69.7094 12.325C69.1194 11.719 68.8254 10.977 68.8254 10.1C68.8254 9.223 69.1194 8.481 69.7094 7.875C70.2984 7.269 71.0314 6.965 71.9084 6.965C72.7804 6.965 73.5124 7.27 74.1044 7.879C74.6964 8.488 74.9924 9.228 74.9924 10.1C74.9924 10.977 74.6974 11.719 74.1084 12.325ZM70.2784 11.822C70.7224 12.272 71.2654 12.496 71.9084 12.496C72.5514 12.496 73.0954 12.271 73.5384 11.822C73.9824 11.372 74.2054 10.798 74.2054 10.1C74.2054 9.402 73.9824 8.828 73.5384 8.378C73.0954 7.928 72.5514 7.704 71.9084 7.704C71.2654 7.704 70.7224 7.929 70.2784 8.378C69.8354 8.828 69.6124 9.402 69.6124 10.1C69.6124 10.798 69.8354 11.372 70.2784 11.822Z" stroke="white" stroke-width="0.2" stroke-miterlimit="10"/>
<path d="M76.0745 13.1V7.10001H77.0125L79.9285 11.767H79.9615L79.9285 10.611V7.10001H80.6995V13.1H79.8945L76.8435 8.20601H76.8105L76.8435 9.36201V13.1H76.0745Z" stroke="white" stroke-width="0.2" stroke-miterlimit="10"/>
<path fill-rule="evenodd" clip-rule="evenodd" d="M10.6566 8.0652C10.5381 8.33294 10.4727 8.66114 10.4727 9.043V31.159C10.4727 31.5417 10.5382 31.87 10.6568 32.1376L22.692 20.1006L10.6566 8.0652ZM11.3526 32.8561C11.7984 33.0462 12.3798 32.9855 13.0137 32.626L27.1719 24.5806L23.3991 20.8078L11.3526 32.8561ZM28.0744 24.0688L32.5147 21.546C33.9116 20.751 33.9116 19.452 32.5147 18.658L28.0724 16.1338L24.1062 20.1006L28.0744 24.0688ZM27.1706 15.6214L13.0137 7.57701C12.3797 7.21678 11.7984 7.15639 11.3525 7.34686L23.3991 19.3935L27.1706 15.6214Z" fill="white"/>
<rect x="1" y="0.600006" width="134" height="39" rx="4.5" stroke="white"/>
</svg>
