<svg width="109" height="81" viewBox="0 0 109 81" fill="none" xmlns="http://www.w3.org/2000/svg">
<g clip-path="url(#clip0)">
<path d="M79.5882 58.909H33.5664V59.0977H79.5882V58.909Z" fill="#644E33"/>
<path d="M79.5864 54.6492H33.1602V54.8918H79.5864V54.6492Z" fill="#644E33"/>
<path d="M79.5864 43.1909H33.1602V43.4336H79.5864V43.1909Z" fill="#644E33"/>
<path d="M79.5864 36.2351H33.1602V36.4777H79.5864V36.2351Z" fill="#644E33"/>
<path d="M41.9766 6.41663H41.8688V6.52447V6.71319L41.761 36.3968H41.7879L41.761 42.6247C41.734 42.8135 41.734 43.0022 41.734 43.2179V43.2718V43.2988V43.3257L41.707 54.784L52.1947 54.8109L52.1678 65.8918V66.1074H52.1947L58.827 66.1344L69.5034 66.1614L69.5304 54.8918L69.5843 36.5047L69.6922 6.55143L41.9766 6.41663ZM69.4765 6.71319L69.3956 32.892C67.9397 19.196 57.8564 8.24995 45.131 6.63231L69.4765 6.71319ZM57.3981 57.8305V57.48H58.0721H58.7192C58.6922 57.8575 58.5574 58.208 58.3148 58.4506C58.0721 58.7202 57.7486 58.855 57.3981 58.882V58.3697V57.8305ZM56.8319 57.2913H56.4275V54.8379H56.5893C57.1285 54.8918 57.6408 55.1614 58.0452 55.5658C58.4765 56.0242 58.7192 56.6443 58.7461 57.2913H56.8319ZM56.2118 57.9384V58.909L52.3834 58.882C52.4374 56.7251 54.028 54.9727 56.0231 54.8109H56.2388V57.2644V57.8036L56.2118 57.9384ZM48.4472 40.9801V40.7914H48.6359C48.555 40.8453 48.5011 40.8993 48.4472 40.9801ZM49.0673 40.7914V41.4654H48.4472C48.5011 41.1149 48.7438 40.8453 49.0673 40.7914ZM48.8786 42.7326C48.609 42.436 48.4741 42.0586 48.4472 41.6542H48.5281H49.8491V43.1909C49.4987 43.1909 49.1482 43.0292 48.8786 42.7326ZM49.1751 43.2179H48.4202V42.436C48.5011 42.5978 48.609 42.7595 48.7168 42.8944C48.8786 43.0292 49.0134 43.137 49.1751 43.2179ZM49.283 41.4654V40.7645H49.8761V41.4654H49.283ZM49.1751 40.5757H48.4472L48.4741 36.4238C49.4987 36.4508 50.4423 36.8821 51.1702 37.664C51.7633 38.311 52.1408 39.0929 52.2756 39.9556V40.5757H51.9251H49.1751ZM52.2486 39.1738C52.033 38.5807 51.7364 38.0145 51.305 37.5561C50.8197 37.0169 50.2266 36.6395 49.5526 36.4238H52.2486V39.1738ZM50.0379 43.0022V41.4924V40.7914H52.2217V41.2767C52.1138 41.735 51.8981 42.1395 51.6016 42.4899C51.1702 42.9483 50.631 43.1909 50.0379 43.2179V43.0022ZM51.7633 42.6247C51.979 42.4091 52.1408 42.1664 52.2486 41.8968V43.2448H50.9006C51.2241 43.0831 51.4937 42.8944 51.7633 42.6247ZM52.3834 54.8109H55.0525C53.7854 55.2423 52.7609 56.3207 52.3834 57.6957V54.8109ZM57.9643 54.5953H54.9717C60.1481 53.7595 64.5696 50.4433 67.1579 45.8061C68.5329 48.4213 69.3147 51.4409 69.3417 54.6492L63.7339 54.6222L58.9618 54.5953H57.9643ZM67.2387 45.5904C68.2902 43.6492 69.0181 41.4924 69.3417 39.2007L69.2878 52.007C68.9912 49.6884 68.2902 47.5316 67.2387 45.5904ZM69.3686 36.6125C69.3147 39.7939 68.5059 42.7865 67.1309 45.3747C64.5427 40.6836 60.0942 37.3135 54.8638 36.4777L69.3686 36.5316V36.6125ZM67.0231 45.5904C64.1652 50.7938 59.0158 54.3526 53.0844 54.5953H52.4643L52.4913 43.2448L52.5182 38.3919V36.5047C58.7192 36.5586 64.1113 40.2253 67.0231 45.5904ZM56.4006 58.6124C56.4275 58.6663 56.4815 58.7202 56.5354 58.7742C56.5893 58.8281 56.6432 58.882 56.6971 58.9359H56.4006V58.6124ZM56.6702 58.6394C56.5084 58.4776 56.4275 58.2619 56.4275 58.0462H56.4545H57.2364V58.909C56.9937 58.882 56.805 58.7742 56.6702 58.6394ZM56.4275 57.8305C56.4545 57.6688 56.5893 57.534 56.7511 57.48V57.8305H56.4275ZM56.9128 57.8305V57.48H57.2094V57.8305H56.9128ZM42.0575 6.60535C57.1555 6.71319 69.3686 20.0048 69.3686 36.262L52.4104 36.2081H52.3295L48.2585 36.1812L41.9766 36.1542L42.0575 6.60535ZM41.9766 36.3968L46.8295 36.4238C44.457 37.0169 42.5967 38.9581 41.9497 41.4924L41.9766 36.3968ZM41.9766 42.6247C42.3002 39.1738 44.9962 36.4508 48.2585 36.4238L48.2315 40.5757V41.6542V43.1909L41.9497 43.164L41.9766 42.6247ZM41.9766 43.3796L48.2585 43.4066H50.0379H52.2756L52.2486 54.5953C46.8296 54.4874 42.408 49.9041 42.0306 44.1345L41.9766 43.3796ZM41.8958 54.5683L41.9227 45.9409H41.9497V45.6443C42.8124 50.1737 46.1825 53.7325 50.4153 54.5953L41.8958 54.5683ZM52.3565 65.8918L52.3834 60.6884C52.9766 63.2496 54.8638 65.2717 57.2633 65.8918H52.3565ZM58.6922 65.9187C55.2143 65.8378 52.4104 62.8182 52.3565 59.0977L56.1849 59.1246H57.0207H57.1824H57.2903H58.6922V65.9187ZM58.7192 58.909H58.0452C58.18 58.8281 58.3148 58.7202 58.4226 58.6124C58.5305 58.5045 58.6383 58.3697 58.6922 58.208L58.7192 58.909ZM58.153 55.431C57.9104 55.1614 57.6138 54.9727 57.3172 54.8379H58.7461V56.3477C58.6113 55.9972 58.4226 55.7006 58.153 55.431ZM58.9079 58.909L58.9349 54.8109L69.3147 54.8379C69.2338 60.931 64.5966 65.8378 58.9079 65.8918V58.909ZM69.2608 65.9457L60.7412 65.9187C65.0549 65.0829 68.452 61.4702 69.2878 56.8869L69.2608 65.9457Z" fill="#644E33"/>
<path d="M0.994561 71.6883V71.3109C1.80338 71.3378 2.45044 71.3378 2.90877 71.3378C3.23229 71.3378 3.55582 71.3378 3.90631 71.3378L4.84993 71.3109C4.95777 71.3109 5.03865 71.3109 5.1465 71.3109C5.79355 71.3109 6.3058 71.3917 6.65629 71.5265C7.03374 71.6613 7.30335 71.904 7.51903 72.2005C7.73472 72.4971 7.8156 72.8746 7.8156 73.252C7.8156 73.6025 7.73472 73.953 7.54599 74.3035C7.38423 74.654 7.11462 74.9505 6.7911 75.1932C6.46757 75.4358 6.11708 75.6245 5.76659 75.7054C5.52395 75.7863 5.25434 75.8133 4.93081 75.8133C4.66121 75.8133 4.3916 75.7863 4.09503 75.7324L3.96023 75.2741C4.31072 75.3549 4.60729 75.3819 4.79601 75.3819C5.09258 75.3819 5.38914 75.301 5.65875 75.1662C5.92836 75.0314 6.14404 74.7888 6.3058 74.4922C6.46757 74.1956 6.52149 73.8721 6.52149 73.5216C6.52149 73.1711 6.44061 72.8746 6.3058 72.578C6.171 72.3084 5.92836 72.0927 5.63179 71.9309C5.33522 71.7961 4.95777 71.7153 4.5264 71.7153C4.14895 71.7153 3.71758 71.7961 3.28621 71.9309C3.25925 72.3623 3.23229 73.0363 3.23229 73.953V76.9995C3.23229 77.5388 3.23229 78.078 3.25925 78.6172C3.25925 78.9946 3.31317 79.2373 3.34014 79.2912C3.39406 79.3721 3.44798 79.426 3.55582 79.453C3.66366 79.4799 3.96023 79.5069 4.41856 79.5069V79.8843C3.66366 79.8574 3.12445 79.8304 2.77396 79.8304C2.63916 79.8304 1.9921 79.8574 0.886719 79.8843V79.5338C1.37201 79.5338 1.64162 79.5069 1.74946 79.4799C1.8573 79.453 1.93818 79.399 1.96514 79.3451C2.01907 79.2642 2.04603 79.0755 2.04603 78.752C2.04603 78.6711 2.04603 78.1049 2.07299 77.0265V74.2226C2.07299 73.6834 2.07299 73.1442 2.04603 72.605C2.04603 72.2275 1.9921 71.9849 1.96514 71.9309C1.91122 71.8501 1.8573 71.7961 1.74946 71.7692C1.77642 71.7153 1.47985 71.7153 0.994561 71.6883Z" fill="url(#paint0_linear)"/>
<path d="M9.05469 71.6883V71.3109C9.21645 71.3109 9.4591 71.3109 9.78262 71.3378L10.9419 71.3648C11.1846 71.3648 11.5351 71.3648 12.0204 71.3378C12.6405 71.3109 13.0179 71.3109 13.1257 71.3109C13.9076 71.3109 14.4468 71.3917 14.8243 71.5265C15.1747 71.6613 15.4444 71.877 15.6331 72.2005C15.8218 72.4971 15.9296 72.8476 15.9296 73.1981C15.9296 73.5486 15.8488 73.8721 15.66 74.2226C15.4713 74.5461 15.2017 74.8427 14.8782 75.0584C14.5277 75.2741 14.0963 75.4628 13.5302 75.5706C13.638 75.7054 13.8806 76.029 14.2581 76.5142L15.7948 78.5363C16.2262 79.1025 16.4958 79.399 16.5497 79.4799C16.5767 79.5069 16.6306 79.5338 16.6576 79.5338C16.7115 79.5608 16.8463 79.5608 17.062 79.5608V79.9382C16.7654 79.9113 16.4958 79.9113 16.2532 79.9113C16.0105 79.9113 15.714 79.9113 15.3635 79.9382C15.0939 79.6417 14.6625 79.0485 14.0424 78.1588C13.6919 77.6736 13.3953 77.2691 13.1257 76.9456C12.6944 76.4064 12.29 75.9211 11.9125 75.4628L11.9664 75.2741C12.1821 75.2741 12.3439 75.301 12.4517 75.301C13.1797 75.301 13.7458 75.1393 14.1233 74.7888C14.5007 74.4383 14.6895 73.9799 14.6895 73.4138C14.6895 72.9285 14.5277 72.5241 14.2042 72.2275C13.8806 71.9309 13.3953 71.7961 12.7213 71.7961C12.3169 71.7961 11.8856 71.8501 11.5081 71.9849C11.4811 72.2006 11.4811 72.4162 11.4811 72.605C11.4811 72.6589 11.4542 73.252 11.4272 74.3574V77.0535C11.4272 77.5927 11.4272 78.1319 11.4542 78.6711C11.4542 79.0485 11.4811 79.2912 11.5351 79.3451C11.589 79.426 11.6699 79.4799 11.7508 79.5069C11.8586 79.5338 12.1552 79.5608 12.6135 79.5608V79.9382C12.0473 79.9113 11.5081 79.8843 11.0228 79.8843C10.6454 79.8843 9.97135 79.9113 9.05469 79.9382V79.5338C9.53998 79.5338 9.80958 79.5069 9.91743 79.4799C10.0253 79.453 10.1062 79.399 10.1331 79.3451C10.187 79.2642 10.214 79.0755 10.214 78.752C10.214 78.6711 10.214 78.1049 10.241 77.0265V74.2226C10.241 73.6834 10.241 73.1442 10.214 72.605C10.214 72.2275 10.1601 71.9849 10.1331 71.9309C10.0792 71.8501 10.0253 71.7961 9.91743 71.7692C9.80958 71.7153 9.53998 71.7153 9.05469 71.6883Z" fill="url(#paint1_linear)"/>
<path d="M17.9805 75.6785C17.9805 75.0314 18.0883 74.4383 18.277 73.8991C18.4658 73.3599 18.7893 72.8746 19.2207 72.4432C19.652 72.0118 20.1643 71.6883 20.7305 71.4726C21.2966 71.2569 21.9437 71.1491 22.6447 71.1491C23.3187 71.1491 23.9118 71.23 24.451 71.4187C24.9902 71.6074 25.4486 71.8501 25.799 72.1736C26.1495 72.4702 26.4191 72.8206 26.6348 73.1981C26.7966 73.4677 26.9044 73.7912 27.0123 74.1687C27.0932 74.5461 27.1471 74.9505 27.1471 75.3549C27.1471 76.703 26.6887 77.8353 25.7721 78.752C24.8554 79.6686 23.6961 80.1 22.3211 80.1C21.6741 80.1 21.1079 79.9922 20.5417 79.8034C20.0025 79.5878 19.5172 79.2912 19.1398 78.8868C18.7623 78.4824 18.4658 77.9971 18.277 77.4039C18.0883 76.8108 17.9805 76.2446 17.9805 75.6785ZM19.2476 75.1662C19.2476 75.5437 19.2746 75.9481 19.3555 76.3255C19.4363 76.7299 19.5172 77.0535 19.652 77.35C19.8408 77.8353 20.1104 78.2397 20.4069 78.5632C20.7305 78.8868 21.0809 79.1294 21.4584 79.2912C21.8358 79.453 22.2672 79.5338 22.7525 79.5338C23.3996 79.5338 23.9657 79.3721 24.451 79.0485C24.9363 78.725 25.2868 78.2936 25.5294 77.7005C25.7721 77.1343 25.8799 76.4603 25.8799 75.7054C25.8799 75.0584 25.799 74.4652 25.6373 73.926C25.5294 73.6025 25.3946 73.3059 25.2329 73.0363C25.0711 72.7667 24.8554 72.5241 24.6128 72.3353C24.3701 72.1466 24.0736 71.9579 23.6692 71.8231C23.2917 71.6883 22.8603 71.6074 22.429 71.6074C21.7819 71.6074 21.2157 71.7422 20.7305 72.0388C20.2452 72.3354 19.8947 72.7398 19.6251 73.279C19.3555 73.8721 19.2476 74.4922 19.2476 75.1662Z" fill="url(#paint2_linear)"/>
<path d="M28.3594 75.6785C28.3594 75.0314 28.4672 74.4383 28.6559 73.8991C28.8447 73.3599 29.1682 72.8746 29.5996 72.4432C30.0309 72.0118 30.5432 71.6883 31.1094 71.4726C31.6755 71.2569 32.3226 71.1491 33.0236 71.1491C33.6976 71.1491 34.2907 71.23 34.8299 71.4187C35.3691 71.6074 35.8275 71.8501 36.1779 72.1736C36.5284 72.4702 36.798 72.8206 37.0137 73.1981C37.1755 73.4677 37.2833 73.7912 37.3912 74.1687C37.4721 74.5461 37.526 74.9505 37.526 75.3549C37.526 76.703 37.0676 77.8353 36.151 78.752C35.2343 79.6686 34.075 80.1 32.7 80.1C32.053 80.1 31.4868 79.9922 30.9206 79.8034C30.3814 79.5878 29.8961 79.2912 29.5187 78.8868C29.1412 78.4824 28.8447 77.9971 28.6559 77.4039C28.4403 76.8108 28.3594 76.2446 28.3594 75.6785ZM29.5996 75.1662C29.5996 75.5437 29.6265 75.9481 29.7074 76.3255C29.7883 76.7299 29.8692 77.0535 30.004 77.35C30.1927 77.8353 30.4623 78.2397 30.7589 78.5632C31.0824 78.8868 31.4329 79.1294 31.8103 79.2912C32.1878 79.453 32.6191 79.5338 33.1044 79.5338C33.7515 79.5338 34.3177 79.3721 34.803 79.0485C35.2882 78.725 35.6387 78.2936 35.8814 77.7005C36.124 77.1343 36.2319 76.4603 36.2319 75.7054C36.2319 75.0584 36.151 74.4652 35.9892 73.926C35.8814 73.6025 35.7466 73.3059 35.5848 73.0363C35.4231 72.7667 35.2074 72.5241 34.9647 72.3353C34.7221 72.1466 34.4255 71.9579 34.0211 71.8231C33.6437 71.6883 33.2123 71.6074 32.7809 71.6074C32.1339 71.6074 31.5677 71.7422 31.0824 72.0388C30.5971 72.3354 30.2466 72.7398 29.977 73.279C29.7344 73.8721 29.5996 74.4922 29.5996 75.1662Z" fill="url(#paint3_linear)"/>
<path d="M38.6864 71.6883V71.3108C39.3064 71.3378 39.8187 71.3378 40.2501 71.3378C40.5466 71.3378 41.0858 71.3378 41.8677 71.3108C42.6496 71.2839 43.1888 71.2839 43.4584 71.2839C43.7549 71.2839 44.0246 71.2839 44.2672 71.2839C44.5098 71.2839 44.7255 71.3108 44.9412 71.3108C44.8334 71.6613 44.7795 72.2545 44.7525 73.1442H44.375C44.3481 72.6589 44.2942 72.2814 44.2133 72.0118C43.9976 71.9309 43.7549 71.877 43.4314 71.85C43.1349 71.8231 42.7574 71.7961 42.353 71.7961C41.9486 71.7961 41.5172 71.8231 41.0858 71.877C41.0589 72.0927 41.0589 72.3084 41.0319 72.4971C41.0319 72.6049 41.005 73.0633 41.005 73.8721V75.2201C41.4633 75.2201 41.8677 75.2471 42.1912 75.2471C42.7035 75.2471 43.1079 75.2201 43.4314 75.1662C43.5393 75.1392 43.6201 75.1123 43.6471 75.0584C43.6741 75.0044 43.728 74.8427 43.7549 74.5461L43.8089 74.1687H44.1863L44.1324 75.5437L44.1863 77.0265H43.8089L43.7549 76.649C43.701 76.2177 43.6741 75.975 43.6471 75.9481C43.6201 75.8941 43.5393 75.8402 43.4045 75.8133C43.1618 75.7593 42.6496 75.7324 41.8407 75.7324C41.5442 75.7324 41.2476 75.7324 40.951 75.7593V76.9726C40.951 77.5118 40.951 78.051 40.978 78.5902C40.978 78.9676 41.005 79.2103 41.0589 79.2642C41.1128 79.3451 41.1937 79.399 41.2746 79.426C41.3824 79.4529 41.679 79.4799 42.1373 79.4799V79.8574C41.6251 79.8304 41.1128 79.8034 40.6006 79.8034C40.1422 79.8034 39.4682 79.8304 38.6055 79.8574V79.5338C39.0908 79.5338 39.3604 79.5069 39.4682 79.4799C39.5761 79.4529 39.6569 79.399 39.6839 79.3451C39.7378 79.2642 39.7648 79.0755 39.7648 78.752C39.7648 78.6711 39.7648 78.1049 39.7917 77.0265V74.2226C39.7917 73.6834 39.7917 73.1442 39.7648 72.6049C39.7648 72.2275 39.7109 71.9848 39.6839 71.9309C39.63 71.85 39.5761 71.7961 39.4682 71.7692C39.4682 71.7152 39.1716 71.7152 38.6864 71.6883Z" fill="url(#paint4_linear)"/>
<path d="M49.9531 75.6785C49.9531 75.0314 50.061 74.4383 50.2497 73.8991C50.4384 73.3599 50.7619 72.8746 51.1933 72.4432C51.6247 72.0118 52.1369 71.6883 52.7031 71.4726C53.2693 71.2569 53.9163 71.1491 54.6173 71.1491C55.2913 71.1491 55.8845 71.23 56.4237 71.4187C56.9629 71.6074 57.4212 71.8501 57.7717 72.1736C58.1222 72.4702 58.3918 72.8206 58.6075 73.1981C58.7692 73.4677 58.8771 73.7912 58.9849 74.1687C59.0658 74.5461 59.1197 74.9505 59.1197 75.3549C59.1197 76.703 58.6614 77.8353 57.7447 78.752C56.8281 79.6686 55.6688 80.1 54.2938 80.1C53.6467 80.1 53.0806 79.9922 52.5144 79.8034C51.9752 79.5878 51.4899 79.2912 51.1124 78.8868C50.735 78.4824 50.4384 77.9971 50.2497 77.4039C50.061 76.8108 49.9531 76.2446 49.9531 75.6785ZM51.2203 75.1662C51.2203 75.5437 51.2472 75.9481 51.3281 76.3255C51.409 76.7299 51.4899 77.0535 51.6247 77.35C51.8134 77.8353 52.083 78.2397 52.3796 78.5632C52.7031 78.8868 53.0536 79.1294 53.431 79.2912C53.8085 79.453 54.2399 79.5338 54.7251 79.5338C55.3722 79.5338 55.9384 79.3721 56.4237 79.0485C56.909 78.725 57.2594 78.2936 57.5021 77.7005C57.7447 77.1343 57.8526 76.4603 57.8526 75.7054C57.8526 75.0584 57.7717 74.4652 57.6099 73.926C57.5021 73.6025 57.3673 73.3059 57.2055 73.0363C57.0438 72.7667 56.8281 72.5241 56.5854 72.3353C56.3428 72.1466 56.0462 71.9579 55.6418 71.8231C55.2644 71.6883 54.833 71.6074 54.4016 71.6074C53.7546 71.6074 53.1884 71.7422 52.7031 72.0388C52.2178 72.3354 51.8673 72.7398 51.5977 73.279C51.3281 73.8721 51.2203 74.4922 51.2203 75.1662Z" fill="url(#paint5_linear)"/>
<path d="M60.3074 71.6883V71.3108C60.9275 71.3378 61.4398 71.3378 61.8712 71.3378C62.1677 71.3378 62.7069 71.3378 63.4888 71.3108C64.2707 71.2839 64.8099 71.2839 65.0795 71.2839C65.376 71.2839 65.6456 71.2839 65.8883 71.2839C66.1309 71.2839 66.3466 71.3108 66.5623 71.3108C66.4545 71.6613 66.4005 72.2545 66.3736 73.1442H65.9692C65.9422 72.6589 65.8883 72.2814 65.8074 72.0118C65.5917 71.9309 65.3491 71.877 65.0256 71.85C64.729 71.8231 64.3515 71.7961 63.9471 71.7961C63.5427 71.7961 63.1113 71.8231 62.68 71.877C62.653 72.0927 62.653 72.3084 62.6261 72.4971C62.6261 72.6049 62.5991 73.0633 62.5991 73.8721V75.2201C63.0574 75.2201 63.4618 75.2471 63.7854 75.2471C64.2976 75.2471 64.702 75.2201 65.0256 75.1662C65.1334 75.1392 65.2143 75.1123 65.2412 75.0584C65.2682 75.0044 65.3221 74.8427 65.3491 74.5461L65.403 74.1687H65.7804L65.7265 75.5437L65.7804 77.0265H65.43L65.376 76.649C65.3221 76.2177 65.2952 75.975 65.2682 75.9481C65.2412 75.8941 65.1604 75.8402 65.0256 75.8133C64.7829 75.7593 64.2707 75.7324 63.4618 75.7324C63.1653 75.7324 62.8687 75.7324 62.5721 75.7593V76.9726C62.5721 77.5118 62.5721 78.051 62.5991 78.5902C62.5991 78.9676 62.6261 79.2103 62.68 79.2642C62.7339 79.3451 62.8148 79.399 62.8957 79.426C63.0035 79.4529 63.3001 79.4799 63.7584 79.4799V79.8574C63.2462 79.8304 62.7339 79.8034 62.2217 79.8034C61.7633 79.8034 61.0893 79.8304 60.2266 79.8574V79.5338C60.7119 79.5338 60.9815 79.5069 61.0893 79.4799C61.1971 79.4529 61.278 79.399 61.305 79.3451C61.3589 79.2642 61.3859 79.0755 61.3859 78.752C61.3859 78.6711 61.3859 78.1049 61.4128 77.0265V74.2226C61.4128 73.6834 61.4128 73.1442 61.3859 72.6049C61.3859 72.2275 61.3319 71.9848 61.305 71.9309C61.2511 71.85 61.1971 71.7961 61.0893 71.7692C61.0623 71.7152 60.7658 71.7152 60.3074 71.6883Z" fill="url(#paint6_linear)"/>
<path d="M79.8832 79.453C79.2631 79.6686 78.7778 79.8304 78.3734 79.9113C77.6724 80.0461 77.0253 80.1 76.4052 80.1C75.4616 80.1 74.6528 79.9113 73.9248 79.5608C73.1969 79.2103 72.6307 78.6711 72.2533 78.024C71.8489 77.377 71.6602 76.5951 71.6602 75.7054C71.6602 74.9236 71.795 74.2495 72.0915 73.7103C72.3881 73.1711 72.7386 72.7128 73.143 72.3623C73.5744 72.0118 74.0057 71.7422 74.4101 71.5804C75.0572 71.3108 75.866 71.203 76.8096 71.203C77.268 71.203 77.7263 71.2569 78.2116 71.3648C78.6969 71.4726 79.2631 71.6074 79.8832 71.7692C79.8292 71.9849 79.7753 72.1736 79.7483 72.3623C79.7214 72.551 79.6675 72.9554 79.6135 73.5755H79.2361L79.2091 72.8746C79.2091 72.7667 79.2091 72.6858 79.2091 72.6319C79.2091 72.578 79.1822 72.4971 79.1282 72.3893C79.0204 72.2545 78.8586 72.1197 78.616 71.9849C78.2116 71.8231 77.8611 71.7152 77.5915 71.6613C77.3219 71.6074 76.9984 71.5804 76.6209 71.5804C75.866 71.5804 75.192 71.7422 74.6258 72.0657C74.0597 72.3893 73.6283 72.8746 73.3587 73.4677C73.0621 74.0878 72.9273 74.7348 72.9273 75.4628C72.9273 76.2716 73.0891 76.9726 73.4396 77.6196C73.79 78.2667 74.2214 78.752 74.7876 79.0755C75.3538 79.426 76.0278 79.5878 76.7827 79.5878C77.1332 79.5878 77.4837 79.5608 77.8072 79.4799C78.1307 79.399 78.4273 79.3181 78.643 79.1833C78.6699 79.0216 78.6969 78.752 78.6969 78.4015V77.7275C78.6969 77.377 78.6699 77.1613 78.643 77.1074C78.616 77.0535 78.5082 76.9995 78.3464 76.9726C78.1846 76.9456 77.8072 76.9187 77.241 76.8917V76.5142L79.1282 76.5682C79.5057 76.5682 79.8831 76.5412 80.2606 76.5142L80.2876 76.8108L79.8292 77.0804C79.7753 77.5118 79.7483 77.9162 79.7483 78.2667C79.7483 78.6172 79.8562 79.0216 79.8832 79.453Z" fill="url(#paint7_linear)"/>
<path d="M81.6602 75.6785C81.6602 75.0314 81.768 74.4383 81.9567 73.8991C82.1454 73.3599 82.469 72.8746 82.9003 72.4432C83.3317 72.0118 83.844 71.6883 84.4101 71.4726C84.9763 71.2569 85.6234 71.1491 86.3243 71.1491C86.9984 71.1491 87.5915 71.23 88.1307 71.4187C88.6699 71.6074 89.1283 71.8501 89.4787 72.1736C89.8292 72.4702 90.0988 72.8206 90.3145 73.1981C90.4763 73.4677 90.5841 73.7912 90.692 74.1687C90.7729 74.5461 90.8268 74.9505 90.8268 75.3549C90.8268 76.703 90.3684 77.8353 89.4518 78.752C88.5351 79.6686 87.3758 80.1 86.0008 80.1C85.3538 80.1 84.7876 79.9922 84.2214 79.8034C83.6822 79.5878 83.1969 79.2912 82.8195 78.8868C82.442 78.4824 82.1454 77.9971 81.9567 77.4039C81.741 76.8108 81.6602 76.2446 81.6602 75.6785ZM82.9003 75.1662C82.9003 75.5437 82.9273 75.9481 83.0082 76.3255C83.0891 76.7299 83.1699 77.0535 83.3047 77.35C83.4935 77.8353 83.7631 78.2397 84.0597 78.5632C84.3832 78.8868 84.7337 79.1294 85.1111 79.2912C85.4886 79.453 85.9199 79.5338 86.4052 79.5338C87.0523 79.5338 87.6185 79.3721 88.1037 79.0485C88.589 78.725 88.9395 78.2936 89.1822 77.7005C89.4248 77.1343 89.5327 76.4603 89.5327 75.7054C89.5327 75.0584 89.4518 74.4652 89.29 73.926C89.1822 73.6025 89.0474 73.3059 88.8586 73.0363C88.6969 72.7667 88.4812 72.5241 88.2386 72.3353C87.9959 72.1466 87.6993 71.9579 87.2949 71.8231C86.9175 71.6883 86.4861 71.6074 86.0547 71.6074C85.4077 71.6074 84.8415 71.7422 84.3562 72.0388C83.8709 72.3354 83.5204 72.7398 83.2508 73.279C83.0351 73.8721 82.9003 74.4922 82.9003 75.1662Z" fill="url(#paint8_linear)"/>
<path d="M92.5005 79.9113V79.5878C92.7432 79.4799 92.9049 79.3721 92.9858 79.3182C93.0397 79.2912 93.0667 79.2373 93.0667 79.1834C93.0937 79.0755 93.1206 78.8329 93.1476 78.4554C93.1745 77.8892 93.1745 77.5657 93.1745 77.4579V74.1956C93.1745 73.6564 93.1745 73.1172 93.1476 72.578C93.1476 72.2006 93.0937 71.9579 93.0667 71.904C93.0128 71.8231 92.9589 71.7692 92.851 71.7422C92.7432 71.7153 92.4466 71.6883 91.9883 71.6883V71.3109C92.9858 71.3378 93.579 71.3648 93.8216 71.3648C94.0912 71.3648 94.6574 71.3378 95.5471 71.3109V71.6883C95.0618 71.6883 94.7652 71.7153 94.6843 71.7422C94.5765 71.7692 94.5226 71.8231 94.4687 71.877C94.4147 71.9579 94.3878 72.1466 94.3878 72.4702C94.3878 72.551 94.3878 73.1172 94.3608 74.1956V78.2667C94.3608 78.6981 94.3608 79.0485 94.3878 79.2912C94.8461 79.3182 95.3044 79.3451 95.7628 79.3451C96.8951 79.3451 97.7039 79.2642 98.1623 79.1294C98.2162 79.0216 98.2701 78.8598 98.2971 78.725L98.5397 77.7275H98.9441C98.8632 78.3206 98.7554 79.0486 98.6745 79.8574C98.5127 79.8843 98.3779 79.9113 98.2701 79.9113C98.0544 79.9113 97.7309 79.9382 97.2995 79.9382L93.7138 79.8843C93.2824 79.8574 92.9049 79.8843 92.5005 79.9113Z" fill="url(#paint9_linear)"/>
<path d="M100.452 79.9113V79.6147C100.694 79.4799 100.883 79.3721 101.045 79.2642C101.072 78.9946 101.099 78.6172 101.099 78.1319C101.126 77.2961 101.153 76.7299 101.153 76.4064V73.926C101.153 73.5216 101.153 73.0633 101.126 72.5241C101.099 72.2006 101.072 71.9849 101.045 71.904C101.018 71.8501 100.964 71.8231 100.91 71.7961C100.775 71.7422 100.506 71.7153 100.074 71.7153V71.3378C100.667 71.3648 101.18 71.3648 101.638 71.3648C101.988 71.3648 102.447 71.3648 103.067 71.3378C103.66 71.3109 104.118 71.3109 104.469 71.3109C105.466 71.3109 106.248 71.4457 106.841 71.6883C107.434 71.9309 107.947 72.3623 108.378 72.9555C108.809 73.5486 108.998 74.2765 108.998 75.1393C108.998 75.7594 108.89 76.3255 108.702 76.8647C108.513 77.404 108.243 77.8623 107.893 78.2667C107.542 78.6711 107.192 78.9946 106.814 79.2103C106.437 79.453 106.033 79.6147 105.601 79.7495C105.17 79.8574 104.604 79.9382 103.849 79.9382C103.606 79.9382 103.283 79.9382 102.851 79.9113C102.312 79.8843 101.934 79.8843 101.773 79.8843C101.503 79.8574 101.072 79.8843 100.452 79.9113ZM102.339 79.2642C102.77 79.3451 103.256 79.3721 103.741 79.3721C104.253 79.3721 104.711 79.3182 105.089 79.2373C105.466 79.1564 105.817 79.0216 106.086 78.8598C106.356 78.6981 106.626 78.4554 106.895 78.1319C107.165 77.8084 107.354 77.4039 107.488 76.9187C107.623 76.4334 107.704 75.9211 107.704 75.4089C107.704 74.654 107.569 74.0069 107.3 73.4677C107.03 72.9285 106.626 72.5241 106.086 72.2275C105.547 71.9309 104.792 71.7961 103.849 71.7961C103.363 71.7961 102.851 71.8231 102.339 71.904C102.339 72.0927 102.312 72.4432 102.312 72.9555L102.285 73.8451V76.2716L102.312 78.1588C102.312 78.4285 102.312 78.8059 102.339 79.2642Z" fill="url(#paint10_linear)"/>
<path d="M71.2535 62.2251H37.9572C35.3959 62.2251 33.293 60.1222 33.293 57.5609V4.66419C33.293 2.10293 35.3959 0 37.9572 0H71.2535C73.8148 0 75.9177 2.10293 75.9177 4.66419V57.5609C75.9177 60.1222 73.8148 62.2251 71.2535 62.2251ZM37.9572 1.07842C35.989 1.07842 34.3714 2.69606 34.3714 4.66419V57.5609C34.3714 59.5291 35.989 61.1467 37.9572 61.1467H71.2535C73.2217 61.1467 74.8393 59.5291 74.8393 57.5609V4.66419C74.8393 2.69606 73.2217 1.07842 71.2535 1.07842H37.9572Z" fill="url(#paint11_linear)"/>
<path d="M62.7631 53.5438C60.8219 54.1909 59.2582 54.6222 58.0719 54.8379C55.969 55.2154 54.0278 55.431 52.2214 55.431C49.4984 55.431 47.2068 54.8918 45.3465 53.8404C43.4862 52.7889 42.1921 51.2791 41.4911 49.3649C40.7901 47.4507 40.7362 45.186 41.3563 42.5708C41.8955 40.2792 42.7583 38.338 43.9715 36.7204C45.1847 35.1297 46.5058 33.8086 47.9886 32.7572C49.4715 31.7327 50.8734 30.9508 52.2484 30.4655C54.3244 29.7106 56.7508 29.3332 59.5278 29.3332C60.8219 29.3332 62.1699 29.4949 63.5449 29.7915C64.9199 30.0881 66.4567 30.4655 68.1282 30.9778C67.8047 31.5709 67.5351 32.164 67.3194 32.7302C67.0767 33.2964 66.6993 34.4826 66.1062 36.262H65.0277L65.4052 34.24C65.4591 33.9434 65.513 33.7008 65.54 33.5121C65.567 33.3233 65.54 33.0807 65.4861 32.7841C65.2704 32.3527 64.866 31.9753 64.2459 31.6518C63.1675 31.1934 62.2508 30.8969 61.4959 30.7351C60.741 30.5733 59.8243 30.5194 58.7459 30.5194C56.5082 30.5194 54.4592 31.0047 52.5989 31.9483C50.7386 32.892 49.1749 34.267 47.9347 36.0464C46.6676 37.8258 45.8048 39.7669 45.2926 41.8699C44.7533 44.1885 44.7533 46.2644 45.2926 48.1247C45.8318 49.985 46.8293 51.3869 48.2313 52.3845C49.6602 53.3551 51.4665 53.8673 53.6504 53.8673C54.6749 53.8673 55.6994 53.7595 56.7239 53.5708C57.7484 53.382 58.6381 53.0855 59.393 52.735C59.6087 52.2767 59.8513 51.5218 60.0939 50.4703L60.5523 48.5022C60.7949 47.4777 60.8758 46.8576 60.8219 46.6958C60.768 46.5071 60.4984 46.3992 60.067 46.2914C59.6356 46.2105 58.5841 46.1296 56.9126 46.0757L57.1552 44.9973L62.6282 45.1321C63.7067 45.1321 64.8121 45.0782 65.9444 44.9973L65.8635 45.8331L64.3537 46.6149C63.9224 47.8821 63.5719 49.0414 63.3292 50.0928C63.1135 51.1443 62.8979 52.3036 62.7631 53.5438Z" fill="url(#paint12_linear)"/>
<path d="M43.3799 36.3699C43.9191 35.6419 44.5122 34.9679 45.1053 34.3748C45.0784 33.2694 45.0784 32.1371 45.0784 30.9778V20.5979C45.0784 17.4974 45.1323 15.2327 45.2671 13.7769C46.7499 13.3185 48.1519 13.0759 49.473 13.0759C50.9288 13.0759 52.169 13.3185 53.1935 13.8038C54.218 14.2891 54.9729 15.0171 55.4852 15.9607C55.9974 16.9043 56.2401 17.9827 56.2401 19.142C56.2401 20.3553 55.9705 21.4607 55.4582 22.4852C54.946 23.4827 54.218 24.2376 53.3014 24.7498C52.3847 25.2621 51.3872 25.5047 50.3627 25.5047C49.6617 25.5047 48.6911 25.3699 47.4779 25.1003L47.9092 26.6371C48.9338 26.8258 49.8774 26.9337 50.7401 26.9337C51.7916 26.9337 52.7082 26.7989 53.544 26.5562C54.7572 26.2057 55.9166 25.6126 57.0219 24.7768C58.1273 23.941 58.9901 22.9435 59.5562 21.7572C60.1494 20.5709 60.419 19.3577 60.419 18.1715C60.419 16.8234 60.0685 15.6372 59.3675 14.5857C58.6665 13.5342 57.696 12.7793 56.4558 12.294C55.2156 11.8087 53.4901 11.5661 51.3063 11.5661C51.0097 11.5661 50.6862 11.5661 50.3087 11.5931L47.0735 11.7009C45.8602 11.7279 44.7279 11.7548 43.6495 11.7548C42.0588 11.7548 39.875 11.7009 37.125 11.62V12.9411C38.7426 12.9681 39.7402 13.0489 40.0907 13.1568C40.4412 13.2646 40.6838 13.4533 40.8456 13.696C41.0073 13.9386 41.1152 14.6935 41.1421 16.0146C41.1961 17.794 41.1961 19.6273 41.1961 21.4876V31.0047C41.1421 34.6174 41.1152 36.5586 41.1152 36.8552C41.0613 37.9066 40.9804 38.5807 40.8186 38.8503C40.6838 39.0659 40.4412 39.2277 40.0907 39.3355C39.7402 39.4434 38.7426 39.5243 37.125 39.5512V40.8723C38.7696 40.8184 40.0907 40.7914 41.1152 40.7645C41.7083 39.0659 42.4362 37.6101 43.3799 36.3699Z" fill="url(#paint13_linear)"/>
<path d="M49.1758 39.4973C48.0165 39.4704 47.1808 39.4434 46.6685 39.3625C46.4798 39.7939 46.318 40.2522 46.1562 40.6836C47.019 40.7105 48.0165 40.7375 49.1489 40.7914V39.4973H49.1758Z" fill="url(#paint14_linear)"/>
</g>
<defs>
<linearGradient id="paint0_linear" x1="-0.270997" y1="78.6479" x2="6.89114" y2="71.4858" gradientUnits="userSpaceOnUse">
<stop stop-color="#8A8A8A"/>
<stop offset="0.5829" stop-color="#D1D1D1"/>
<stop offset="1" stop-color="#F2F2F2"/>
</linearGradient>
<linearGradient id="paint1_linear" x1="8.88635" y1="79.7501" x2="16.0665" y2="72.5699" gradientUnits="userSpaceOnUse">
<stop stop-color="#8A8A8A"/>
<stop offset="0.5829" stop-color="#D1D1D1"/>
<stop offset="1" stop-color="#F2F2F2"/>
</linearGradient>
<linearGradient id="paint2_linear" x1="19.1798" y1="78.9029" x2="25.8741" y2="72.2086" gradientUnits="userSpaceOnUse">
<stop stop-color="#8A8A8A"/>
<stop offset="0.5829" stop-color="#D1D1D1"/>
<stop offset="1" stop-color="#F2F2F2"/>
</linearGradient>
<linearGradient id="paint3_linear" x1="29.5484" y1="78.9029" x2="36.2427" y2="72.2086" gradientUnits="userSpaceOnUse">
<stop stop-color="#8A8A8A"/>
<stop offset="0.5829" stop-color="#D1D1D1"/>
<stop offset="1" stop-color="#F2F2F2"/>
</linearGradient>
<linearGradient id="paint4_linear" x1="37.4206" y1="78.6449" x2="44.8327" y2="71.2328" gradientUnits="userSpaceOnUse">
<stop stop-color="#8A8A8A"/>
<stop offset="0.5829" stop-color="#D1D1D1"/>
<stop offset="1" stop-color="#F2F2F2"/>
</linearGradient>
<linearGradient id="paint5_linear" x1="51.1543" y1="78.9028" x2="57.8486" y2="72.2085" gradientUnits="userSpaceOnUse">
<stop stop-color="#8A8A8A"/>
<stop offset="0.5829" stop-color="#D1D1D1"/>
<stop offset="1" stop-color="#F2F2F2"/>
</linearGradient>
<linearGradient id="paint6_linear" x1="59.0268" y1="78.6449" x2="66.4389" y2="71.2328" gradientUnits="userSpaceOnUse">
<stop stop-color="#8A8A8A"/>
<stop offset="0.5829" stop-color="#D1D1D1"/>
<stop offset="1" stop-color="#F2F2F2"/>
</linearGradient>
<linearGradient id="paint7_linear" x1="73.2305" y1="79.1517" x2="80.3014" y2="72.0808" gradientUnits="userSpaceOnUse">
<stop stop-color="#8A8A8A"/>
<stop offset="0.5829" stop-color="#D1D1D1"/>
<stop offset="1" stop-color="#F2F2F2"/>
</linearGradient>
<linearGradient id="paint8_linear" x1="82.8484" y1="78.9029" x2="89.5428" y2="72.2085" gradientUnits="userSpaceOnUse">
<stop stop-color="#8A8A8A"/>
<stop offset="0.5829" stop-color="#D1D1D1"/>
<stop offset="1" stop-color="#F2F2F2"/>
</linearGradient>
<linearGradient id="paint9_linear" x1="91.7179" y1="79.1385" x2="97.531" y2="73.3254" gradientUnits="userSpaceOnUse">
<stop stop-color="#8A8A8A"/>
<stop offset="0.5829" stop-color="#D1D1D1"/>
<stop offset="1" stop-color="#F2F2F2"/>
</linearGradient>
<linearGradient id="paint10_linear" x1="99.6641" y1="79.1157" x2="107.147" y2="71.6332" gradientUnits="userSpaceOnUse">
<stop stop-color="#8A8A8A"/>
<stop offset="0.5829" stop-color="#D1D1D1"/>
<stop offset="1" stop-color="#F2F2F2"/>
</linearGradient>
<linearGradient id="paint11_linear" x1="29.7544" y1="55.9519" x2="79.4441" y2="6.26229" gradientUnits="userSpaceOnUse">
<stop stop-color="#FAC929"/>
<stop offset="0.1484" stop-color="#FDE79A"/>
<stop offset="0.3297" stop-color="#FAC929"/>
<stop offset="0.7894" stop-color="#FEF8C2"/>
<stop offset="1" stop-color="#FAC929"/>
</linearGradient>
<linearGradient id="paint12_linear" x1="44.702" y1="53.655" x2="67.7526" y2="30.6045" gradientUnits="userSpaceOnUse">
<stop stop-color="#FAC929"/>
<stop offset="0.5158" stop-color="#FEF8C2"/>
<stop offset="1" stop-color="#FAC929"/>
</linearGradient>
<linearGradient id="paint13_linear" x1="30.8398" y1="34.5044" x2="55.1525" y2="10.1917" gradientUnits="userSpaceOnUse">
<stop offset="0.1312" stop-color="#8A8A8A"/>
<stop offset="0.1898" stop-color="#8F8F8F"/>
<stop offset="0.2584" stop-color="#9D9D9D"/>
<stop offset="0.3318" stop-color="#B4B4B4"/>
<stop offset="0.4004" stop-color="#D1D1D1"/>
<stop offset="0.6063" stop-color="#D5D5D5"/>
<stop offset="0.8192" stop-color="#E2E2E2"/>
<stop offset="1" stop-color="#F2F2F2"/>
</linearGradient>
<linearGradient id="paint14_linear" x1="46.7436" y1="41.2744" x2="48.847" y2="39.1709" gradientUnits="userSpaceOnUse">
<stop offset="0.1312" stop-color="#8A8A8A"/>
<stop offset="0.1898" stop-color="#8F8F8F"/>
<stop offset="0.2584" stop-color="#9D9D9D"/>
<stop offset="0.3318" stop-color="#B4B4B4"/>
<stop offset="0.4004" stop-color="#D1D1D1"/>
<stop offset="0.6063" stop-color="#D5D5D5"/>
<stop offset="0.8192" stop-color="#E2E2E2"/>
<stop offset="1" stop-color="#F2F2F2"/>
</linearGradient>
<clipPath id="clip0">
<rect width="108.004" height="80.1" fill="white" transform="translate(0.996094)"/>
</clipPath>
</defs>
</svg>
