<svg width="35" height="35" viewBox="0 0 35 35" fill="none" xmlns="http://www.w3.org/2000/svg">
    <path d="M22.627 17.5C22.627 16.9337 22.1679 16.4746 21.6016 16.4746C19.9054 16.4746 18.5254 15.0946 18.5254 13.3984C18.5254 12.8321 18.0663 12.373 17.5 12.373C16.9337 12.373 16.4746 12.8321 16.4746 13.3984C16.4746 15.0946 15.0946 16.4746 13.3984 16.4746C12.8321 16.4746 12.373 16.9337 12.373 17.5C12.373 18.0663 12.8321 18.5254 13.3984 18.5254C15.0946 18.5254 16.4746 19.9054 16.4746 21.6016C16.4746 22.1679 16.9337 22.627 17.5 22.627C18.0663 22.627 18.5254 22.1679 18.5254 21.6016C18.5254 19.9054 19.9054 18.5254 21.6016 18.5254C22.1679 18.5254 22.627 18.0663 22.627 17.5ZM17.5 18.5289C17.2074 18.1393 16.8606 17.7926 16.4711 17.5C16.8607 17.2074 17.2074 16.8606 17.5 16.4711C17.7926 16.8607 18.1394 17.2074 18.5289 17.5C18.1394 17.7926 17.7926 18.1394 17.5 18.5289Z" fill="black"/>
    <path d="M17.5 10.3223C18.0663 10.3223 18.5254 9.86316 18.5254 9.29688V1.02539C18.5254 0.459102 18.0663 0 17.5 0C16.9337 0 16.4746 0.459102 16.4746 1.02539V9.29688C16.4746 9.86316 16.9337 10.3223 17.5 10.3223Z" fill="black"/>
    <path d="M17.5 24.6777C16.9337 24.6777 16.4746 25.1368 16.4746 25.7031V33.9746C16.4746 34.5409 16.9337 35 17.5 35C18.0663 35 18.5254 34.5409 18.5254 33.9746V25.7031C18.5254 25.1368 18.0663 24.6777 17.5 24.6777Z" fill="black"/>
    <path d="M11.9402 6.47545L13.4767 10.2784C13.6891 10.8042 14.2873 11.0568 14.8115 10.845C15.3366 10.6329 15.5903 10.0352 15.3781 9.51013L13.8416 5.70723C13.6295 5.18216 13.0317 4.92848 12.5068 5.1406C11.9817 5.35272 11.728 5.95038 11.9402 6.47545Z" fill="black"/>
    <path d="M23.0597 28.5245L21.5233 24.7216C21.3111 24.1965 20.7132 23.9429 20.1884 24.155C19.6634 24.3671 19.4097 24.9647 19.6218 25.4899L21.1582 29.2928C21.3707 29.8187 21.9688 30.0712 22.4931 29.8594C23.0182 29.6473 23.2718 29.0496 23.0597 28.5245Z" fill="black"/>
    <path d="M10.9739 12.4245C11.3743 12.8249 12.0235 12.8249 12.424 12.4245C12.8244 12.024 12.8244 11.3748 12.424 10.9744L6.62349 5.17387C6.22311 4.77342 5.57383 4.77342 5.17338 5.17387C4.77293 5.57432 4.77293 6.22353 5.17338 6.62398L10.9739 12.4245Z" fill="black"/>
    <path d="M24.0258 22.5755C23.6255 22.175 22.9762 22.175 22.5757 22.5755C22.1753 22.9759 22.1753 23.6251 22.5757 24.0256L28.3763 29.8261C28.7767 30.2265 29.4259 30.2265 29.8264 29.8261C30.2268 29.4256 30.2268 28.7764 29.8264 28.376L24.0258 22.5755Z" fill="black"/>
    <path d="M10.3223 17.5C10.3223 16.9337 9.86316 16.4746 9.29688 16.4746H1.02539C0.459102 16.4746 0 16.9337 0 17.5C0 18.0663 0.459102 18.5254 1.02539 18.5254H9.29688C9.86316 18.5254 10.3223 18.0663 10.3223 17.5Z" fill="black"/>
    <path d="M33.9746 16.4746H25.7031C25.1368 16.4746 24.6777 16.9337 24.6777 17.5C24.6777 18.0663 25.1368 18.5254 25.7031 18.5254H33.9746C34.5409 18.5254 35 18.0663 35 17.5C35 16.9337 34.5409 16.4746 33.9746 16.4746Z" fill="black"/>
    <path d="M12.4259 22.5755C12.0256 22.175 11.3763 22.1751 10.9758 22.5755L5.17534 28.3759C4.77489 28.7764 4.77489 29.4256 5.17534 29.8261C5.57572 30.2264 6.225 30.2265 6.62544 29.8261L12.4259 24.0256C12.8264 23.6252 12.8264 22.9759 12.4259 22.5755Z" fill="black"/>
    <path d="M22.5757 12.4245C22.976 12.8249 23.6254 12.8249 24.0258 12.4245L29.8264 6.62398C30.2268 6.22353 30.2268 5.57432 29.8264 5.17387C29.4261 4.77342 28.7768 4.77342 28.3763 5.17387L22.5757 10.9744C22.1753 11.3748 22.1753 12.024 22.5757 12.4245Z" fill="black"/>
    <path d="M23.2626 31.7607C22.7376 31.9728 22.4839 32.5705 22.696 33.0956C22.9081 33.6206 23.5058 33.8743 24.0309 33.6622C24.5559 33.4501 24.8096 32.8524 24.5975 32.3273C24.3854 31.8023 23.7878 31.5486 23.2626 31.7607Z" fill="black"/>
    <path d="M11.789 3.21807C12.3009 2.97625 12.5199 2.36521 12.2781 1.85327C12.0363 1.34133 11.4252 1.12235 10.9133 1.36416C10.4013 1.60597 10.1824 2.21701 10.4242 2.72895C10.666 3.2409 11.277 3.45988 11.789 3.21807Z" fill="black"/>
    <path d="M10.3482 13.3509L6.57273 11.7483C6.05155 11.527 5.44945 11.7702 5.22823 12.2915C5.00702 12.8128 5.25018 13.4148 5.77149 13.6361L9.54697 15.2387C10.0658 15.459 10.6692 15.2192 10.8915 14.6955C11.1127 14.1741 10.8695 13.5722 10.3482 13.3509Z" fill="black"/>
    <path d="M24.6504 21.649L28.4258 23.2517C28.9448 23.4719 29.5481 23.232 29.7703 22.7084C29.9916 22.1871 29.7484 21.5851 29.2272 21.3638L25.4517 19.7612C24.9305 19.5399 24.3285 19.7832 24.1072 20.3045C23.8859 20.8258 24.1291 21.4278 24.6504 21.649Z" fill="black"/>
    <path d="M33.3235 24.6138C33.7216 24.2111 33.7179 23.562 33.3153 23.1639C32.9126 22.7657 32.2635 22.7694 31.8654 23.1721C31.4673 23.5747 31.4709 24.2239 31.8736 24.622C32.2762 25.0201 32.9254 25.0164 33.3235 24.6138Z" fill="black"/>
    <path d="M3.02812 11.8971C3.47551 11.5499 3.55676 10.9058 3.20962 10.4584C2.86247 10.0111 2.21838 9.92981 1.771 10.277C1.32361 10.6241 1.24236 11.2682 1.5895 11.7156C1.93665 12.163 2.58074 12.2442 3.02812 11.8971Z" fill="black"/>
    <path d="M9.50891 19.6223L5.70601 21.1587C5.18094 21.3709 4.92726 21.9685 5.13938 22.4936C5.35184 23.0195 5.94998 23.2721 6.47423 23.0602L10.2771 21.5238C10.8022 21.3117 11.0559 20.714 10.8438 20.1889C10.6316 19.6638 10.0338 19.4102 9.50891 19.6223Z" fill="black"/>
    <path d="M25.4899 15.3778L29.2928 13.8414C29.8179 13.6293 30.0716 13.0316 29.8594 12.5065C29.6473 11.9814 29.0494 11.7278 28.5246 11.9399L24.7216 13.4763C24.1966 13.6885 23.9429 14.2861 24.155 14.8112C24.3675 15.3369 24.9654 15.5897 25.4899 15.3778Z" fill="black"/>
    <path d="M33.0953 12.3048C33.6204 12.0927 33.8741 11.495 33.6619 10.9699C33.4498 10.4449 32.8522 10.1912 32.3271 10.4033C31.802 10.6154 31.5484 11.2131 31.7605 11.7381C31.9727 12.2633 32.5703 12.517 33.0953 12.3048Z" fill="black"/>
    <path d="M1.90327 22.6953C1.3782 22.9074 1.12452 23.5051 1.33664 24.0302C1.54876 24.5552 2.14643 24.8089 2.6715 24.5968C3.19657 24.3847 3.45025 23.787 3.23813 23.2619C3.02594 22.7368 2.42834 22.4831 1.90327 22.6953Z" fill="black"/>
    <path d="M14.6969 24.1072C14.1757 23.8859 13.5736 24.1291 13.3524 24.6504L11.7497 28.4259C11.5285 28.9471 11.7717 29.5491 12.293 29.7704C12.8118 29.9907 13.4153 29.7509 13.6375 29.2271L15.2401 25.4517C15.4614 24.9304 15.2182 24.3284 14.6969 24.1072Z" fill="black"/>
    <path d="M20.3047 10.8929C20.8236 11.1132 21.427 10.8733 21.6492 10.3497L23.2518 6.57426C23.4731 6.05295 23.2299 5.45098 22.7087 5.2297C22.1874 5.00849 21.5854 5.25164 21.3641 5.77288L19.7615 9.54837C19.5402 10.0697 19.7834 10.6716 20.3047 10.8929Z" fill="black"/>
    <path d="M23.5098 3.34166C24.0311 3.56294 24.6331 3.31972 24.8543 2.79841C25.0756 2.2771 24.8324 1.67513 24.3111 1.45385C23.7898 1.23257 23.1878 1.47579 22.9665 1.9971C22.7453 2.51848 22.9885 3.12038 23.5098 3.34166Z" fill="black"/>
    <path d="M11.4907 31.6582C10.9694 31.4369 10.3674 31.6801 10.1462 32.2014C9.92495 32.7228 10.1682 33.3247 10.6895 33.546C11.2108 33.7673 11.8128 33.5241 12.034 33.0028C12.2553 32.4814 12.012 31.8795 11.4907 31.6582Z" fill="black"/>
</svg>
