<svg width="37" height="37" viewBox="0 0 37 37" fill="none" xmlns="http://www.w3.org/2000/svg">
    <path d="M36.8816 15.5784L30.9566 6.54339C30.8229 6.33975 30.5959 6.21704 30.3523 6.21704H6.67574C6.43271 6.21704 6.20602 6.33917 6.07233 6.54216L0.137728 15.5502C0.109472 15.5892 0.0849743 15.6312 0.0645232 15.6762C-0.0526194 15.9345 -0.00781474 16.2373 0.179064 16.4506L3.18712 19.8852C3.4501 20.1855 3.90653 20.2157 4.20672 19.9528C4.50691 19.6898 4.53712 19.2333 4.27421 18.9332L2.31603 16.6972H12.0358L16.92 33.3723L11.4008 27.0704C11.1379 26.7701 10.6813 26.7399 10.3812 27.0028C10.081 27.2658 10.0508 27.7223 10.3137 28.0224L17.9586 36.7514C18.0958 36.9081 18.294 36.998 18.5022 36.998C18.7105 36.998 18.9086 36.9081 19.0457 36.7514L27.185 27.4557C27.448 27.1554 27.4177 26.6989 27.1174 26.4361C26.817 26.1731 26.3605 26.2034 26.0978 26.5037L20.0846 33.3714L24.9686 16.6971H34.6843L30.1906 21.8295C29.9276 22.1297 29.9579 22.5862 30.2583 22.849C30.3953 22.9692 30.565 23.028 30.734 23.028C30.935 23.028 31.1351 22.9446 31.2779 22.7814L36.8211 16.4506C37.0348 16.2065 37.0596 15.8498 36.8816 15.5784ZM2.06484 15.2521L6.6743 8.25522L11.2628 15.2521H2.06484ZM8.01367 7.66228H17.1642L12.589 14.6389L8.01367 7.66228ZM18.5022 8.25732L23.0892 15.2521H13.9151L18.5022 8.25732ZM18.5022 33.6327L13.5417 16.6972H23.4626L18.5022 33.6327ZM24.4272 14.657L19.8402 7.66228H29.0144L24.4272 14.657ZM25.7652 15.2521L30.3523 8.25732L34.9393 15.2521H25.7652Z" fill="black"/>
    <path d="M11.3583 23.6321C9.49437 23.6321 7.97788 22.1156 7.97788 20.2516C7.97788 19.8526 7.65435 19.5291 7.2553 19.5291C6.85625 19.5291 6.53271 19.8526 6.53271 20.2516C6.53271 22.1156 5.01622 23.6321 3.15227 23.6321C2.75329 23.6321 2.42969 23.9556 2.42969 24.3547C2.42969 24.7537 2.75329 25.0772 3.15227 25.0772C5.01622 25.0772 6.53271 26.5937 6.53271 28.4577C6.53271 28.8567 6.85632 29.1803 7.2553 29.1803C7.65428 29.1803 7.97788 28.8567 7.97788 28.4577C7.97788 26.5937 9.49437 25.0772 11.3583 25.0772C11.7574 25.0772 12.0809 24.7537 12.0809 24.3547C12.0809 23.9556 11.7574 23.6321 11.3583 23.6321ZM7.2553 25.92C6.86138 25.2854 6.32459 24.7487 5.69002 24.3547C6.32459 23.9607 6.8613 23.424 7.2553 22.7893C7.64922 23.424 8.18601 23.9607 8.82057 24.3547C8.18601 24.7487 7.64929 25.2853 7.2553 25.92Z" fill="black"/>
    <path d="M36.2767 2.89229C35.0814 2.89229 34.1089 1.91981 34.1089 0.724537C34.1089 0.325486 33.7853 0.00195312 33.3864 0.00195312C32.9874 0.00195312 32.6638 0.325486 32.6638 0.724537C32.6638 1.91981 31.6913 2.89229 30.496 2.89229C30.097 2.89229 29.7734 3.21582 29.7734 3.61487C29.7734 4.01392 30.097 4.33746 30.496 4.33746C31.6913 4.33746 32.6638 5.30994 32.6638 6.50521C32.6638 6.90426 32.9874 7.22779 33.3864 7.22779C33.7853 7.22779 34.1089 6.90426 34.1089 6.50521C34.1089 5.30994 35.0814 4.33746 36.2767 4.33746C36.6757 4.33746 36.9993 4.01392 36.9993 3.61487C36.9993 3.21582 36.6757 2.89229 36.2767 2.89229ZM33.3864 4.3397C33.1802 4.06523 32.936 3.82105 32.6615 3.61487C32.936 3.4087 33.1802 3.16451 33.3864 2.89005C33.5925 3.16451 33.8367 3.4087 34.1112 3.61487C33.8367 3.82097 33.5925 4.06523 33.3864 4.3397Z" fill="black"/>
    <path d="M29.1064 24.2359C28.9721 24.1008 28.7856 24.0242 28.5956 24.0242C28.4055 24.0242 28.2199 24.1008 28.0848 24.2359C27.9504 24.3703 27.873 24.5568 27.873 24.7468C27.873 24.9367 27.9503 25.1232 28.0848 25.2576C28.2192 25.392 28.4055 25.4693 28.5956 25.4693C28.7857 25.4693 28.9721 25.392 29.1064 25.2576C29.2408 25.1232 29.3182 24.9367 29.3182 24.7468C29.3182 24.5568 29.2409 24.3703 29.1064 24.2359Z" fill="black"/>
</svg>
