<svg width="36" height="31" viewBox="0 0 36 31" fill="none" xmlns="http://www.w3.org/2000/svg">
    <path d="M18 5.83573C18.5824 5.83573 19.0546 5.36353 19.0546 4.78108V1.05465C19.0546 0.472202 18.5824 0 18 0C17.4175 0 16.9453 0.472202 16.9453 1.05465V4.78108C16.9453 5.3636 17.4175 5.83573 18 5.83573Z" fill="black"/>
    <path d="M12.1822 7.62742C12.594 8.0393 13.2618 8.03937 13.6737 7.62742C14.0856 7.21554 14.0856 6.54781 13.6737 6.13593L11.0387 3.50092C10.6269 3.08905 9.95906 3.08905 9.54719 3.50092C9.13531 3.9128 9.13531 4.58053 9.54719 4.99241L12.1822 7.62742Z" fill="black"/>
    <path d="M23.0715 7.93624C23.3414 7.93624 23.6113 7.83331 23.8172 7.6273L26.4522 4.99229C26.8641 4.58041 26.8641 3.91268 26.4522 3.5008C26.0404 3.08893 25.3726 3.08893 24.9607 3.5008L22.3257 6.13581C21.6594 6.80214 22.1404 7.93624 23.0715 7.93624Z" fill="black"/>
    <path d="M35.9513 29.4266L33.1389 20.4269C33.0013 19.9866 32.5935 19.6868 32.1323 19.6868H27.2126L24.6314 11.4272C24.4938 10.9869 24.086 10.6871 23.6248 10.6871H12.3752C11.9139 10.6871 11.5061 10.9869 11.3685 11.4272L8.78739 19.6868H3.86766C3.40636 19.6868 2.99863 19.9866 2.86103 20.4269L0.0486297 29.4266C-0.163144 30.1042 0.343158 30.7958 1.05526 30.7958H34.9447C35.6545 30.7958 36.1637 30.1063 35.9513 29.4266ZM13.1506 12.7964H22.8494L25.0026 19.6868C23.3347 19.6868 12.6653 19.6868 10.9973 19.6868L13.1506 12.7964ZM18 26.2053L16.6221 21.7962H19.3778L18 26.2053ZM2.48979 28.6865L4.64304 21.7961H14.4122L16.5654 28.6865H2.48979ZM19.4345 28.6865L21.5878 21.7961H31.3568L33.5101 28.6865H19.4345Z" fill="black"/>
</svg>
