<svg width="34" height="34" viewBox="0 0 34 34" fill="none" xmlns="http://www.w3.org/2000/svg">
    <path d="M17 25.6328C16.6334 25.6328 16.3359 25.9303 16.3359 26.2969C16.3359 26.6634 16.6334 26.9609 17 26.9609C17.3666 26.9609 17.6641 26.6634 17.6641 26.2969C17.6641 25.9303 17.3666 25.6328 17 25.6328Z" fill="black"/>
    <path d="M31.1503 4.07535C29.5162 3.4172 27.3916 3.05469 25.168 3.05469C22.9444 3.05469 20.8198 3.4172 19.1856 4.07535C18.2199 4.46429 17.4826 4.93963 17 5.473C16.5174 4.93963 15.7801 4.46436 14.8144 4.07542C13.1802 3.4172 11.0556 3.05469 8.83203 3.05469C6.60842 3.05469 4.48382 3.4172 2.84969 4.07535C1.01203 4.81552 0 5.86805 0 7.03906V22.9766C0 24.1476 1.01203 25.2001 2.84969 25.9403C4.36953 26.5524 6.31377 26.9083 8.36719 26.9552V26.9609C8.36719 29.2324 12.0785 30.9453 17 30.9453C21.9215 30.9453 25.6328 29.2324 25.6328 26.9609V26.9552C27.6862 26.9083 29.6305 26.5524 31.1503 25.9403C32.988 25.2001 34 24.1476 34 22.9766V7.03906C34 5.86805 32.988 4.81552 31.1503 4.07535ZM32.6719 18.9922C32.6719 19.5591 31.8987 20.2226 30.6541 20.7239C29.3071 21.2665 27.4986 21.5947 25.6328 21.6419V18.9922C25.6328 18.9903 25.6327 18.9883 25.6327 18.9865C27.6862 18.9397 29.6304 18.5837 31.1504 17.9715C31.7469 17.7313 32.2558 17.4579 32.6719 17.1584L32.6719 18.9922ZM16.3359 11.0234C16.3359 11.5903 15.5628 12.2539 14.3182 12.7552C12.8594 13.3427 10.8598 13.6797 8.83203 13.6797C6.80425 13.6797 4.80463 13.3427 3.34588 12.7552C2.10129 12.2539 1.32812 11.5903 1.32812 11.0234V9.1897C1.74429 9.48919 2.25316 9.76252 2.84969 10.0028C4.48382 10.6609 6.60842 11.0234 8.83203 11.0234C11.0556 11.0234 13.1802 10.6609 14.8144 10.0028C15.4109 9.76252 15.9198 9.48919 16.3359 9.1897V11.0234ZM2.84969 13.9871C4.48382 14.6453 6.60842 15.0078 8.83203 15.0078C11.0556 15.0078 13.1802 14.6453 14.8144 13.9871C15.4109 13.7469 15.9198 13.4736 16.3359 13.1741V15.0196C14.618 15.0777 12.9705 15.3597 11.6379 15.829C10.3013 16.2997 9.33957 16.9275 8.81656 17.6639C6.79409 17.6621 4.80091 17.3256 3.34588 16.7396C2.10129 16.2383 1.32812 15.5747 1.32812 15.0078V13.1741C1.74429 13.4736 2.25316 13.7469 2.84969 13.9871ZM1.32812 17.1584C1.74429 17.4579 2.25316 17.7313 2.84969 17.9715C4.3696 18.5837 6.31391 18.9396 8.36739 18.9865C8.36739 18.9884 8.36725 18.9903 8.36725 18.9922V21.6419C6.50144 21.5947 4.693 21.2665 3.34595 20.7239C2.10129 20.2226 1.32812 19.5591 1.32812 18.9922V17.1584ZM9.76557 18.6659C10.2577 17.5206 13.0982 16.3359 17 16.3359C20.9018 16.3359 23.7423 17.5206 24.2339 18.6646C24.2816 18.7762 24.3047 18.8833 24.3047 18.9922C24.3047 19.576 23.5849 20.2246 22.3792 20.7269C20.9531 21.3212 19.0427 21.6484 17 21.6484C14.9573 21.6484 13.0469 21.3212 11.6208 20.7269C10.4151 20.2246 9.69531 19.576 9.69531 18.9922C9.69531 18.8833 9.71849 18.7762 9.76557 18.6659ZM32.6719 15.0078C32.6719 15.5747 31.8987 16.2383 30.6541 16.7396C29.1992 17.3256 27.206 17.6621 25.1836 17.6639C24.661 16.9279 23.6991 16.2999 22.3621 15.829C21.0295 15.3596 19.382 15.0777 17.6641 15.0196V13.1741C18.0802 13.4736 18.5891 13.7469 19.1856 13.9871C20.8198 14.6453 22.9444 15.0078 25.168 15.0078C27.3916 15.0078 29.5162 14.6453 31.1503 13.9871C31.7468 13.7469 32.2557 13.4736 32.6719 13.1741V15.0078ZM32.6719 11.0234C32.6719 11.5903 31.8987 12.2539 30.6541 12.7552C29.1954 13.3427 27.1957 13.6797 25.168 13.6797C23.1402 13.6797 21.1406 13.3427 19.6818 12.7552C18.4372 12.2539 17.6641 11.5903 17.6641 11.0234V9.1897C18.0802 9.48919 18.5891 9.76252 19.1856 10.0028C20.8198 10.6609 22.9444 11.0234 25.168 11.0234C27.3916 11.0234 29.5162 10.6609 31.1503 10.0028C31.7468 9.76252 32.2557 9.48919 32.6719 9.1897V11.0234ZM19.6818 5.30732C21.1406 4.71976 23.1402 4.38281 25.168 4.38281C27.1957 4.38281 29.1954 4.71976 30.6541 5.30732C31.8987 5.80862 32.6719 6.47215 32.6719 7.03906C32.6719 7.60597 31.8987 8.2695 30.6541 8.7708C29.1954 9.35837 27.1957 9.69531 25.168 9.69531C23.1402 9.69531 21.1406 9.35837 19.6818 8.7708C18.4372 8.2695 17.6641 7.60597 17.6641 7.03906C17.6641 6.47215 18.4372 5.80862 19.6818 5.30732ZM3.34588 5.30732C4.80463 4.71976 6.80425 4.38281 8.83203 4.38281C10.8598 4.38281 12.8594 4.71976 14.3182 5.30732C15.5628 5.80862 16.3359 6.47215 16.3359 7.03906C16.3359 7.60597 15.5628 8.2695 14.3182 8.7708C12.8594 9.35837 10.8598 9.69531 8.83203 9.69531C6.80425 9.69531 4.80463 9.35837 3.34588 8.7708C2.10129 8.2695 1.32812 7.60597 1.32812 7.03906C1.32812 6.47215 2.10129 5.80862 3.34588 5.30732ZM3.34588 24.7083C2.10129 24.207 1.32812 23.5435 1.32812 22.9766V21.1428C1.74429 21.4423 2.25316 21.7156 2.84969 21.9559C4.36953 22.568 6.31377 22.924 8.36719 22.9709V25.6263C6.50137 25.5791 4.69293 25.2509 3.34588 24.7083ZM22.3792 28.6957C20.9531 29.2899 19.0427 29.6172 17 29.6172C14.9573 29.6172 13.0469 29.2899 11.6208 28.6957C10.4151 28.1933 9.69531 27.5448 9.69531 26.9609V25.1659C9.84572 25.2747 10.0119 25.3829 10.1963 25.4896C11.2275 26.0863 12.6306 26.5277 14.254 26.766C14.2867 26.7708 14.3191 26.7731 14.3513 26.7731C14.6753 26.7731 14.9589 26.5355 15.0074 26.2054C15.0607 25.8425 14.8097 25.5052 14.4469 25.4519C11.3606 24.9988 9.69531 23.8384 9.69531 22.9766V21.1756C11.1984 22.2754 13.8515 22.9766 17 22.9766C20.1485 22.9766 22.8016 22.2754 24.3047 21.1756V22.9766C24.3047 23.8384 22.6394 24.9988 19.5531 25.4519C19.1903 25.5052 18.9393 25.8425 18.9926 26.2054C19.0411 26.5356 19.3247 26.7731 19.6487 26.7731C19.6808 26.7731 19.7134 26.7708 19.746 26.766C21.3693 26.5277 22.7724 26.0864 23.8037 25.4896C23.988 25.3829 24.1543 25.2747 24.3047 25.1659V26.9609C24.3047 27.5448 23.5849 28.1933 22.3792 28.6957ZM30.6541 24.7083C29.3071 25.2508 27.4986 25.5791 25.6328 25.6262V22.9708C27.6862 22.9239 29.6305 22.568 31.1503 21.9558C31.7468 21.7156 32.2557 21.4422 32.6719 21.1428V22.9766C32.6719 23.5435 31.8987 24.207 30.6541 24.7083Z" fill="black"/>
</svg>
