<svg width="38" height="38" viewBox="0 0 38 38" fill="none" xmlns="http://www.w3.org/2000/svg">
    <g clip-path="url(#clip0)">
        <path d="M37.5871 30.6922L29.7721 22.8773C29.506 22.6113 29.1524 22.4648 28.7761 22.4648C28.5158 22.4648 28.2672 22.5364 28.05 22.6677L23.6597 18.2773C23.4347 18.0524 23.0699 18.0524 22.8448 18.2773C22.6199 18.5023 22.6199 18.8671 22.8448 19.0921L27.205 23.4523L25.5987 25.0586L17.6012 17.0611L19.2075 15.4548L20.2777 16.5248C20.5026 16.7498 20.8674 16.7498 21.0925 16.5248C21.3174 16.2998 21.3174 15.935 21.0924 15.71L20.0223 14.64L22.8071 11.8553L23.0274 12.0756C23.3011 12.3493 23.665 12.5001 24.0522 12.5001C24.4394 12.5001 24.8032 12.3493 25.077 12.0756L26.1035 11.0492C26.3771 10.7755 26.5279 10.4115 26.5279 10.0244C26.5279 9.63731 26.3771 9.27334 26.1035 8.99969L18.2276 1.12375C17.954 0.850031 17.59 0.699219 17.2028 0.699219C16.8157 0.699219 16.4518 0.849957 16.1781 1.12368L15.1516 2.15012C14.8779 2.42384 14.7271 2.78773 14.7271 3.17493C14.7271 3.56198 14.8779 3.92595 15.1515 4.19967L15.3719 4.42003L6.56644 13.2255L6.34608 13.0051C5.78105 12.4402 4.86163 12.4402 4.29661 13.0052L3.27016 14.0317C2.99652 14.3054 2.8457 14.6693 2.8457 15.0564C2.8457 15.4435 2.99652 15.8075 3.27016 16.0811L11.1459 23.9569C11.4196 24.2306 11.7836 24.3814 12.1707 24.3814C12.5578 24.3814 12.9217 24.2306 13.1954 23.9569L14.222 22.9305C14.222 22.9305 14.222 22.9305 14.222 22.9305C14.7869 22.3655 14.787 21.4461 14.222 20.881L14.0017 20.6606L16.7864 17.876L24.8141 25.9037C24.6828 26.1208 24.6112 26.3695 24.6112 26.6298C24.6112 27.006 24.7577 27.3597 25.0237 27.6258L32.8386 35.4406C33.1047 35.7067 33.4583 35.8531 33.8347 35.8531C34.2109 35.8531 34.5646 35.7066 34.8307 35.4406L37.5871 32.6843C37.8531 32.4183 37.9996 32.0646 37.9996 31.6883C37.9996 31.312 37.8531 30.9582 37.5871 30.6922ZM15.9664 2.96497L16.993 1.93845C17.049 1.88241 17.1236 1.85154 17.2028 1.85154C17.2821 1.85154 17.3567 1.88241 17.4127 1.93852L25.2886 9.81432C25.3446 9.87035 25.3755 9.94494 25.3755 10.0242C25.3755 10.1035 25.3447 10.1781 25.2885 10.2342L24.2621 11.2606C24.1499 11.3728 23.9543 11.3728 23.8422 11.2607L15.9665 3.3849C15.9104 3.32879 15.8794 3.25427 15.8794 3.17493C15.8794 3.09559 15.9104 3.02115 15.9664 2.96497ZM13.4072 22.1156L12.3806 23.1421C12.2685 23.2542 12.0729 23.2542 11.9607 23.1421L4.08493 15.2663C4.0289 15.2102 3.99795 15.1357 3.99795 15.0564C3.99795 14.9771 4.02882 14.9025 4.08501 14.8464L5.11138 13.82C5.16927 13.7621 5.24527 13.7331 5.32134 13.7331C5.39742 13.7331 5.47342 13.7621 5.53123 13.82L13.407 21.6957C13.5228 21.8115 13.5228 21.9998 13.4072 22.1156ZM16.3789 16.6537C16.3788 16.6537 16.3788 16.6537 16.3787 16.6538L13.1867 19.8458L7.38121 14.0403L16.1867 5.23495L21.9922 11.0404L18.8006 14.232C18.8004 14.2322 18.8001 14.2323 18.7999 14.2326L16.3789 16.6537ZM36.7721 31.8694L34.0158 34.6257C33.9506 34.691 33.8743 34.7008 33.8347 34.7008C33.795 34.7008 33.7188 34.691 33.6535 34.6257L25.8387 26.8108C25.7734 26.7455 25.7636 26.6692 25.7636 26.6296C25.7636 26.59 25.7733 26.5138 25.8387 26.4484L26.0063 26.2809L28.5949 23.6921C28.6602 23.6268 28.7364 23.6171 28.7761 23.6171C28.8157 23.6171 28.892 23.6268 28.9572 23.6921L36.7721 31.507C36.8374 31.5723 36.8472 31.6485 36.8472 31.6881C36.8472 31.7278 36.8374 31.8041 36.7721 31.8694Z" fill="black"/>
        <path d="M21.8819 32.1937H20.9992V29.1575C20.9992 28.4802 20.4482 27.9292 19.7709 27.9292H9.83918C9.52093 27.9292 9.26302 28.1872 9.26302 28.5054C9.26302 28.8235 9.52093 29.0815 9.83918 29.0815H19.7709C19.8128 29.0815 19.8468 29.1156 19.8468 29.1574V32.1936H4.53781V29.1574C4.53781 29.1155 4.57188 29.0815 4.61373 29.0815H6.21909C6.53734 29.0815 6.79525 28.8235 6.79525 28.5054C6.79525 28.1872 6.53734 27.9292 6.21909 27.9292H4.61373C3.93641 27.9292 3.38549 28.4802 3.38549 29.1575V32.1937H2.50273C1.12271 32.1937 0 33.3164 0 34.6964V36.3369C0 36.8684 0.432398 37.3008 0.963953 37.3008H23.4207C23.9522 37.3008 24.3846 36.8684 24.3846 36.3369V34.6964C24.3846 33.3164 23.2619 32.1937 21.8819 32.1937ZM23.2324 36.1485H1.15232V34.6964C1.15232 33.9518 1.75809 33.346 2.50273 33.346H21.882C22.6266 33.346 23.2324 33.9518 23.2324 34.6964V36.1485Z" fill="black"/>
    </g>
    <defs>
        <clipPath id="clip0">
            <rect width="38" height="38" fill="white"/>
        </clipPath>
    </defs>
</svg>
