<svg width="35" height="35" viewBox="0 0 35 35" fill="none" xmlns="http://www.w3.org/2000/svg">
    <g clip-path="url(#clip0)">
        <path d="M0.929207 14.8494C1.24401 15.0387 1.58944 15.131 1.94103 15.131C2.53817 15.131 3.15302 14.8645 3.66402 14.3535C3.75029 14.2672 3.84552 14.1703 3.94936 14.0647C5.23087 12.7609 7.8062 10.1404 11.0046 9.80189V10.9663C11.0044 11.4666 11.2902 11.9141 11.7506 12.1342C12.2205 12.3588 12.7627 12.2961 13.1654 11.9708L19.1455 7.14589C19.456 6.90034 19.6357 6.53467 19.6385 6.1418C19.6414 5.74796 19.4658 5.37888 19.1563 5.12895L13.2055 0.327628C12.8162 -0.0127454 12.2598 -0.0960784 11.7813 0.116117C11.3022 0.328585 11.0046 0.78196 11.0046 1.29939V2.52895C9.66017 2.63949 8.25944 3.07085 6.9136 3.79302C6.58088 3.97152 6.45591 4.38592 6.63448 4.71864C6.81297 5.05136 7.22738 5.17639 7.56009 4.99776C8.93786 4.2585 10.3654 3.86774 11.6883 3.86774C12.0658 3.86774 12.3719 3.56169 12.3719 3.18412V1.41185L18.2234 6.13305L12.3719 10.8542V9.0819C12.3719 8.70434 12.0658 8.39828 11.6883 8.39828C7.60166 8.39828 4.47623 11.5781 2.97432 13.1063C2.87348 13.2088 2.78106 13.3029 2.69725 13.3867C2.26896 13.8151 1.86699 13.818 1.63361 13.6777C1.39038 13.5315 1.30718 13.2416 1.41102 12.9023C1.41341 12.8946 1.4156 12.8869 1.41765 12.8792C1.8015 11.4467 2.4236 10.1017 3.26663 8.88146C3.48122 8.5709 3.40336 8.14507 3.09279 7.93041C2.78222 7.71583 2.3564 7.79362 2.14174 8.10426C1.21154 9.45057 0.524642 10.9343 0.0998417 12.5145C-0.17969 13.4456 0.152549 14.3827 0.929207 14.8494Z" fill="black"/>
        <path d="M14.0646 31.0514C12.7608 29.77 10.1404 27.1946 9.80184 23.9961H10.9662H10.9669C11.4669 23.9961 11.9141 23.7104 12.1341 23.2502C12.3587 22.7803 12.296 22.2381 11.9708 21.8353L7.14585 15.8553C6.9003 15.5448 6.53463 15.3652 6.14176 15.3623C6.13861 15.3623 6.1354 15.3623 6.13225 15.3623C5.74204 15.3623 5.37686 15.5376 5.12891 15.8445L0.327723 21.7952C-0.0127186 22.1844 -0.09612 22.7408 0.116143 23.2194C0.328612 23.6985 0.781987 23.9961 1.29942 23.9961H2.52945C2.70459 26.0954 3.66966 28.3319 5.23747 30.2321C7.09226 32.4801 9.67626 34.1378 12.5144 34.9008C12.7342 34.9668 12.9545 34.9987 13.1687 34.9987C13.8618 34.9987 14.4929 34.6648 14.8495 34.0716C15.3601 33.2221 15.1654 32.1487 14.3535 31.3367C14.2672 31.2505 14.1703 31.1552 14.0646 31.0514ZM13.6776 33.3672C13.5314 33.6104 13.2416 33.6937 12.9023 33.5897C12.8947 33.5873 12.8869 33.5851 12.8792 33.583C7.23848 32.0716 3.86784 27.1741 3.86784 23.3125C3.86784 22.9349 3.56178 22.6289 3.18422 22.6289H1.4118L6.133 16.7773L10.8542 22.6289H9.08186C8.7043 22.6289 8.39824 22.9349 8.39824 23.3125C8.39824 27.3992 11.5781 30.5245 13.1062 32.0264C13.2088 32.1273 13.3029 32.2197 13.3867 32.3035C13.815 32.7319 13.8178 33.1338 13.6776 33.3672Z" fill="black"/>
        <path d="M34.0725 20.1506C33.223 19.64 32.1495 19.8347 31.3377 20.6465C31.2513 20.7329 31.1562 20.8298 31.0523 20.9354C29.7708 22.2392 27.1954 24.8596 23.9971 25.1981V24.0337C23.9973 23.5334 23.7115 23.0859 23.2511 22.8658C22.7814 22.6413 22.239 22.704 21.8364 23.0292L15.8563 27.8541C15.5458 28.0997 15.3662 28.4654 15.3633 28.8582C15.3604 29.2521 15.5361 29.6212 15.8455 29.8712L21.7963 34.6723C22.0424 34.8875 22.3552 34.9999 22.673 34.9999C22.8578 34.9999 23.0444 34.9619 23.2205 34.8838C23.6996 34.6714 23.9971 34.2179 23.9971 33.7005V32.4705C26.0965 32.2954 28.333 31.3303 30.2332 29.7625C32.4812 27.9077 34.1389 25.3237 34.9019 22.4855C35.1814 21.5545 34.8491 20.6174 34.0725 20.1506ZM33.5906 22.0977C33.5883 22.1054 33.5861 22.1132 33.584 22.1209C32.0726 27.7616 27.1751 31.1322 23.3134 31.1322C22.936 31.1322 22.6298 31.4383 22.6298 31.8158V33.5882L16.7783 28.867L22.6298 24.1458V25.9181C22.6298 26.2957 22.936 26.6017 23.3134 26.6017C27.4 26.6017 30.5254 23.422 32.0274 21.8938C32.1282 21.7912 32.2207 21.6971 32.3045 21.6132C32.7329 21.1849 33.1348 21.1821 33.3682 21.3224C33.6113 21.4686 33.6945 21.7585 33.5906 22.0977Z" fill="black"/>
        <path d="M20.9354 3.94852C22.2392 5.23003 24.8597 7.80536 25.1983 11.0038H24.0338C24.0336 11.0038 24.0334 11.0038 24.0331 11.0038C23.5331 11.0038 23.0859 11.2896 22.8659 11.7498C22.6413 12.2196 22.704 12.7619 23.0293 13.1645L27.8542 19.1447C28.0997 19.4552 28.4653 19.6348 28.8583 19.6376H28.8678C29.2581 19.6376 29.6233 19.4623 29.8713 19.1554L34.6724 13.2046C35.0128 12.8154 35.0961 12.259 34.8839 11.7805C34.6715 11.3014 34.2181 11.0037 33.7007 11.0037H32.4708C32.2956 8.90441 31.3305 6.66795 29.7628 4.76777C27.9079 2.51983 25.3238 0.862125 22.4857 0.0991393C21.5547 -0.18046 20.6175 0.151846 20.1507 0.928368C19.6401 1.77783 19.8348 2.85132 20.6467 3.66325C20.7329 3.74952 20.8297 3.84475 20.9354 3.94852ZM21.3225 1.63284C21.4688 1.38954 21.7588 1.30641 22.0978 1.41025C22.1055 1.41264 22.1132 1.41483 22.121 1.41688C27.7617 2.92829 31.1323 7.8258 31.1323 11.6874C31.1323 12.065 31.4384 12.371 31.8159 12.371H33.5882L28.867 18.2227L24.1458 12.371H25.9182C26.2957 12.371 26.6019 12.065 26.6019 11.6874C26.6019 7.60075 23.4219 4.47539 21.8938 2.97341C21.7912 2.87258 21.6972 2.78015 21.6134 2.69648C21.185 2.26805 21.1822 1.86609 21.3225 1.63284Z" fill="black"/>
        <path d="M4.72677 6.85986C5.10432 6.85986 5.41036 6.55382 5.41036 6.17627C5.41036 5.79872 5.10432 5.49268 4.72677 5.49268H4.72629C4.34874 5.49268 4.04297 5.79872 4.04297 6.17627C4.04297 6.55382 4.34922 6.85986 4.72677 6.85986Z" fill="black"/>
    </g>
    <defs>
        <clipPath id="clip0">
            <rect width="35" height="35" fill="white"/>
        </clipPath>
    </defs>
</svg>
